<?xml version="1.0" encoding="UTF-8" standalone="no"?>
<!-- Created with Inkscape (http://www.inkscape.org/) -->

<svg
   xmlns:dc="http://purl.org/dc/elements/1.1/"
   xmlns:cc="http://creativecommons.org/ns#"
   xmlns:rdf="http://www.w3.org/1999/02/22-rdf-syntax-ns#"
   xmlns:svg="http://www.w3.org/2000/svg"
   xmlns="http://www.w3.org/2000/svg"
   xmlns:sodipodi="http://sodipodi.sourceforge.net/DTD/sodipodi-0.dtd"
   xmlns:inkscape="http://www.inkscape.org/namespaces/inkscape"
   version="1.0"
   width="543.25400"
   height="505.62000"
   id="svg2"
   inkscape:version="0.48.4 r9939"
   sodipodi:docname="smo50.svg">
  <metadata
     id="metadata3079">
    <rdf:RDF>
      <cc:Work
         rdf:about="">
        <dc:format>image/svg+xml</dc:format>
        <dc:type
           rdf:resource="http://purl.org/dc/dcmitype/StillImage" />
      </cc:Work>
    </rdf:RDF>
  </metadata>
  <sodipodi:namedview
     pagecolor="#ffffff"
     bordercolor="#666666"
     borderopacity="1"
     objecttolerance="10"
     gridtolerance="10"
     guidetolerance="10"
     inkscape:pageopacity="0"
     inkscape:pageshadow="2"
     inkscape:window-width="1600"
     inkscape:window-height="838"
     id="namedview3077"
     showgrid="false"
     inkscape:zoom="0.3300447"
     inkscape:cx="233.6729"
     inkscape:cy="77.49158"
     inkscape:window-x="-8"
     inkscape:window-y="-8"
     inkscape:window-maximized="1"
     inkscape:current-layer="svg2" />
  <defs
     id="defs4">
    <marker
       markerUnits="strokeWidth"
       refX="0"
       refY="5"
       markerWidth="4"
       markerHeight="3"
       orient="auto"
       viewBox="0 0 10 10"
       id="ArrowEnd">
      <path
         d="M 0,0 L 10,5 L 0,10 L 0,0 z"
         id="path7" />
    </marker>
    <marker
       markerUnits="strokeWidth"
       refX="10"
       refY="5"
       markerWidth="4"
       markerHeight="3"
       orient="auto"
       viewBox="0 0 10 10"
       id="ArrowStart">
      <path
         d="M 10,0 L 0,5 L 10,10 L 10,0 z"
         id="path10" />
    </marker>
  </defs>
  <g
     id="g12"
     transform="translate(7.8804292,139.68076)">
    <path
       d="m 53.8891,144.947 0,-3.023 0,2.352 0,-0.336 0.335,-6.383 0,-2.688 0,0 0.336,-2.687 0,-2.356 0,0 0,1.684 0.336,1.008 0,-1.684 0,0.34 0,-1.348 0.336,-0.672 0,-0.671 0,0 0,0.335 0.336,-1.007 0,0.672 0,1.679 0.336,11.426 0,1.008 0,3.023 0,-1.008 0.336,0.672 0,0.672 0,-0.336 0,6.047 0.336,-5.711 0,6.051 0,0 0.336,5.039 0,-4.367 0,2.015 0,-7.058 0.336,-0.672 0,0 0,0 0,1.008 0.336,2.687 0,-1.008 0,0 0,5.043 0.336,1.008 0,-2.351 0,-3.028 0.336,0.672 0,0 0,-4.703 0,-0.336 0.336,-6.719 0,-2.351 0,6.383 0,0.672 0.336,0 0,6.046 0,2.356 0,-1.012 0.336,0 0,0 0,1.348 0.335,-1.348 0,3.699 0,-1.679 0,0.672 0.336,-3.028 0,1.012 0,-4.371 0,0 0.336,0 0,0.672 0,-1.68 0,-1.008 0.336,3.696 0,-15.454 0,-6.05 0.336,0 0,-0.672 0,6.051 0,-0.336 0.336,0 0,1.343 0,6.047 0,-7.39 0.336,6.718 0,0.336 0,-4.703 0,0 0.34,-0.336 0,-0.336 0,1.344 0.336,0 0,-3.023 0,0 0,-14.45 0.336,3.36 0,-2.688 0,-2.351 0,-13.778 0.336,-13.7734 0,6.383 0,1.008 0.336,-6.719 0,2.0151 0,-6.05 0,-6.719 0.336,0.336 0,1.344 0,-2.3521 0,0.3361 0.336,-0.3361 0,0.6721 0,-0.336 0,-1.0081 0.336,0 0,2.6881 0,0.336 0.335,3.359 0,-2.0161 0,-2.3509 0,-1.6801 0.336,-0.336 0,-1.68 0,-2.3509 0,16.1289 0.336,5.711 0,-0.672 0,-1.344 0,0 0.336,-6.723 0,0 0,-5.7099 0.336,-0.672 0,7.7259 0,0 0,-1.008 0.336,4.036 0,0 0,0.336 0,0.6711 0.336,-7.058 0,-1.3441 0,3.359 0,-0.336 0.336,16.8014 0,-4.0314 0,-0.336 0.336,2.0164 0,14.449 0,16.465 0,-12.098 0.336,-2.016 0,4.704 0,-0.672 0,5.711 0.336,0.336 0,-3.696 0,-0.336 0,2.352 0.336,0 0,0.336 0,-0.336 0.336,-10.75 0,0 0,0 0,0.336 0.336,1.008 0,2.015 0,2.688 0,1.679 0.336,0.672 0,-4.031 0,4.367 0.335,2.016 0,-4.367 0,-0.672 0,0.672 0.336,1.679 0,-1.343 0,4.031 0,-1.68 0.336,5.711 0,0.676 0,-2.02 0.336,-2.015 0,0.336 0,-1.68 0,-1.008 0.336,-10.414 0,-8.066"
       id="path30"
       style="fill:none;stroke:#000000;stroke-width:0.93333298;stroke-linejoin:round"
       inkscape:connector-curvature="0" />
    <path
       d="m 71.0251,106.307 0,7.394 0,-0.672 0.336,-1.679 0,-1.344 0,0 0,2.016 0.336,-3.028 0,0 0,3.699 0.336,-9.074 0,11.09 0,1.68 0,-4.703 0.336,1.679 0,-11.425 0,-1.344 0,3.695 0.336,0 0,0.672 0,-6.0474 0,-1.6799 0.336,-3.6951 0,11.4224 0,2.352 0.336,-1.68 0,-3.695 0,-1.008 0,0 0.336,-4.0323 0,0 0,1.344 0,1.0079 0.336,0 0,-3.023 0,2.0151 0,0.6719 0.336,-1.0079 0,-0.336 0,-7.0541 0.336,-0.672 0,-0.336 0,-0.676 0,0 0.336,-8.7339 0,2.0149 0,0.336 0,3.3601 0.335,0.336 0,9.7459 0,7.0544 0,-0.671 0.336,-7.7274 0,1.344 0,2.0151 0.336,-1.3431 0,1.3431 0,5.3753 0,0 0.336,-2.351 0,7.054 0,-7.39 0,-1.0084 0.336,6.7194 0,-2.352 0,11.762 0.336,4.703 0,-5.375 0,-4.703 0,-8.066 0.336,5.71 0,2.02 0,4.367 0,-0.336 0.336,-1.008 0,0.336 0,3.696 0,-1.008 0.336,-3.36 0,2.016 0,0.336 0.336,-0.336 0,5.039 0,-0.336 0,3.024 0.336,0.336 0,0.336 0,-3.024 0,0 0.336,2.016 0,-9.407 0,0 0,-5.714 0.336,-0.336 0,-3.696 0,0 0.336,-3.0234 0,-2.6879 0,0.672 0,-0.336 0.336,-0.336 0,-6.3821 0,9.4064 0,-2.3523 0.335,-0.336 0,-2.6871 0,0 0,-3.695 0.336,-1.68 0,0.336 0,2.6871 0.336,8.3993 0,0.336 0,-4.7034 0,2.351 0.336,-4.367 0,1.68 0,4.3674 0,4.031 0.336,8.066 0,0 0,-0.671 0,-0.336 0.336,-4.036 0,2.016 0,0 0.336,-16.1254 0,1.68 0,3.0231 0,2.0163 0.336,-0.3364 0,-9.406 0,0 0,-1.008 0.34,-0.676 0,1.684 0,-5.3789 0.336,1.344 0,0.6709 0,6.387 0,9.0704 0.336,-2.015 0,5.711 0,0.336 0,14.113 0.336,-1.68 0,3.024 0,-1.68 0,-0.336 0.336,0.672 0,0.336 0,-3.359 0.336,-6.047 0,2.687 0,-3.023 0,3.695 0.336,-0.336 0,5.039 0,-4.367 0,-0.336 0.335,-3.023 0,0 0,2.015 0.336,-2.015 0,0 0,3.359 0,1.344 0.336,-1.68 0,-9.746 0,0 0,-2.016 0.336,1.008 0,-2.015 0,3.359 0,-5.375 0.336,0 0,14.113 0,0 0.336,-1.68 0,0 0,0 0,9.071 0.336,-1.344 0,1.008 0,-4.367 0,1.007 0.336,-5.71 0,2.351 0,-1.008 0,0 0.336,4.367 0,0.672 0,-0.672 0.336,-3.359 0,-0.672 0,0.336 0,0.672 0.336,4.367 0,0.336 0,0 0,0.672 0.336,10.078 0,3.028 0,0 0.336,-6.387 0,-2.016 0,-0.336 0,0.336 0.336,5.711 0,2.356 0,-0.336 0,-1.68 0.336,-1.012 0,5.043 0,-4.371 0,1.012 0.336,-0.336 0,1.344 0,9.742 0.335,-0.672 0,1.344 0,0 0,-0.336 0.336,0.336 0,5.711 0,1.007 0,2.02 0.336,-13.777 0,2.351 0,-0.672 0,-2.351 0.336,-1.008 0,-1.008 0,-0.336 0.336,4.367 0,-0.336 0,10.75 0,0.336 0.336,-10.75 0,-1.343 0,-14.114 0,2.352 0.336,2.016 0,0 0,1.007 0,1.344 0.336,-2.016 0,0 0,-1.679 0.336,-1.68 0,-6.047 0,-3.023 0,3.695 0.336,0.672 0,9.742 0,0.676 0,-10.754 0.336,0.336 0,-2.688 0,-2.687 0,0.672 0.336,2.015 0,1.008 0,0 0.336,4.032 0,-1.344 0,0 0,1.344 0.336,0 0,-2.688 0,-2.352 0,0.336 0.336,1.344 0,-2.351 0,-2.352 0,0 0.336,-0.336 0,13.102 0,0 0.335,0.672 0,-2.352 0,1.008 0,-1.008 0.336,1.008 0,-3.696 0,-0.335 0,-1.008 0.336,0 0,0.672 0,1.007 0,13.778 0.336,0 0,-1.344 0,-3.695 0.336,-3.364 0,0 0,2.02 0,-5.043 0.336,2.016 0,-11.758 0,2.351"
       id="path32"
       style="fill:none;stroke:#000000;stroke-width:0.93333298;stroke-linejoin:round"
       inkscape:connector-curvature="0" />
    <path
       d="m 97.9041,118.74 0,2.688 0.336,-1.344 0,-4.703 0,0 0.336,1.68 0,10.414 0,0.336 0,1.343 0.336,2.692 0,2.687 0,-2.687 0,-7.395 0.336,1.344 0,-0.336 0,1.344 0,-4.703 0.336,-0.336 0,0.672 0,3.695 0.336,-5.711 0,-1.344 0,-2.351 0,-2.016 0.3359,2.352 0,-10.754 0,-6.3834 0,-1.008 0.336,0 0,-1.0079 0,4.3683 0.336,-2.016 0,2.351 0,0.336 0,-0.671 0.336,-3.6963 0,0.3359 0,-2.351 0,10.0784 0.335,-0.336 0,-1.344 0,-0.672 0,0.672 0.336,7.059 0,3.695 0,-1.008 0.336,-1.68 0,3.024 0,0 0,13.437 0.336,4.036 0,-4.372 0,0.672 0,2.692 0.336,0 0,-3.364 0,-19.824 0.336,-0.672 0,2.02 0,-2.02 0,-15.7893 0.336,3.0239 0,7.0544 0,-0.671 0,0 0.34,0.335 0,4.704 0,-1.008 0,-3.696 0.336,-2.351 0,8.734 0,-5.711 0.336,0.336 0,4.031 0,-0.335 0,8.402 0.336,6.719 0,0.336 0,-2.016 0,-0.672 0.336,0 0,2.352 0,1.343 0,-6.046 0.336,0.335 0,3.36 0,0.672 0.336,2.687 0,-1.679 0,1.007 0,-0.672 0.336,-0.335 0,-1.68 0,-3.36 0,0 0.335,-0.671 0,1.007 0,0.672 0,-1.343 0.336,-0.336 0,-1.008 0,-1.68 0.336,0.672 0,2.016 0,-0.672 0,3.695 0.336,19.824 0,-0.336 0,-6.047 0,-8.402 0.336,13.777 0,-2.015 0,0.672 0,-1.008 0.336,-2.016 0,0 0,0 0.336,0.336 0,0.672 0,1.68 0,-0.336 0.336,6.047 0,3.023 0,0.336 0,-6.719 0.336,-1.008 0,-0.671 0,-8.739 0,-10.75 0.336,-0.336 0,-0.336 0,0 0.336,-0.335 0,5.71 0,-0.335 0,1.007 0.336,0 0,-3.359 0,2.687 0,0 0.336,2.016 0,-0.336 0,2.352 0,3.023 0.336,-2.351 0,1.343 0,0 0.336,0 0,-4.703 0,-4.367 0,-0.672 0.336,6.383 0,-0.672 0,-1.008 0,0 0.335,-0.672 0,0.672 0,0.336 0.336,2.688 0,10.418 0,1.343 0,2.016 0.336,-2.016 0,2.016 0,1.344 0,-2.016 0.336,0.336 0,0.672 0,1.68 0,-0.336 0.336,-0.672 0,-0.336 0,0.336 0.336,-10.078 0,7.39 0,2.016 0,-1.344 0.336,10.078 0,11.426 0,-0.672 0,0.336 0.336,-4.367 0,-0.672 0,0.336 0,3.695 0.336,-0.671 0,-8.739 0,3.028 0.336,0.336 0,-0.336 0,-0.672 0,-1.684 0.336,-0.672 0,0 0,2.356 0,0 0.336,-2.02 0,-1.008 0,1.008 0.336,4.371 0,0.672 0,-0.336 0,0.672 0.336,-1.68 0,-0.336 0,-1.343 0,-4.707 0.336,-2.352 0,-2.687 0,-0.672 0,-4.032 0.336,0 0,1.68 0,-0.336 0.335,-0.336 0,2.016 0,0 0,0 0.336,1.68 0,-0.336 0,-0.672 0,-2.688 0.336,0.336 0,10.078 0,-1.007 0.336,-3.024 0,1.008 0,-0.336 0,-2.016 0.336,2.688 0,0.336 0,4.035 0,1.008 0.336,-10.082 0,0.336 0,0 0,7.726 0.336,0 0,-3.695 0,-2.016 0.336,-1.007 0,3.023 0,0.672 0,-11.422 0.336,-10.754 0,-3.359 0,1.343 0,2.352 0.336,5.043 0,0 0,-1.684 0,-8.062 0.336,0 0,-1.344 0,-4.367 0.336,-3.024 0,4.368 0,0.672 0,1.679 0.336,-1.344 0,-12.769 0,-4.031 0,0 0.336,-2.0164 0,-21.504 0,0 0,-5.375 0.336,0 0,-1.68 0,-8.402 0.335,0.336 0,1.008 0,0 0,-7.0549 0.336,-0.336 0,1.6799 0,1.008 0,0.672 0.336,-0.672 0,-2.3519 0,0 0,-2.6871 0.336,0 0,9.07 0,-17.137 0.336,-6.7179 0,0.6709 0,0 0,1.008 0.336,1.3441 0,-5.375 0,0.672 0,-2.3521 0.336,11.758 0,10.082 0,3.6951 0.336,-1.3431 0,-2.352 0,-1.3439 0,0 0.34,2.3519"
       id="path34"
       style="fill:none;stroke:#000000;stroke-width:0.93333298;stroke-linejoin:round"
       inkscape:connector-curvature="0" />
    <path
       d="m 125.123,57.9236 0,8.0621 0,-1.0071 0,4.3711 0.336,2.3509 0,5.039 0,-4.703 0,1.3441 0.336,3.3589 0,-1.3429 0,16.464 0.336,1.344 0,-2.0151 0,1.3431 0,20.4963 0.336,-0.336 0,4.032 0,-1.008 0,1.68 0.336,9.742 0,0.672 0,-13.102 0,0 0.336,6.383 0,-7.055 0,-2.687 0.335,-5.715 0,-0.672 0,3.695 0,-1.343 0.336,0 0,0.671 0,-2.015 0,-0.336 0.336,17.808 0,7.395 0,-9.074 0,-1.008 0.336,-2.352 0,-5.039 0,7.055 0.336,-13.105 0,-5.711 0,0 0,0 0.336,-0.672 0,1.008 0,-0.336 0,1.007 0.336,-0.671 0,0.336 0,-3.0244 0,-19.1519 0.336,-0.336 0,3.0229 0,0 0.336,3.0241 0,-9.7431 0,0.336 0,1.68 0.336,-1.344 0,3.0241 0,1.008 0,1.0069 0.336,2.3521 0,0.336 0,1.344 0.336,-0.672 0,-2.6881 0,0.336 0,-10.078 0.336,13.4381 0,0 0,-17.133 0,8.0619 0.336,-19.824 0,-2.687 0,-2.016 0.336,0 0,3.0231 0,-3.6951 0,-3.695 0.336,2.0151 0,-2.0151 0,-10.0819 0,-0.672 0.335,7.3899 0,0.336 0,2.692 0,5.711 0.336,0 0,12.0931 0,7.3949 0.336,-8.738 0,-0.672 0,-2.6879 0,-2.6871 0.336,2.3511 0,-0.3351 0,0.6711 0,-0.6711 0.336,-1.68 0,19.824 0,0 0,-1.68 0.336,-2.0149 0,0.672 0,8.734 0.336,0.672 0,1.68 0,-1.68 0,0.336 0.336,0.336 0,-8.7351 0,0 0,-2.3509 0.336,-3.0241 0,-3.0229 0,2.016 0,0 0.336,10.078 0,2.0149 0,0.336 0.336,10.4181 0,0.3359 0,25.5354 0,7.727 0.336,2.687 0,-13.437 0,-1.344 0,1.68 0.336,3.695 0,0 0,2.688 0,9.746 0.336,-1.008 0,-3.699 0,1.007 0.336,2.356 0,-4.707 0,-0.336 0,0.672 0.336,-3.695 0,8.402 0,-0.672 0,-17.473 0.335,3.696 0,-5.711 0,0.672 0.336,-2.692 0,0.676 0,4.703 0,-10.418 0.336,-1.344 0,1.344 0,1.344 0,-7.7273 0.336,2.0159 0,-3.359 0,0 0,3.023 0.336,0 0,-2.0159 0,7.7273 0.336,0.336 0,2.351 0,1.68 0,-11.0863 0.336,-0.336 0,-0.336 0,0.336 0,-0.672 0.336,-0.672 0,7.3913 0,-0.672 0,-3.6954 0.336,-1.008 0,0.336 0,11.7624 0.336,2.015 0,2.016 0,0.672 0,-0.336 0.336,-1.344 0,-2.351 0,1.679 0,4.032 0.336,-0.672 0,-2.016 0,4.031 0,-4.367 0.336,-0.672 0,4.032 0,0 0.336,2.015 0,17.137 0,-4.703 0,4.703 0.336,-0.336 0,2.687 0,-7.39 0,-6.387 0.336,8.067 0,1.343 0,-13.777 0,-4.703 0.335,7.39 0,0.336 0,1.68 0.336,-1.68 0,0.336 0,-0.336 0,2.352 0.336,-6.383 0,-2.016 0,-4.031 0,-4.031 0.336,14.445 0,0.336 0,0 0.336,0 0,0.672 0,0.336 0,-4.367 0.336,0 0,-1.68 0,-5.039 0,-1.68 0.336,0.672 0,-3.023 0,-1.012 0,1.348 0.34,-0.336 0,1.344 0,0.336 0.336,0.335 0,-4.371 0,-1.343 0,2.351 0.336,-2.351 0,4.707 0,-0.672 0,0 0.336,0.336 0,-0.672 0,2.351 0.336,5.375 0,-2.351 0,-0.336 0,0.336 0.336,1.344 0,6.046 0,2.352 0,0.336 0.336,13.441 0,5.711 0,-1.007 0,-2.352 0.336,0 0,1.68 0,0 0.335,0 0,-0.336 0,6.047 0,0.671 0.336,-3.359 0,3.359 0,-5.71 0,0.671 0.336,-0.671 0,-3.696 0,-0.336 0,-4.367 0.336,4.367 0,-10.082 0,5.379 0.336,5.375 0,0 0,0 0,2.352 0.336,0.672 0,-14.786 0,0 0,0 0.336,0.672 0,-5.039 0,5.711 0.336,-1.008 0,0 0,3.028 0,-2.02 0.336,-13.437 0,-2.688 0,-6.723 0,-4.031 0.336,0 0,-4.0314 0,-3.695 0,0.336 0.336,-4.3679 0,5.375"
       id="path36"
       style="fill:none;stroke:#000000;stroke-width:0.93333298;stroke-linejoin:round"
       inkscape:connector-curvature="0" />
    <path
       d="m 152.002,97.2357 0,-1.6791 0.336,-0.336 0,-0.336 0,0.336 0,-1.008 0.336,1.68 0,2.6871 0,1.3439 0,-1.008 0.336,-4.031 0,-0.336 0,-3.023 0,1.6791 0.336,0.3359 0,7.3914 0,-1.6804 0.336,6.3834 0,0 0,1.008 0,3.699 0.335,-4.371 0,0.336 0,0 0,10.754 0.336,0 0,-1.008 0,1.008 0,1.007 0.336,-2.015 0,0.336 0,14.449 0.336,-0.34 0,-5.375 0,1.344 0,4.707 0.336,-4.707 0,0.672 0,-1.344 0,-1.008 0.336,-1.679 0,10.753 0,2.688 0,7.055 0.336,3.023 0,-1.008 0,3.024 0.336,6.722 0,-2.015 0,4.031 0,-3.359 0.336,2.687 0,-21.168 0,-2.687 0,-6.723 0.336,1.008 0,0 0,0 0,-6.047 0.336,1.008 0,4.031 0,-1.008 0.336,1.344 0,0 0,-1.008 0,-0.336 0.336,3.36 0,-3.024 0,-3.023 0,-26.5434 0.336,-16.8009 0,3.6949 0,-2.0149 0,0 0.336,0 0,-1.68 0,1.344 0.336,0.336 0,0 0,2.0149 0,0 0.335,-0.672 0,-1.3429 0,-1.008 0,0 0.336,-0.336 0,5.039 0,1.68 0.336,1.0069 0,0.672 0,3.028 0,-12.434 0.336,-7.055 0,-1.3429 0,1.6789 0,2.0161 0.336,-14.4491 0,0.336 0,1.0071 0,-9.742 0.336,2.0159 0,-1.008 0,21.168 0.336,3.023 0,4.7041 0,-1.008 0,-2.3521 0.336,-1.008 0,3.3601 0,-2.6881 0,-7.7259 0.336,-3.028 0,2.356 0,-2.02 0.336,1.0079 0,-0.3359 0,-1.008 0,0 0.336,-0.672 0,23.8599 0,16.1254 0,0.336 0.336,5.043 0,-0.336 0,-8.402 0,-4.0323 0.336,-0.336 0,1.0079 0,0 0.336,-3.695 0,-2.0159 0,1.0079 0,1.68 0.336,-1.344 0,0 0,-3.359 0,0 0.335,0.336 0,-2.016 0,0.672 0.336,-0.336 0,15.7894 0,7.394 0,-11.425 0.336,0 0,0 0,15.457 0,0 0.336,-12.098 0,3.023 0,-3.023 0,0.672 0.336,0.672 0,-0.336 0,0 0.336,-3.024 0,0.672 0,1.344 0,1.344 0.336,1.343 0,5.379 0,4.368 0,-2.352 0.336,2.016 0,0 0,0.672 0,1.343 0.34,1.008 0,2.688 0,3.023 0.336,-8.734 0,-1.344 0,-5.039 0,-5.043 0.336,8.738 0,0.336 0,-0.336 0,0 0.336,-11.09 0,4.367 0,2.016 0,-0.336 0.336,-14.1094 0,0 0,0.336 0.336,-4.367 0,0.336 0,-7.0589 0,1.008 0.336,0.336 0,0.672 0,0.3349 0,-6.3819 0.335,10.7539 0,0 0,-9.747 0,0 0.336,0 0,7.395 0,7.391 0.336,4.0314 0,-4.0314 0,-0.336 0,-3.3599 0.336,1.3439 0,-0.336 0,-2.351 0,-0.336 0.336,1.3431 0,0.336 0,2.0159 0,0 0.336,2.3511 0,0.336 0,-1.0071 0.336,-1.008 0,0 0,2.0151 0,0 0.336,-16.464 0,9.4099 0,2.0151 0,3.6959 0.336,5.3754 0,-3.6963 0,-5.375 0,-2.6871 0.336,-0.336 0,11.0864 0,0 0.336,-1.0084 0,-1.3439 0,14.4503 0,8.062 0.336,-3.023 0,6.718 0,0 0,6.723 0.336,0 0,-1.012 0,0 0.336,-1.679 0,2.015 0,2.02 0,-0.672 0.336,7.39 0,-5.039 0,-9.746 0,6.047 0.336,0 0,0.336 0,4.035 0,0.336 0.335,2.352 0,-0.336 0,0.672 0.336,4.031 0,-0.336 0,-6.047 0,1.008 0.336,-21.84 0,-4.707 0,-5.039 0,0 0.336,-5.7114 0,-1.6799 0,-4.031 0,-1.6791 0.336,-2.352 0,2.352 0,-1.344 0.336,0 0,2.3511 0,-2.6871 0,2.6871 0.336,10.0783 0,-4.7033 0,-8.7341 0,-14.1129 0.336,-4.3681 0,0.672 0,-5.0429 0.336,-2.6871 0,-5.039 0,2.6871 0,-5.039 0.336,-0.336 0,-2.6871 0,-2.3519 0,1.0079 0.336,0 0,1.008 0,3.3591 0,-0.672 0.336,0 0,0.336 0,5.039 0.336,9.411 0,-0.336 0,-11.0901 0,-0.336"
       id="path38"
       style="fill:none;stroke:#000000;stroke-width:0.93333298;stroke-linejoin:round"
       inkscape:connector-curvature="0" />
    <path
       d="m 178.881,58.5956 0.336,-0.672 0,-0.672 0,1.344 0,0.336 0.336,3.359 0,-14.445 0,-1.008 0.336,3.6951 0,-3.6951 0,20.832 0,-3.699 0.335,4.3711 0,-0.6721 0,3.023 0,2.352 0.336,4.031 0,1.6801 0,3.0229 0,14.45 0.336,-0.336 0,-0.336 0,-3.0239 0.336,-0.336 0,-3.6991 0,0.34 0,8.3981 0.336,6.7193 0,14.449 0,-0.336 0,0 0.336,6.383 0,-1.008 0,6.047 0,-3.023 0.336,2.687 0,0 0,2.356 0.336,1.68 0,0 0,0 0,-0.336 0.336,0.672 0,0 0,-2.016 0,0 0.336,0 0,-1.012 0,-10.078 0,9.742 0.336,0.336 0,-4.367 0,-0.336 0.336,-2.016 0,-4.367 0,0 0,14.449 0.336,1.344 0,0.336 0,3.695 0,0.336 0.336,5.039 0,-1.007 0,1.007 0,3.696 0.336,0 0,0.336 0,-3.024 0.336,-1.343 0,-0.336 0,1.007 0,-8.062 0.335,-10.754 0,3.359 0,4.371 0,-1.679 0.336,-19.824 0,-3.028 0,0 0.336,2.02 0,0.336 0,-3.7 0,2.692 0.336,-0.336 0,2.016 0,3.695 0,-1.008 0.336,-0.336 0,-2.016 0,0.336 0,-9.746 0.336,-0.336 0,-1.679 0,-7.3914 0.336,-1.0079 0,-2.6871 0,-2.356 0,1.012 0.34,9.4061 0,-3.3591 0,-4.367 0,3.023 0.336,0 0,2.016 0,4.7034 0,-6.3834 0.336,-1.6799 0,-1.0071 0,1.6791 0.336,0 0,-0.672 0,3.0239 0,-0.672 0.336,-0.336 0,-1.0079 0,-1.008 0,-0.336 0.336,1.344 0,-2.3511 0,-1.008 0,-7.059 0.336,6.723 0,11.0864 0,-1.0084 0.336,-0.336 0,1.3444 0,18.144 0,4.703 0.335,0.336 0,-2.687 0,0.336 0,2.351 0.336,1.008 0,-1.008 0,-4.703 0,0.336 0.336,0 0,0.672 0,0.672 0.336,-0.336 0,10.078 0,1.012 0,1.68 0.336,7.39 0,-1.68 0,-4.367 0,2.016 0.336,-5.375 0,0 0,5.039 0.336,-1.344 0,-1.679 0,0.671 0,-0.335 0.336,0 0,7.39 0,1.344 0,-0.336 0.336,-0.672 0,0 0,1.344 0,-2.016 0.336,-0.672 0,-1.343 0,2.015 0.336,1.344 0,-0.672 0,1.344 0,3.695 0.336,-2.351 0,6.382 0,0 0,1.684 0.336,-1.012 0,0.676 0,0.336 0.336,-4.035 0,0.336 0,-1.008 0,-0.336 0.336,-0.672 0,-1.68 0,-0.335 0,-12.766 0.335,4.031 0,-1.008 0,1.344 0,-1.344 0.336,0 0,0.336 0,-0.336 0.336,-0.336 0,-3.699 0,-6.047 0,5.375 0.336,9.074 0,0.336 0,3.024 0,-3.695 0.336,-5.039 0,-0.672 0,2.687 0,-18.48 0.336,0 0,-0.672 0,-0.336 0.336,-6.383 0,0.336 0,1.008 0,0.336 0.336,0 0,0 0,2.687 0,1.344 0.336,-0.336 0,0 0,0 0,0.336 0.336,-0.672 0,2.688 0,1.007 0.336,0.672 0,0 0,-16.129 0,-1.343 0.336,-0.336 0,-1.008 0,-2.6883 0,1.008 0.336,5.0393 0,-4.3674 0,2.6884 0.336,-2.3524 0,13.1054 0,0 0,0 0.336,-1.007 0,1.343 0,2.688 0,-4.367 0.336,0 0,0.336 0,0.672 0,5.375 0.336,0.335 0,0 0,-0.671 0.335,1.679 0,4.032 0,-20.497 0,-2.351 0.336,0.336 0,19.152 0,-7.055 0,-15.7933 0.336,-1.0071 0,-0.336 0,-4.031 0,-2.016 0.336,-0.336 0,-10.0819 0,1.008 0.336,-1.6801 0,-1.008 0,0 0,-0.336 0.336,-0.336 0,-2.3509 0,-0.672 0,-2.3521 0.336,0 0,1.008 0,-1.008 0,17.809 0.336,0.336 0,-0.336 0,0.672 0.336,2.6871 0,0 0,0 0,5.375 0.336,-0.336 0,3.0243 0,-2.3523 0,-2.6871 0.336,0 0,1.008 0,-1.344 0,-1.68 0.336,4.0311 0,-0.336 0,0 0.336,2.6879 0,0.3364 0,-4.0314 0,-4.703 0.336,-0.672 0,1.3431 0,-1.6791 0,25.1994 0.336,8.398"
       id="path40"
       style="fill:none;stroke:#000000;stroke-width:0.93333298;stroke-linejoin:round"
       inkscape:connector-curvature="0" />
    <path
       d="m 206.096,124.115 0,0.672 0,0.336 0,-1.68 0.335,15.457 0,0.336 0,6.719 0.336,2.016 0,0 0,-0.336 0,8.066 0.336,1.008 0,-1.008 0,0.336 0,0.336 0.336,-2.687 0,0.672 0,2.015 0.336,1.344 0,0.336 0,-2.688 0,1.008 0.336,1.008 0,0.336 0,0 0,-13.441 0.336,4.703 0,0 0,-1.344 0.336,-0.336 0,-4.031 0,0 0,-0.336 0.34,0.672 0,4.367 0,0.672 0,-3.696 0.336,1.344 0,0.672 0,0.672 0,-1.344 0.336,0 0,-0.672 0,-0.336 0.336,2.352 0,-12.094 0,-5.715 0,-1.343 0.336,-9.071 0,-2.687 0,0 0,-0.336 0.336,-7.059 0,-2.015 0,0.671 0,0.336 0.336,-6.382 0,2.351 0,2.016 0.335,-2.688 0,0.672 0,-4.7034 0,1.6804 0.336,0.672 0,-0.336 0,2.687 0,-1.008 0.336,0.336 0,-2.687 0,0.336 0,1.343 0.336,0 0,-0.335 0,-5.0403 0.336,0.672 0,14.1143 0,0.336 0,-0.336 0.336,-0.336 0,-7.395 0,4.031 0,-1.679 0.336,-2.688 0,-1.344 0,-0.335 0.336,0.335 0,1.68 0,-5.7113 0,-0.336 0.336,0 0,1.3439 0,-4.367 0,0.672 0.336,-3.0239 0,1.0079 0,5.375 0,3.3594 0.336,-1.343 0,10.754 0,2.351 0.336,-1.008 0,0 0,4.703 0,10.415 0.336,0.671 0,0.336 0,-3.695 0,-2.352 0.336,0 0,3.024 0,-0.672 0,4.703 0.336,-2.015 0,-0.336 0,0 0.336,-0.672 0,1.343 0,0 0,2.692 0.335,-3.027 0,-0.672 0,-4.032 0,-0.336 0.336,5.04 0,-0.672 0,0.672 0,0.335 0.336,-0.671 0,1.679 0,6.051 0.336,-3.359 0,1.679 0,2.688 0,-1.344 0.336,-5.043 0,-1.344 0,2.02 0,5.711 0.336,-3.695 0,-7.395 0,0.336 0,2.016 0.336,-0.336 0,-0.672 0,-0.672 0.336,9.746 0,3.695 0,2.016 0,0 0.336,-3.359 0,0.335 0,-4.031 0,2.688 0.336,-1.68 0,-4.367 0,-0.672 0,6.719 0.336,3.359 0,-3.359 0,-0.672 0.336,0.672 0,-2.016 0,2.688 0,-2.352 0.336,-3.695 0,-4.035 0,-3.696 0,-2.351 0.336,-3.696 0,-1.007 0,2.015 0.336,4.031 0,0 0,-3.695 0,-4.367 0.336,0 0,0 0,0 0,0 0.335,-8.402 0,-3.696 0,0.336 0,0 0.336,3.36 0,4.707 0,1.007 0.336,-0.671 0,-7.059 0,3.023 0,7.059 0.336,0.336 0,2.016 0,0.671 0,4.704 0.336,0.336 0,2.015 0,-2.015 0.336,0.671 0,-7.054 0,3.023 0,-2.687 0.336,3.695 0,-1.008 0,1.68 0,3.359 0.336,0.336 0,3.36 0,-4.032 0,0 0.336,-3.695 0,1.68 0,1.007 0.336,-1.679 0,1.679 0,4.032 0,2.351 0.336,-14.445 0,-4.703 0,4.031 0,6.047 0.336,-0.672 0,-0.336 0,-1.344 0.336,1.344 0,0.336 0,0 0,0 0.336,0 0,-5.039 0,10.078 0,3.36 0.336,0.335 0,0 0,0.336 0,0.672 0.336,-3.359 0,0.336 0,7.058 0.335,0 0,-3.023 0,-0.34 0,0.34 0.336,-3.027 0,0.336 0,-1.008 0,-4.703 0.336,-1.344 0,-2.016 0,4.703 0,-2.015 0.336,3.359 0,1.008 0,-3.359 0.336,-5.375 0,-2.352 0,0.336 0,0 0.336,4.031 0,3.696 0,4.031 0,-0.672 0.336,-3.695 0,2.015 0,1.008 0,-9.742 0.34,2.351 0,9.407 0,7.394 0.336,-1.344 0,-4.035 0,0.336 0,0 0.336,-0.672 0,2.356 0,5.039 0,-1.344 0.336,0.336 0,1.344 0,0 0,-4.367 0.336,1.343 0,-1.343 0,-0.336 0.336,1.008 0,-0.336 0,-3.028 0,0 0.336,-1.344 0,-4.367 0,3.36 0,-2.688 0.336,-4.031 0,-2.016 0,-1.008 0,-4.703 0.335,-1.679 0,3.023 0,0.672 0.336,1.008 0,-2.016 0,0"
       id="path42"
       style="fill:none;stroke:#000000;stroke-width:0.93333298;stroke-linejoin:round"
       inkscape:connector-curvature="0" />
    <path
       d="m 232.978,114.373 0,-1.008 0.336,-1.679 0,-6.723 0,3.023 0,-0.671 0.336,-0.336 0,0 0,-2.352 0,-0.672 0.336,0.336 0,4.031 0,-2.687 0.336,-1.008 0,9.746 0,-1.68 0,3.024 0.336,0 0,-0.336 0,-1.008 0,-1.008 0.336,-2.351 0,-11.7624 0,0 0.336,-1.0079 0,1.3439 0,0 0,-0.336 0.336,2.6884 0,1.343 0,0.672 0,1.344 0.336,0.336 0,-2.688 0,-0.336 0,0.672 0.336,0.336 0,-4.7034 0,-1.6799 0.336,-1.3431 0,-3.0239 0,-0.672 0,-0.336 0.336,0.336 0,-4.0351 0,6.051 0,-1.3439 0.336,-0.336 0,1.0079 0,2.688 0,-6.047 0.335,-1.344 0,5.711 0,10.7504 0.336,-0.672 0,0.672 0,-4.367 0,-2.0164 0.336,2.3524 0,-1.008 0,-3.3603 0,-0.3351 0.336,2.351 0,-5.7109 0,0 0.336,-7.394 0,5.7149 0,-5.0429 0,1.3429 0.336,5.3791 0,1.3439 0,2.6871 0,13.4423 0.336,0.336 0,0.672 0,-4.707 0,-0.672 0.336,0.336 0,0.336 0,3.027 0.336,-4.371 0,0.336 0,-4.367 0,2.015 0.336,-2.351 0,2.015 0,-1.007 0,3.023 0.336,6.723 0,-0.336 0,0.336 0.336,4.703 0,2.687 0,-0.672 0,3.696 0.336,-0.672 0,-9.406 0,1.343 0,-1.343 0.336,2.687 0,6.047 0,2.351 0,-4.367 0.336,0.336 0,-6.383 0,-0.336 0.336,2.688 0,-2.352 0,-0.336 0,1.008 0.336,3.696 0,-6.383 0,0 0,1.008 0.335,-2.016 0,0.336 0,-5.379 0,5.043 0.336,-4.371 0,-3.024 0,-0.335 0.336,-2.016 0,0.336 0,-0.336 0,-1.3444 0.336,5.0394 0,-1.344 0,-0.335 0,2.351 0.336,-1.008 0,5.711 0,-0.336 0,4.371 0.336,-9.074 0,2.016 0,2.687 0.336,-0.336 0,3.364 0,0.336 0,1.343 0.336,4.367 0,-7.726 0,-6.387 0,1.008 0.336,7.059 0,0.671 0,10.75 0,0 0.336,0 0,-1.343 0,0 0.336,-2.352 0,1.344 0,0.672 0,7.726 0.336,-5.039 0,2.016 0,4.031 0,-1.344 0.336,-1.007 0,-1.008 0,2.015 0,-6.718 0.336,3.695 0,-1.344 0,9.074 0.336,5.039 0,0 0,4.368 0,2.687 0.335,0 0,2.016 0,-2.688 0,-5.375 0.336,1.344 0,-0.672 0,1.008 0.336,-4.367 0,-0.336 0,-2.352 0,-2.351 0.336,-0.672 0,-1.012 0,8.738 0,-0.336 0.336,0.336 0,-9.746 0,-0.672 0,-1.007 0.336,-1.008 0,-1.68 0,6.723 0.336,8.398 0,0 0,-5.711 0,-1.343 0.336,-0.336 0,-2.356 0,-3.023 0,0.336 0.34,-7.055 0,2.352 0,-2.688 0,-1.008 0.336,-0.336 0,4.367 0,0 0.336,1.008 0,1.344 0,-1.344 0,0.672 0.336,3.695 0,6.723 0,2.016 0,3.023 0.336,-1.68 0,0.336 0,-9.746 0,-0.336 0.336,-8.734 0,-1.008 0,0 0.336,2.016 0,5.375 0,0 0,0.336 0.335,0.672 0,1.007 0,-1.343 0,3.363 0.336,1.68 0,-3.028 0,-6.718 0.336,1.007 0,0.336 0,0 0,9.075 0.336,-0.672 0,0.672 0,0.671 0,2.688 0.336,1.008 0,-0.336 0,-1.344 0,6.047 0.336,-4.703 0,0 0,2.687 0.336,-4.031 0,0.336 0,5.039 0,-0.672 0.336,5.711 0,1.008 0,-0.336 0,0.336 0.336,-3.359 0,-1.68 0,-1.68 0.336,2.352 0,0.336 0,-0.672 0,-2.352 0.336,0.336 0,-2.015 0,1.679 0,0 0.336,3.024 0,-1.344 0,9.07 0,0.672 0.336,0 0,0.676 0,-1.012 0.336,-3.695 0,-1.68 0,-0.336 0,3.696 0.336,1.343 0,-5.375 0,0.672 0,3.36 0.336,2.351 0,-4.031 0,0.336 0,-12.094 0.335,1.344 0,1.679 0,-3.023 0.336,1.008 0,-1.008 0,-3.023 0,0.672 0.336,1.343 0,-0.672 0,6.719 0,0 0.336,-3.023 0,5.375 0,0.336 0,2.351"
       id="path44"
       style="fill:none;stroke:#000000;stroke-width:0.93333298;stroke-linejoin:round"
       inkscape:connector-curvature="0" />
    <path
       d="m 259.857,145.955 0.336,-14.445 0,-4.707 0,-2.688 0.336,-0.336 0,0.336 0,-3.359 0,1.68 0.336,0.672 0,-2.016 0,0.336 0,0.672 0.336,2.015 0,-4.031 0,0.336 0.336,-0.672 0,-1.344 0,5.375 0,2.016 0.336,-4.703 0,-6.719 0,0 0,0 0.336,-2.015 0,3.359 0,0.336 0,-6.047 0.336,0 0,-5.043 0,-4.367 0.336,-1.6804 0,-0.3359 0,4.7033 0,4.367 0.336,0 0,13.442 0,-0.336 0,0.336 0.336,-5.375 0,-2.016 0,-2.351 0,0 0.336,-1.684 0,-1.68 0,0 0.335,-15.4533 0,0 0,2.6879 0,2.6871 0.336,-2.0151 0,-7.055 0,15.1174 0,2.016 0.336,0.336 0,0.336 0,-1.344 0,6.387 0.336,-0.336 0,-0.672 0,2.015 0.336,-1.007 0,-9.075 0,-0.335 0,3.695 0.336,-1.68 0,-1.344 0,1.68 0,1.344 0.336,-1.68 0,-3.695 0,6.383 0,-2.688 0.336,-1.344 0,1.344 0,-4.7034 0.336,2.0164 0,-4.7043 0,-0.6711 0,4.0314 0.336,9.406 0,-3.023 0,-3.024 0,0.336 0.336,-3.023 0,-0.672 0,0 0,-0.3364 0.336,-3.359 0,8.7344 0,1.008 0.336,3.699 0,2.352 0,1.679 0,-0.336 0.336,0.336 0,15.117 0,-1.679 0,-0.672 0.336,-8.063 0,-1.343 0,6.382 0.336,-3.359 0,2.688 0,0.335 0,0 0.335,0.672 0,-1.343 0,-5.375 0,1.343 0.336,-0.336 0,1.008 0,-2.351 0.336,-1.344 0,-23.1843 0,3.3599 0,-2.6879 0.336,-2.6871 0,-1.68 0,1.68 0,7.7261 0.336,1.0079 0,1.0084 0,-2.6883 0,-1.0071 0.336,1.0071 0,-0.672 0,8.0633 0.336,0.336 0,-8.0633 0,0 0,3.6963 0.34,2.015 0,0 0,3.36 0,-2.016 0.336,-5.3754 0,0.336 0,2.6884 0,-2.6884 0.336,1.0084 0,-0.6724 0,-2.0159 0.336,-0.672 0,-3.695 0,-4.3671 0,0 0.336,2.016 0,-1.344 0,5.039 0,3.3591 0.336,0.672 0,1.0079 0,-1.3439 0,-4.3671 0.336,-11.762 0,0.672 0,0.672 0.336,4.703 0,-1.6789 0,0.3349 0,-1.6789 0.335,12.433 0,-2.0151 0,19.8244 0,0.672 0.336,4.703 0,1.008 0,1.344 0.336,0 0,-2.352 0,0 0,-6.719 0.336,0.672 0,2.352 0,3.695 0,0.672 0.336,-10.75 0,0.336 0,7.726 0,-0.672 0.336,-25.5353 0,2.0159 0,-4.367 0.336,-0.672 0,1.68 0,4.367 0,-5.711 0.336,-2.692 0,2.692 0,-2.02 0,0 0.336,1.684 0,-0.672 0,5.375 0,4.3671 0.336,-2.0151 0,-5.039 0,-5.0429 0.336,2.6909 0,-0.676 0,-0.672 0,-1.6789 0.336,1.0069 0,5.0431 0,9.0713 0,-4.7034 0.336,-3.6959 0,1.3439 0,1.344 0,-5.039 0.336,1.6791 0,-1.3431 0,4.031 0.336,3.0231 0,-6.047 0,-2.3511 0,-0.672 0.335,0.336 0,-0.676 0,1.012 0,-12.77 0.336,8.7351 0,3.3629 0,0 0,0 0.336,0 0,12.0944 0,-1.6804 0.336,-1.3439 0,0 0,20.8323 0,-2.015 0.336,-0.336 0,0.672 0,1.679 0,-1.007 0.336,5.71 0,2.688 0,0 0,-1.68 0.336,-2.351 0,-5.711 0,1.679 0.336,-0.335 0,-0.672 0,1.343 0,2.688 0.336,6.047 0,0.336 0,0.672 0,-3.024 0.336,4.703 0,-5.711 0,0.672 0.336,-7.39 0,3.023 0,4.031 0,0 0.336,-1.008 0,3.36 0,0.336 0,1.344 0.336,-0.672 0,0.672 0,6.05 0,2.016 0.336,2.016 0,-3.696 0,1.344 0.336,-1.68 0,9.407 0,0 0,0 0.336,-1.008 0,-2.016 0,-4.703 0,1.68 0.336,-1.008 0,-1.008 0,-0.672 0.335,5.375 0,-0.672 0,1.344 0,-1.68 0.336,-1.007 0,1.679 0,0 0,0.672 0.336,-0.336 0,3.696 0,2.351 0,-9.406 0.336,-4.367 0,0.336 0,0 0.336,-2.692 0,2.356 0,0.672 0,0.335 0.336,0.336 0,-0.671"
       id="path46"
       style="fill:none;stroke:#000000;stroke-width:0.93333298;stroke-linejoin:round"
       inkscape:connector-curvature="0" />
    <path
       d="m 287.072,133.526 0,-3.7 0,6.051 0.336,-3.023 0,8.062 0,-3.359 0.336,-15.793 0,-7.055 0,0.672 0,1.68 0.336,0 0,-6.383 0,0.336 0,-0.672 0.336,0 0,0 0,-0.336 0,3.695 0.336,0 0,3.024 0,1.679 0.336,0.336 0,-5.375 0,1.344 0,1.68 0.336,-0.672 0,-3.695 0,-6.387 0,1.68 0.336,-0.672 0,0 0,-7.0554 0,3.3594 0.336,1.344 0,-0.672 0,0.336 0.336,-0.336 0,-3.023 0,-1.3444 0,-2.3519 0.335,0 0,13.7783 0,4.031 0,-2.016 0.336,-1.007 0,4.367 0,-1.008 0,-2.352 0.336,-3.363 0,-2.351 0,4.035 0.336,2.015 0,-2.351 0,1.344 0,1.343 0.336,5.039 0,3.024 0,6.719 0,-3.024 0.336,-0.336 0,-2.015 0,6.718 0,0.336 0.336,1.012 0,-2.02 0,-0.335 0.34,-1.68 0,-1.344 0,-0.336 0,-4.703 0.336,0 0,-4.367 0,5.375 0,-0.336 0.336,-0.336 0,2.016 0,0 0,7.726 0.336,1.684 0,-1.008 0,0.336 0.336,8.734 0,-0.336 0,-4.031 0,-0.336 0.336,-5.715 0,-2.687 0,1.679 0,1.008 0.336,3.028 0,0 0,-0.672 0,-1.344 0.335,2.016 0,1.679 0,0 0.336,-4.707 0,2.02 0,3.695 0,2.016 0.336,-0.672 0,1.344 0,2.015 0,2.352 0.336,-0.672 0,0.672 0,13.441 0.336,-2.687 0,-2.692 0,0 0,2.02 0.336,-6.051 0,-0.672 0,-3.695 0,-6.383 0.336,0 0,2.352 0,1.007 0,-4.031 0.336,4.703 0,0.336 0,4.367 0.336,-2.351 0,0.336 0,-2.016 0,3.024 0.336,3.695 0,1.008 0,-0.336 0,3.023 0.336,-1.679 0,-8.063 0,0.672 0,3.359 0.336,-3.359 0,5.375 0,3.023 0.336,-3.359 0,-4.031 0,-11.086 0,-0.336 0.336,3.023 0,0.672 0,-1.008 0,0 0.336,-0.336 0,6.047 0,-1.343 0.336,0 0,-0.672 0,-9.41 0,-0.672 0.335,0.672 0,-0.336 0,0.671 0,0 0.336,-4.031 0,2.688 0,1.679 0,-2.015 0.336,-4.367 0,1.679 0,-1.008 0.336,3.36 0,7.73 0,-9.41 0,-0.672 0.336,0 0,4.032 0,-0.336 0,0.671 0.336,-8.398 0,1.344 0,-6.047 0.336,2.016 0,-4.368 0,-3.359 0,-1.684 0.336,-0.336 0,0 0,1.344 0,4.371 0.336,-0.672 0,-1.007 0,4.703 0,0 0.336,-1.344 0,2.352 0,4.703 0.336,7.054 0,-0.336 0,0.672 0,0.672 0.336,0.34 0,-5.043 0,-8.062 0,-0.672 0.336,1.343 0,-12.097 0,0.672 0,10.082 0.336,-2.688 0,-0.336 0,-1.679 0.336,0.335 0,-4.035 0,4.707 0,-3.699 0.336,3.027 0,-16.1284 0,4.7034 0,-2.6883 0.335,1.0079 0,-0.336 0,-3.359 0,0.672 0.336,-7.391 0,0.336 0,0.336 0.336,-1.008 0,0.336 0,8.7341 0,0 0.336,6.7193 0,0 0,-1.344 0,2.352 0.336,2.015 0,0.672 0,-1.007 0,-0.672 0.336,1.679 0,0.672 0,-0.336 0.336,0.672 0,-2.351 0,-2.016 0,2.352 0.336,-1.344 0,3.359 0,0 0,-0.672 0.336,0 0,0 0,4.035 0,8.063 0.336,0.336 0,-0.336 0,12.098 0.336,-2.692 0,0 0,3.364 0,-1.008 0.336,1.008 0,0 0,0.671 0,-2.015 0.336,3.695 0,0.336 0,16.801 0.336,-7.395 0,5.711 0,-1.344 0,0 0.336,-0.671 0,6.722 0,7.055 0,-5.375 0.336,-3.695 0,0 0,0.336 0,-1.68 0.335,-5.379 0,0 0,-19.824 0.336,6.051 0,-4.036 0,0 0,-3.359 0.336,0.336 0,1.68 0,2.015 0,-2.351 0.336,1.343 0,-2.015 0,2.351 0,2.692 0.336,0 0,0.336 0,1.008 0.336,-3.028 0,0.34 0,-4.035 0,-2.352 0.336,0.336 0,-0.336 0,0.672 0,0 0.34,-5.039 0,-0.672 0,-1.679"
       id="path48"
       style="fill:none;stroke:#000000;stroke-width:0.93333298;stroke-linejoin:round"
       inkscape:connector-curvature="0" />
    <path
       d="m 313.955,117.733 0,-0.336 0.336,-13.442 0,0.336 0,-3.695 0.336,0 0,1.008 0,-4.3683 0,-3.0231 0.336,1.68 0,7.0544 0,0.672 0,-1.008 0.336,-1.679 0,4.703 0,2.015 0.336,-3.023 0,4.031 0,-4.703 0,-5.3753 0.336,-1.008 0,-4.0311 0,5.0391 0,-0.672 0.336,9.7423 0,0.336 0,5.043 0,0 0.335,2.688 0,-6.723 0,-9.4064 0.336,-4.367 0,2.3511 0,-5.039 0,0.672 0.336,0 0,0.6719 0,0 0,-2.351 0.336,-0.336 0,3.359 0,-2.3519 0.336,-14.4491 0,3.0241 0,1.0069 0,-7.0539 0.336,-0.336 0,-1.6801 0,-1.344 0,2.3521 0.336,1.68 0,-1.68 0,14.1089 0,0.336 0.336,2.692 0,-1.68 0,0.336 0.336,4.367 0,4.3671 0,0 0,-10.4181 0.336,-12.4289 0,-4.0321 0,1.68 0,-0.672 0.336,0 0,3.695 0,-4.367 0,8.0631 0.336,6.047 0,0.672 0,4.3709 0.336,-0.672 0,0.672 0,9.7424 0,-0.336 0.336,-3.6954 0,-0.672 0,-0.336 0,4.031 0.336,3.0234 0,4.704 0,0 0,4.035 0.335,1.008 0,-1.008 0,-2.02 0.336,-22.8473 0,-0.336 0,-4.0321 0,-0.336 0.336,1.68 0,18.1454 0,0 0,0 0.336,6.718 0,0.336 0,1.008 0.336,6.387 0,-8.067 0,0 0,0.672 0.336,-5.039 0,-2.015 0,0 0,5.375 0.336,-1.008 0,-1.008 0,-0.672 0,-0.336 0.336,10.754 0,12.094 0,5.715 0.336,-2.356 0,-1.679 0,-2.688 0,-2.687 0.336,4.703 0,1.007 0,-1.007 0,-1.008 0.336,-0.336 0,-2.016 0,-0.672 0,-3.359 0.336,0.672 0,4.031 0,0.672 0.336,0.336 0,1.68 0,4.035 0,-1.008 0.336,-1.684 0,1.008 0,-1.679 0,-5.711 0.336,2.015 0,22.176 0,3.359 0,4.371 0.336,-3.363 0,-14.109 0,-0.672 0.336,-7.059 0,-0.336 0,0 0,-4.367 0.335,-2.351 0,-0.336 0,3.695 0,0 0.336,1.344 0,5.715 0,2.351 0,-0.336 0.336,-7.73 0,1.008 0,1.007 0.336,-1.007 0,0.671 0,-0.335 0,0.671 0.336,-1.007 0,-0.336 0,1.343 0,3.028 0.336,-0.672 0,-2.692 0,-4.703 0,-0.336 0.336,-4.031 0,1.344 0,3.695 0.336,0.336 0,0 0,0 0,0 0.336,-5.375 0,0.336 0,1.344 0,-6.719 0.336,1.008 0,-3.359 0,-8.403 0.336,-1.008 0,-1.007 0,-1.008 0,-3.6963 0.336,-1.0071 0,-1.344 0,3.3591 0,12.7703 0.336,0.672 0,6.382 0,0.672 0,-0.672 0.336,1.344 0,3.024 0,-3.36 0.336,5.039 0,-0.672 0,0.672 0,-2.351 0.336,-0.336 0,0.672 0,7.39 0,-1.007 0.335,-3.024 0,0.336 0,0 0.336,0.336 0,0.672 0,2.015 0,1.68 0.336,0 0,-0.336 0,2.02 0,2.015 0.336,3.024 0,-1.344 0,4.031 0,-5.039 0.336,-1.008 0,-0.671 0,3.023 0.336,-3.023 0,-0.336 0,5.375 0,-5.711 0.336,-1.008 0,6.719 0,0.336 0,4.367 0.34,5.039 0,-7.391 0,7.391 0,-4.367 0.336,2.015 0,1.344 0,-7.055 0.336,0 0,2.688 0,-1.344 0,0.336 0.336,0 0,0.336 0,-21.168 0,0 0.336,1.344 0,-13.442 0,-1.008 0.336,-0.335 0,0.335 0,0.336 0,-0.336 0.336,-4.031 0,1.008 0,3.023 0,0.336 0.335,0 0,0 0,0 0,-0.671 0.336,-5.039 0,0 0,-9.0713 0.336,-1.008 0,0.336 0,-2.0151 0,1.008 0.336,1.0071 0,4.703 0,-1.0071 0,-1.008 0.336,-1.344 0,3.3591 0,0 0,0.336 0.336,5.7113 0,-1.343 0,2.687 0.336,-1.008 0,1.008 0,2.016 0,10.082 0.336,-0.336 0,0.672 0,1.679 0,-1.679 0.336,7.726 0,-3.695 0,-0.336 0,1.008 0.336,0 0,-0.672 0,-3.359 0.336,23.855 0,-0.336 0,1.344 0,14.113 0.336,1.008"
       id="path50"
       style="fill:none;stroke:#000000;stroke-width:0.93333298;stroke-linejoin:round"
       inkscape:connector-curvature="0" />
    <path
       d="m 341.17,157.717 0,-0.672 0,1.344 0,-1.344 0.336,0.336 0,4.031 0,0.336 0,0 0.336,-2.015 0,-2.688 0,0 0.336,0 0,0.336 0,6.383 0,0 0.336,9.074 0,1.008 0,0.672 0,3.023 0.335,-3.023 0,-4.035 0,-0.672 0,1.007 0.336,2.02 0,0.336 0,0 0.336,0.336 0,-1.012 0,-2.687 0,2.351 0.336,-0.336 0,0.672 0,-2.351 0,1.343 0.336,-0.336 0,0 0,4.036 0,-0.336 0.336,1.007 0,-0.335 0,4.031 0.336,-0.672 0,-1.008 0,-5.039 0,0.336 0.336,-10.418 0,-2.016 0,-3.023 0,0.672 0.336,-6.383 0,-5.043 0,0.336 0.336,-0.336 0,-7.055 0,-1.008 0,-3.023 0.336,0.336 0,0 0,2.352 0,-11.426 0.336,-0.672 0,-2.016 0,-3.695 0.336,-2.016 0,-8.062 0,-0.336 0,1.344 0.336,0 0,0.672 0,5.039 0,4.367 0.336,1.008 0,-1.008 0,-0.336 0,0.672 0.336,-5.711 0,-0.336 0,0 0.335,2.015 0,-0.335 0,-0.336 0,-0.336 0.336,1.679 0,-5.711 0,-4.707 0,0.336 0.336,1.012 0,-3.363 0,1.008 0,-0.336 0.336,-0.672 0,-3.024 0,-1.679 0.336,5.711 0,0.335 0,12.434 0,2.016 0.336,3.359 0,0 0,-8.734 0,5.711 0.336,-2.016 0,-2.016 0,8.063 0.336,-0.336 0,3.359 0,-1.343 0,0 0.336,-21.84 0,14.113 0,-4.031 0,0 0.336,4.367 0,-5.711 0,6.383 0,-0.672 0.336,-2.352 0,0 0,-0.336 0.336,0 0,-2.351 0,-0.336 0,-0.336 0.336,-1.68 0,0 0,5.375 0,0 0.336,1.008 0,0.336 0,-5.375 0,0.336 0.336,-8.738 0,1.008 0,5.043 0.336,5.039 0,-0.336 0,0 0,3.359 0.335,-9.07 0,0.336 0,-1.344 0,-2.356 0.336,-5.039 0,-0.671 0,0 0,0.335 0.336,0.336 0,-4.3673 0,0 0.336,12.4343 0,-2.356 0,2.356 0,-0.672 0.336,-4.035 0,1.679 0,0 0,-8.7344 0.336,-0.6719 0,22.1763 0,0 0,4.367 0.336,2.016 0,-2.352 0,1.344 0.336,2.016 0,1.343 0,2.02 0,0 0.34,-1.012 0,-0.336 0,2.02 0,-0.672 0.336,1.68 0,-0.336 0,-0.672 0,1.008 0.336,-0.672 0,-1.008 0,0.336 0.336,5.711 0,0 0,9.07 0,-0.336 0.336,-1.008 0,-1.007 0,0.335 0,-0.335 0.336,-10.75 0,8.062 0,0 0,1.68 0.336,6.047 0,2.355 0,-0.676 0.335,0 0,-8.398 0,0 0,0 0.336,0 0,2.351 0,1.68 0,-1.344 0.336,4.032 0,3.363 0,-0.672 0.336,0 0,-4.371 0,1.008 0,-1.008 0.336,-13.438 0,0 0,0 0,2.352 0.336,-3.023 0,-1.68 0,-0.336 0,-2.02 0.336,0 0,0.336 0,-2.015 0.336,-1.344 0,1.008 0,0.336 0,-4.368 0.336,0.672 0,-3.695 0,0.672 0,1.344 0.336,-0.336 0,-2.016 0,-0.336 0.336,0 0,-0.336 0,0.336 0,1.008 0.336,-0.672 0,-1.68 0,10.75 0,1.008 0.336,-1.008 0,-2.687 0,-2.688 0,5.711 0.336,-1.007 0,-1.008 0,8.738 0.336,-3.359 0,3.695 0,0.672 0,-9.746 0.335,-1.008 0,-4.367 0,0 0,0.336 0.336,0.336 0,0 0,13.441 0.336,-2.016 0,0.672 0,12.766 0,-0.672 0.336,-1.008 0,-3.023 0,9.074 0,0.672 0.336,0 0,2.015 0,0.336 0,1.008 0.336,2.352 0,1.344 0,0 0.336,-1.344 0,6.383 0,-0.336 0,0 0.336,0 0,-0.336 0,-1.344 0,1.68 0.336,0 0,0 0,1.007 0,0.336 0.336,-2.015 0,1.008 0,1.679 0.336,0 0,0.336 0,-1.679 0,-2.352 0.336,1.344 0,-3.36 0,1.68 0,-9.07 0.336,0.336 0,2.015 0,0 0,0 0.336,10.078 0,-0.671"
       id="path52"
       style="fill:none;stroke:#000000;stroke-width:0.93333298;stroke-linejoin:round"
       inkscape:connector-curvature="0" />
    <path
       d="m 368.049,165.108 0,4.367 0.336,0 0,-10.078 0,-7.391 0,-6.387 0.336,0.672 0,1.344 0,0.336 0,0.336 0.336,0.336 0,-0.336 0,2.015 0,-1.007 0.335,-6.719 0,-11.422 0,-9.746 0.336,-1.008 0,0 0,-0.672 0,-3.023 0.336,0 0,-10.418 0,-2.016 0,-3.359 0.336,-0.336 0,-8.3993 0,0 0,-2.3511 0.336,-0.336 0,0.336 0,-0.672 0.336,-1.012 0,0.336 0,2.02 0,-3.364 0.336,-4.367 0,0 0,0 0,-7.7259 0.336,-4.0321 0,-0.336 0,2.352 0.336,0.3361 0,8.7339 0,-3.0229 0,0.336 0.336,-3.695 0,0 0,0 0,1.6789 0.336,1.6801 0,0 0,8.7339 0,6.723 0.336,6.7194 0,-1.6804 0,-0.336 0.336,0 0,0 0,-2.687 0,2.0151 0.336,0.6719 0,1.3444 0,8.398 0,10.754 0.336,7.727 0,-0.672 0,0 0,-1.344 0.336,-12.094 0,-3.023 0,12.094 0.335,0.336 0,0.671 0,4.032 0,8.066 0.336,-0.336 0,3.36 0,0.671 0,-7.726 0.336,0.672 0,0 0,-1.684 0,-0.336 0.336,1.012 0,-5.043 0,0.672 0.336,-1.008 0,4.367 0,5.715 0,0 0.336,1.68 0,-1.008 0,2.016 0,2.351 0.336,-0.672 0,3.024 0,-2.352 0.34,-0.672 0,0.336 0,-0.336 0,-6.047 0.336,0.672 0,0.336 0,0 0,-0.336 0.336,1.008 0,-1.68 0,0 0,2.688 0.336,-9.074 0,0.336 0,-24.528 0.336,-2.351 0,0 0,1.008 0,1.343 0.336,-1.008 0,-8.7344 0,14.7814 0,-0.336 0.336,-5.711 0,-2.015 0,2.015 0.335,-3.3594 0,0 0,-5.375 0,-0.6719 0.336,-2.3511 0,5.711 0,-7.391 0,-5.0429 0.336,-1.3441 0,-4.703 0,2.3521 0,10.0819 0.336,-5.3789 0,-8.0631 0,3.3601 0.336,0.336 0,1.3429 0,-0.672 0,0.672 0.336,0 0,-3.0229 0,0.672 0,-0.336 0.336,1.344 0,0.6709 0,-9.07 0,0.336 0.336,4.703 0,1.008 0,0 0.336,-4.7029 0,2.016 0,-0.336 0,-3.0241 0.336,0.336 0,-1.008 0,0 0,-1.3429 0.336,22.175 0,2.0159 0,0.672 0,-0.672 0.336,-3.359 0,1.3431 0,9.7433 0.336,0.335 0,3.36 0,5.715 0,-7.059 0.336,-1.008 0,3.36 0,-0.672 0,5.379 0.336,-0.672 0,2.351 0,1.344 0,6.719 0.336,3.023 0,3.696 0,4.035 0.335,0 0,-0.672 0,5.375 0,6.719 0.336,3.359 0,0.672 0,-0.336 0,0 0.336,-0.336 0,-0.672 0,0.672 0.336,-1.344 0,-0.336 0,1.008 0,0 0.336,8.738 0,0 0,0.672 0,0.336 0.336,-0.336 0,4.703 0,0 0,-0.671 0.336,0 0,0.335 0,0.336 0.336,1.344 0,-9.742 0,1.68 0,-2.016 0.336,0.672 0,0.672 0,1.008 0,0 0.336,-2.352 0,0.336 0,-0.336 0,-1.684 0.336,5.379 0,-4.707 0,0.336 0.336,0 0,0.676 0,1.344 0,-10.082 0.336,-0.336 0,-0.672 0,0.672 0,0 0.336,1.008 0,0 0,-4.032 0,-0.672 0.336,-6.382 0,0 0,2.687 0.336,-2.687 0,-4.371 0,-3.024 0,0.336 0.335,2.688 0,2.015 0,1.684 0,-6.723 0.336,0 0,0 0,-6.047 0,0 0.336,-5.375 0,0.336 0,-0.672 0.336,-1.679 0,-6.051 0,-3.024 0,-0.671 0.336,0 0,7.39 0,10.754 0,-1.344 0.336,1.008 0,-2.015 0,-3.024 0.336,2.352 0,0 0,1.679 0,0 0.336,-0.672 0,1.68 0,5.375 0,3.36 0.336,-2.016 0,-0.336 0,-3.359 0,0.336 0.336,9.746 0,-0.672 0,1.008 0.336,-0.336 0,0 0,-3.7 0,-5.711 0.336,-1.343 0,0.336 0,-2.352 0,0 0.336,-1.68 0,-14.785 0,5.039 0.336,3.7 0,-8.403 0,0 0,-0.672 0.336,0.336 0,6.051 0,-0.34 0,-2.351"
       id="path54"
       style="fill:none;stroke:#000000;stroke-width:0.93333298;stroke-linejoin:round"
       inkscape:connector-curvature="0" />
    <path
       d="m 394.928,106.979 0.336,4.707 0,0.336 0,3.359 0,0.336 0.335,0.336 0,-0.336 0,5.711 0.336,6.047 0,-1.008 0,-1.68 0,-0.336 0.336,0.672 0,2.016 0,-1.344 0,0.336 0.336,3.359 0,-5.039 0,-3.023 0,1.68 0.336,-1.344 0,-0.672 0,0 0.336,0.336 0,3.359 0,1.68 0,-0.672 0.336,3.695 0,-7.726 0,0 0,-1.344 0.34,-11.426 0,-6.047 0,0.336 0.336,2.016 0,5.043 0,4.703 0,0 0.336,10.414 0,0 0,1.008 0,17.809 0.336,-3.024 0,-1.68 0,8.399 0,-6.719 0.336,-0.672 0,-1.008 0,-2.351 0.336,0 0,0 0,-0.672 0,-2.016 0.336,1.344 0,-1.68 0,-0.671 0,0.335 0.336,0.336 0,1.344 0,-0.672 0,2.016 0.335,-3.359 0,-3.7 0,-1.343 0.336,2.355 0,-6.387 0,-1.008 0,1.68 0.336,3.36 0,-0.336 0,1.007 0,1.344 0.336,-2.687 0,-5.039 0,0 0,-0.336 0.336,1.679 0,0 0,7.059 0.336,-4.707 0,2.687 0,12.098 0,6.047 0.336,0 0,-1.68 0,0.336 0,1.344 0.336,0 0,0 0,-1.344 0,-0.336 0.336,-0.336 0,0.672 0,-4.703 0.336,-4.367 0,-15.121 0,1.008 0,-2.016 0.336,3.023 0,0.336 0,0 0,-0.336 0.336,1.68 0,-9.406 0,-1.008 0,0 0.336,1.344 0,-1.008 0,0.672 0.336,-5.375 0,-0.672 0,2.016 0,3.359 0.336,1.68 0,-1.344 0,3.695 0,0.672 0.335,2.688 0,0 0,0.336 0,-3.024 0.336,0 0,2.688 0,5.039 0.336,-1.68 0,-0.672 0,-3.359 0,-1.008 0.336,0 0,-3.024 0,-1.007 0,-13.778 0.336,2.688 0,0 0,1.008 0.336,0 0,-9.0713 0,-2.6871 0,-0.336 0.336,0.336 0,0.336 0,-1.008 0,1.344 0.336,5.7114 0,-1.008 0,21.504 0.336,0.336 0,0.336 0,0.336 0,-4.368 0.336,1.008 0,2.016 0,0 0,10.082 0.336,1.344 0,-3.028 0,-2.351 0,1.007 0.336,-0.335 0,5.378 0,-7.058 0.336,-2.688 0,-6.718 0,-24.1923 0,1.3439 0.336,2.3511 0,0.672 0,0 0,-0.336 0.336,-9.7461 0,-2.0149 0,-6.383 0,0 0.336,0 0,-1.3441 0,1.0081 0.336,1.008 0,-7.0551 0,-8.066 0,8.402 0.335,-2.352 0,5.0401 0,0 0,0 0.336,2.3509 0,-0.336 0,9.07 0.336,-6.3819 0,-4.703 0,-3.3601 0,-1.344 0.336,1.344 0,1.3441 0,0.336 0,5.375 0.336,-1.3441 0,-0.672 0,3.0241 0,-5.039 0.336,-2.3521 0,-0.336 0,-0.672 0.336,-3.6949 0,-1.348 0,0.6719 0,3.027 0.336,0 0,-0.6709 0,0.336 0,0 0.336,6.0459 0,3.3601 0,6.047 0,23.1833 0.336,-1.344 0,1.344 0,-2.351 0.336,-0.336 0,-0.672 0,8.738 0,5.375 0.336,6.383 0,-0.336 0,-1.344 0,2.016 0.336,-1.008 0,2.016 0,4.707 0,0.336 0.336,0 0,3.023 0,8.063 0.336,-1.008 0,0 0,0 0,-3.024 0.335,-0.672 0,9.071 0,5.379 0,1.679 0.336,-0.671 0,0 0,0.335 0,-4.035 0.336,-1.343 0,-0.336 0,-4.368 0.336,-2.015 0,4.703 0,6.723 0,1.679 0.336,1.008 0,-3.023 0,0 0,0.672 0.336,0 0,2.687 0,1.344 0,-8.739 0.336,-5.374 0,2.687 0,-2.687 0.336,0.335 0,-2.015 0,1.008 0,-0.336 0.34,2.351 0,1.008 0,0 0,-0.672 0.336,0.336 0,-9.07 0,-2.016 0,1.008 0.336,-0.336 0,1.008 0,-3.359 0.336,3.695 0,4.703 0,-0.672 0,-1.344 0.336,0 0,0.672 0,-3.359 0,-1.008 0.336,3.023 0,-1.679 0,-2.016 0.336,0 0,1.344 0,-3.024 0,-5.043 0.335,-2.687 0,-2.688 0,0.672 0,1.68 0.336,-5.375 0,-0.672 0,-0.336 0,-0.336 0.336,0"
       id="path56"
       style="fill:none;stroke:#000000;stroke-width:0.93333298;stroke-linejoin:round"
       inkscape:connector-curvature="0" />
    <path
       d="m 422.146,119.076 0,0.336 0,5.711 0.336,-0.672 0,-11.422 0,0.672 0,-2.015 0.336,-4.036 0,7.731 0,3.359 0,0 0.336,4.032 0,0 0,2.351 0.336,0.672 0,-1.008 0,0.336 0,-0.336 0.336,-1.344 0,1.68 0,-1.68 0,7.731 0.336,-0.676 0,-2.351 0,0.336 0,-1.68 0.336,3.359 0,0 0,2.356 0.336,-1.344 0,1.68 0,-1.68 0,0.336 0.336,3.695 0,0.672 0,-0.336 0,0.672 0.336,2.352 0,-3.696 0,1.008 0.336,5.711 0,5.039 0,0.336 0,7.059 0.336,-2.016 0,-1.012 0,9.41 0,2.352 0.336,-0.672 0,0 0,0 0,-0.336 0.335,-1.344 0,0 0,11.086 0.336,0.336 0,1.348 0,4.367 0,-20.496 0.336,2.688 0,-0.336 0,-0.336 0,-0.672 0.336,1.344 0,-0.336 0,-3.024 0,-17.137 0.336,-5.71 0,1.679 0,0 0.336,1.344 0,-0.672 0,0.672 0,2.687 0.336,1.008 0,-5.711 0,0 0,-1.343 0.336,1.007 0,-0.336 0,-0.671 0,1.679 0.336,-0.672 0,0 0,0 0.336,-2.015 0,-12.098 0,0.336 0,3.359 0.336,-0.336 0,0 0,-0.335 0,-1.68 0.336,-1.344 0,0 0,1.344 0,0.336 0.336,0 0,0 0,-8.063 0.336,-2.687 0,0 0,2.351 0,1.68 0.336,0.336 0,0 0,0 0,-0.336 0.336,15.793 0,0 0,-0.34 0,-2.687 0.335,-1.344 0,0 0,0 0.336,2.351 0,16.801 0,-4.703 0,-8.734 0.336,0 0,-3.699 0,1.343 0,1.684 0.336,-11.762 0,-0.336 0,4.367 0.336,-3.359 0,-0.672 0,-3.359 0,2.015 0.336,-0.336 0,-2.015 0,-0.672 0,-2.352 0.336,0 0,-5.043 0,10.418 0,0.672 0.336,-1.343 0,-1.68 0,-4.703 0.336,-1.008 0,-1.348 0,-2.351 0,-1.344 0.336,-1.344 0,0.336 0,0 0,0.336 0.336,8.066 0,2.352 0,0.336 0,-2.016 0.336,-0.672 0,-7.058 0,0 0.336,-1.344 0,0 0,5.039 0,-5.375 0.336,-1.344 0,-0.671 0,1.679 0,0 0.336,-1.343 0,2.351 0,-0.336 0,10.082 0.336,9.07 0,0.336 0,-1.007 0.335,1.007 0,-0.671 0,11.425 0,-0.672 0.336,2.688 0,3.023 0,0.336 0,3.36 0.336,-4.032 0,0.672 0,0.336 0.336,-0.672 0,2.016 0,0.672 0,5.039 0.336,3.359 0,-1.343 0,-0.336 0,-1.344 0.336,2.351 0,-0.671 0,3.699 0,2.351 0.336,1.68 0,1.344 0,0.336 0.34,-3.024 0,-4.371 0,0 0,0.336 0.336,-4.703 0,-4.031 0,-0.336 0,0.672 0.336,-6.047 0,-0.336 0,0.336 0.336,-2.688 0,6.383 0,2.016 0,-1.008 0.336,0 0,-3.695 0,1.343 0,-12.097 0.336,-13.438 0,-6.722 0,-2.352 0,-5.0394 0.336,4.3674 0,-8.3984 0,0.336 0.336,-7.391 0,-0.34 0,-2.6869 0,0 0.335,1.3429 0,-1.3429 0,2.0149 0,-3.3589 0.336,2.3509 0,1.68 0,-1.344 0,-6.3819 0.336,2.0149 0,-2.0149 0,1.3429 0.336,-0.672 0,3.0241 0,1.008 0,1.6789 0.336,0.672 0,1.348 0,2.352 0,0 0.336,-1.68 0,3.0231 0,0.336 0,-8.066 0.336,-1.6801 0,3.695 0,6.387 0.336,0.672 0,2.352 0,0.6711 0,1.008 0.336,-1.6791 0,-0.672 0,-0.336 0,-7.395 0.336,4.0351 0,0 0,3.3599 0,-1.008 0.336,11.4224 0,13.777 0,7.727 0.336,2.351 0,2.02 0,0 0,8.398 0.336,-10.418 0,7.059 0,1.344 0,-8.403 0.336,0.336 0,0.336 0,1.348 0.336,2.015 0,3.024 0,-16.801 0,0.336 0.335,-3.695 0,6.718 0,-0.335 0,1.343 0.336,-0.336 0,2.352 0,-11.422 0,0.336 0.336,-0.336 0,0.336 0,-12.77 0.336,-1.343 0,-2.3524 0,0 0,-4.703 0.336,4.703 0,8.0634 0,2.015"
       id="path58"
       style="fill:none;stroke:#000000;stroke-width:0.93333298;stroke-linejoin:round"
       inkscape:connector-curvature="0" />
    <path
       d="m 449.025,108.994 0,-2.015 0.336,-0.336 0,0 0,3.027 0,2.688 0.336,0 0,-0.336 0,2.687 0.336,-2.016 0,7.391 0,-7.055 0,-4.035 0.336,-1.344 0,0.336 0,-0.671 0,-0.336 0.336,0 0,-1.344 0,-4.703 0,-6.7194 0.336,-8.7379 0,10.7539 0,0 0.336,0.6711 0,10.4153 0,-0.672 0,-1.008 0.336,0.672 0,0 0,-3.024 0,6.387 0.336,-6.051 0,0.336 0,-3.359 0,-3.6963 0.336,0.672 0,0.672 0,-1.6791 0.336,10.4144 0,1.343 0,-3.023 0,0 0.336,12.098 0,1.679 0,1.008 0,1.344 0.335,5.039 0,-0.336 0,-1.68 0.336,-4.031 0,3.023 0,0 0,-2.015 0.336,-6.383 0,1.008 0,-1.008 0,-5.375 0.336,0.672 0,2.687 0,-0.336 0,6.383 0.336,3.024 0,-4.703 0,-4.368 0.336,-3.023 0,-0.336 0,0 0,1.344 0.336,7.726 0,7.055 0,8.402 0,-3.023 0.336,-12.77 0,0.336 0,0 0.336,-1.007 0,1.007 0,-14.785 0,0 0.336,2.016 0,10.754 0,2.351 0,3.36 0.336,3.359 0,-14.445 0,-0.336 0,-1.344 0.336,-3.027 0,0.336 0,-1.344 0.336,1.68 0,-5.711 0,0 0,0.336 0.336,-8.3994 0,-7.0579 0,-3.3601 0,0.336 0.336,-0.672 0,4.367 0,-1.0069 0,-6.047 0.335,2.3509 0,5.375 0,0.672 0.336,-3.0229 0,2.6869 0,-4.703 0,-7.391 0.336,-1.0069 0,-3.0241 0,-13.105 0,-6.719 0.336,5.039 0,-9.07 0,0.336 0,0 0.336,-3.7 0,-0.3349 0,0 0.336,-9.0711 0,3.3601 0,12.433 0,0 0.336,0 0,1.3439 0,-2.0159 0,12.0939 0.336,0.336 0,0.672 0,-1.344 0.34,3.3591 0,0.672 0,-0.672 0,16.8009 0.336,0.672 0,1.0081 0,-1.3441 0,0 0.336,1.008 0,1.3441 0,-8.0631 0,-16.4649 0.336,0 0,6.047 0,7.059 0.336,-1.3441 0,-0.672 0,1.6801 0,0 0.336,0.336 0,3.6949 0,-0.672 0,2.0161 0.336,1.008 0,5.039 0,3.0229 0,2.356 0.335,7.3901 0,-0.336 0,1.344 0.336,15.1213 0,11.758 0,-2.351 0,9.41 0.336,-1.008 0,-4.707 0,3.695 0,-0.672 0.336,-0.336 0,9.746 0,-3.023 0,0 0.336,0.336 0,-0.336 0,-3.023 0.336,-2.352 0,1.008 0,-14.113 0,0.335 0.336,1.008 0,0.336 0,0.336 0,-0.336 0.336,-0.336 0,-4.703 0,0 0,5.711 0.336,1.008 0,-4.367 0,-3.36 0.336,13.438 0,16.801 0,-6.383 0,3.695 0.336,0 0,5.039 0,0.672 0,-0.672 0.336,-1.008 0,-3.695 0,1.344 0,-0.672 0.336,0.336 0,-5.711 0,-1.68 0.336,-2.015 0,1.679 0,0 0,1.68 0.336,-6.387 0,-0.336 0,-1.343 0,2.691 0.336,-4.707 0,0 0,4.367 0.335,-2.015 0,-3.36 0,0.336 0,-0.672 0.336,0.672 0,-0.672 0,0 0,-5.375 0.336,2.688 0,4.367 0,1.344 0,13.441 0.336,-1.68 0,-1.007 0,-0.336 0.336,0 0,-1.008 0,1.008 0,4.367 0.336,-0.672 0,0 0,-0.336 0,0.336 0.336,4.031 0,0 0,-1.008 0.336,4.703 0,-0.335 0,-2.016 0,-3.023 0.336,0 0,1.007 0,1.008 0,4.031 0.336,0.336 0,-2.015 0,0 0,5.379 0.336,-0.336 0,-3.364 0,-1.007 0.336,-0.336 0,0 0,8.066 0,-2.352 0.336,2.688 0,0 0,8.062 0,-0.335 0.336,-4.368 0,-2.687 0,4.031 0.336,-1.68 0,-0.671 0,1.343 0,-6.718 0.336,-7.731 0,1.344 0,-2.016 0,0 0.335,0 0,-0.336 0,-3.695 0,-2.016 0.336,-1.343 0,-2.016 0,1.008 0.336,1.008 0,-2.352 0,0 0,0.336 0.336,0 0,1.68 0,-0.336 0,-2.016 0.336,0 0,1.344 0,0.336 0,1.679 0.336,0.336 0,0 0,-0.672 0.336,-2.351"
       id="path60"
       style="fill:none;stroke:#000000;stroke-width:0.93333298;stroke-linejoin:round"
       inkscape:connector-curvature="0" />
    <path
       d="m 476.24,136.549 0,-9.746 0,-0.336 0,3.359 0.336,-1.008 0,-1.007 0,1.343 0,6.723 0.336,1.008 0,-1.68 0,-2.687 0,-0.672 0.336,-4.707 0,-2.688 0,0.336 0.336,-2.351 0,0 0,4.367 0,3.359 0.336,0.336 0,0.34 0,-0.34 0,-1.344 0.336,5.715 0,6.047 0,4.367 0,0.336 0.336,0 0,-3.359 0,-0.336 0.336,0.336 0,-3.36 0,-1.007 0,2.015 0.336,-3.359 0,0 0,-1.68 0,-7.73 0.335,0 0,-1.344 0,2.688 0,0 0.336,2.015 0,1.348 0,0.336 0.336,-0.336 0,-0.336 0,1.68 0,0 0.336,-3.028 0,1.684 0,9.406 0,-1.68 0.336,0 0,0.672 0,0.672 0,0.336 0.336,-1.68 0,0.672 0,0.336 0.336,-10.418 0,1.012 0,7.055 0,-0.336 0.34,0.336 0,1.007 0,0.672 0,-2.015 0.336,-0.672 0,-0.336 0,-4.031 0.336,1.007 0,2.352 0,1.344 0,2.015 0.336,0 0,0.336 0,-1.679 0,3.359 0.336,-1.344 0,4.032 0,3.695 0,0.336 0.336,0 0,0.336 0,0 0.336,3.027 0,7.727 0,0 0,0 0.336,-0.672 0,-1.68 0,-2.016 0,-0.336 0.335,-3.699 0,-0.336 0,-5.039 0.336,-1.008 0,-0.335 0,3.023 0,0.672 0.336,-0.336 0,2.687 0,-7.054 0,0.336 0.336,-0.336 0,-1.344 0,1.68 0,-0.336 0.336,1.343 0,8.403 0,0.336 0.336,-2.356 0,2.692 0,-1.68 0,0.672 0.336,-3.363 0,1.679 0,-1.344 0,-4.703 0.336,-6.718 0,0.336 0,-0.336 0.336,-5.039 0,-2.352 0,-1.348 0,1.684 0.336,-6.051 0,0 0,-2.351 0,-8.735 0.336,0 0,2.352 0,-5.375 0,-0.672 0.336,-9.41 0,0.672 0,-3.0243 0.336,-7.7261 0,1.3431 0,-0.336 0,-5.378 0.336,2.3549 0,0.336 0,1.008 0,0.672 0.336,-9.7459 0,1.6789 0,-4.367 0,-1.344 0.335,0.336 0,-0.672 0,0 0.336,5.039 0,-1.0069 0,0.336 0,2.3509 0.336,-0.336 0,0.336 0,0.336 0,4.367 0.336,-8.7339 0,1.68 0,-2.016 0,-1.0081 0.336,-0.672 0,4.367 0,-2.0149 0.336,2.6869 0,4.703 0,7.731 0,0.336 0.336,0 0,-4.703 0,2.0151 0,-1.3431 0.336,-0.672 0,6.7181 0,-6.0461 0,-6.3869 0.336,9.0739 0,3.0231 0,-1.6791 0.336,2.3511 0,1.008 0,9.4063 0,0.336 0.336,3.7 0,6.046 0,-5.375 0,1.008 0.336,7.391 0,-0.336 0,-0.672 0,2.352 0.336,-0.672 0,15.457 0,-5.375 0.336,2.687 0,1.68 0,0 0,0.336 0.336,-0.672 0,1.68 0,1.343 0,-2.015 0.336,0 0,-2.688 0,0 0,0 0.336,-0.336"
       id="path62"
       style="fill:none;stroke:#000000;stroke-width:0.93333298;stroke-linejoin:round"
       inkscape:connector-curvature="0" />
  </g>
</svg>
