<?xml version="1.0" encoding="UTF-8" standalone="no"?>
<svg
   xmlns:dc="http://purl.org/dc/elements/1.1/"
   xmlns:cc="http://creativecommons.org/ns#"
   xmlns:rdf="http://www.w3.org/1999/02/22-rdf-syntax-ns#"
   xmlns:svg="http://www.w3.org/2000/svg"
   xmlns="http://www.w3.org/2000/svg"
   xmlns:sodipodi="http://sodipodi.sourceforge.net/DTD/sodipodi-0.dtd"
   xmlns:inkscape="http://www.inkscape.org/namespaces/inkscape"
   viewBox="0 0 650 400"
   version="1.1"
   id="svg3226"
   inkscape:version="0.48.4 r9939"
   width="100%"
   height="100%"
   sodipodi:docname="sin.svg">
  <metadata
     id="metadata3241">
    <rdf:RDF>
      <cc:Work
         rdf:about="">
        <dc:format>image/svg+xml</dc:format>
        <dc:type
           rdf:resource="http://purl.org/dc/dcmitype/StillImage" />
      </cc:Work>
    </rdf:RDF>
  </metadata>
  <defs
     id="defs3239" />
  <sodipodi:namedview
     pagecolor="#ffffff"
     bordercolor="#666666"
     borderopacity="1"
     objecttolerance="10"
     gridtolerance="10"
     guidetolerance="10"
     inkscape:pageopacity="0"
     inkscape:pageshadow="2"
     inkscape:window-width="1600"
     inkscape:window-height="838"
     id="namedview3237"
     showgrid="false"
     inkscape:zoom="0.53230769"
     inkscape:cx="544.33726"
     inkscape:cy="67.478895"
     inkscape:window-x="-8"
     inkscape:window-y="-8"
     inkscape:window-maximized="1"
     inkscape:current-layer="g3231" />
  <clipPath
     id="box">
    <rect
       x="0"
       y="0"
       width="650"
       height="400"
       style="fill:none;stroke:none;"
       id="rect3229" />
  </clipPath>
  <g
     clip-path="url(#box)"
     id="g3231">
    <rect
       x="0"
       y="0"
       width="650"
       height="400"
       style="fill:#ffffff;stroke:none"
       id="rect3233"
       ry="0" />
    <path
       d="M-10.00 200.00 L-0.25 223.51 L0.75 222.78 L2.12 221.76 L3.46 220.74 L4.77 219.71 L6.05 218.69 L7.30 217.67 L8.53 216.66 L9.75 215.64 L10.94 214.63 L12.11 213.61 L13.27 212.60 L14.41 211.59 L15.53 210.57 L16.65 209.56 L17.75 208.55 L18.84 207.54 L19.93 206.53 L21.00 205.53 L22.06 204.52 L23.12 203.51 L24.17 202.51 L25.21 201.50 L26.24 200.49 L27.27 199.49 L28.30 198.49 L29.32 197.48 L30.33 196.48 L31.35 195.47 L32.36 194.47 L33.36 193.47 L34.37 192.47 L35.37 191.47 L36.37 190.47 L37.38 189.47 L38.38 188.46 L39.38 187.47 L40.38 186.47 L41.38 185.47 L42.38 184.47 L43.38 183.47 L44.39 182.47 L45.39 181.47 L46.40 180.48 L47.42 179.48 L48.43 178.49 L49.46 177.49 L50.48 176.49 L51.51 175.50 L52.55 174.51 L53.59 173.51 L54.64 172.52 L55.69 171.53 L56.75 170.53 L57.83 169.54 L58.91 168.55 L60.00 167.56 L61.10 166.57 L62.21 165.58 L63.34 164.59 L64.48 163.61 L65.63 162.62 L66.80 161.63 L67.98 160.65 L69.19 159.67 L70.41 158.68 L71.66 157.70 L72.93 156.72 L74.22 155.74 L75.55 154.77 L76.90 153.79 L78.29 152.82 L79.72 151.85 L81.19 150.88 L82.71 149.91 L84.29 148.95 L85.92 147.99 L87.63 147.04 L89.42 146.09 L91.31 145.15 L93.31 144.23 L95.31 143.37 L97.31 142.59 L99.31 141.88 L101.31 141.25 L103.31 140.70 L105.31 140.22 L107.31 139.82 L109.31 139.50 L111.31 139.26 L113.31 139.09 L115.31 139.01 L117.31 139.01 L119.31 139.09 L121.31 139.24 L123.31 139.48 L125.31 139.80 L127.31 140.19 L129.31 140.66 L131.31 141.21 L133.31 141.84 L135.31 142.54 L137.31 143.32 L139.31 144.17 L141.31 145.09 L143.31 146.08 L145.31 147.14 L147.20 148.20 L148.98 149.25 L150.66 150.30 L152.28 151.34 L153.83 152.38 L155.32 153.41 L156.77 154.44 L158.17 155.47 L159.54 156.50 L160.87 157.52 L162.17 158.54 L163.44 159.56 L164.69 160.58 L165.92 161.60 L167.12 162.61 L168.31 163.63 L169.48 164.64 L170.63 165.65 L171.77 166.67 L172.89 167.68 L174.00 168.69 L175.10 169.70 L176.19 170.71 L177.27 171.72 L178.34 172.72 L179.40 173.73 L180.46 174.74 L181.50 175.74 L182.54 176.75 L183.58 177.76 L184.61 178.76 L185.63 179.76 L186.65 180.77 L187.67 181.77 L188.68 182.77 L189.69 183.78 L190.69 184.78 L191.70 185.78 L192.70 186.78 L193.70 187.78 L194.70 188.78 L195.70 189.78 L196.70 190.78 L197.70 191.78 L198.71 192.78 L199.71 193.78 L200.71 194.78 L201.72 195.78 L202.73 196.77 L203.74 197.77 L204.75 198.77 L205.77 199.76 L206.79 200.76 L207.82 201.75 L208.85 202.75 L209.88 203.74 L210.93 204.74 L211.98 205.73 L213.03 206.72 L214.10 207.71 L215.17 208.70 L216.26 209.70 L217.35 210.69 L218.45 211.67 L219.57 212.66 L220.70 213.65 L221.84 214.64 L223.00 215.63 L224.17 216.61 L225.36 217.59 L226.57 218.58 L227.80 219.56 L229.05 220.54 L230.33 221.52 L231.63 222.50 L232.96 223.48 L234.33 224.45 L235.72 225.42 L237.16 226.39 L238.65 227.36 L240.18 228.33 L241.77 229.29 L243.42 230.24 L245.15 231.20 L246.96 232.14 L248.88 233.08 L250.88 233.99 L252.88 234.82 L254.88 235.59 L256.88 236.28 L258.88 236.89 L260.88 237.43 L262.88 237.88 L264.88 238.27 L266.88 238.57 L268.88 238.79 L270.88 238.93 L272.88 239.00 L274.88 238.98 L276.88 238.88 L278.88 238.71 L280.88 238.45 L282.88 238.12 L284.88 237.70 L286.88 237.21 L288.88 236.64 L290.88 236.00 L292.88 235.28 L294.88 234.48 L296.88 233.61 L298.88 232.68 L300.88 231.67 L302.86 230.60 L304.72 229.54 L306.48 228.49 L308.14 227.44 L309.74 226.40 L311.28 225.37 L312.76 224.34 L314.19 223.31 L315.59 222.28 L316.94 221.25 L318.27 220.23 L319.56 219.21 L320.83 218.19 L322.07 217.17 L323.29 216.16 L324.49 215.14 L325.68 214.12 L326.84 213.11 L327.99 212.10 L329.12 211.09 L330.24 210.08 L331.35 209.06 L332.45 208.06 L333.54 207.05 L334.61 206.04 L335.68 205.03 L336.74 204.02 L337.79 203.02 L338.84 202.01 L339.88 201.00 L340.91 200.00 L341.94 198.99 L342.96 197.99 L343.98 196.99 L344.99 195.98 L346.01 194.98 L347.01 193.98 L348.02 192.98 L349.02 191.97 L350.03 190.97 L351.03 189.97 L352.03 188.97 L353.03 187.97 L354.03 186.97 L355.03 185.97 L356.03 184.97 L357.03 183.98 L358.04 182.98 L359.04 181.98 L360.05 180.98 L361.06 179.99 L362.08 178.99 L363.10 177.99 L364.12 177.00 L365.15 176.00 L366.18 175.01 L367.22 174.02 L368.26 173.02 L369.31 172.03 L370.37 171.04 L371.44 170.04 L372.52 169.05 L373.60 168.06 L374.70 167.07 L375.81 166.08 L376.92 165.10 L378.06 164.11 L379.20 163.12 L380.36 162.13 L381.54 161.15 L382.73 160.16 L383.95 159.18 L385.18 158.20 L386.44 157.22 L387.72 156.24 L389.03 155.26 L390.37 154.29 L391.74 153.31 L393.15 152.34 L394.60 151.37 L396.09 150.40 L397.64 149.44 L399.24 148.48 L400.91 147.52 L402.66 146.57 L404.50 145.63 L406.45 144.69 L408.45 143.80 L410.45 142.98 L412.45 142.24 L414.45 141.57 L416.45 140.97 L418.45 140.46 L420.45 140.02 L422.45 139.65 L424.45 139.37 L426.45 139.17 L428.45 139.04 L430.45 139.00 L432.45 139.04 L434.45 139.15 L436.45 139.35 L438.45 139.62 L440.45 139.98 L442.45 140.41 L444.45 140.92 L446.45 141.51 L448.45 142.17 L450.45 142.91 L452.45 143.72 L454.45 144.61 L456.45 145.56 L458.45 146.59 L460.40 147.65 L462.23 148.71 L463.96 149.76 L465.61 150.80 L467.19 151.84 L468.71 152.88 L470.18 153.91 L471.61 154.94 L472.99 155.97 L474.34 156.99 L475.66 158.01 L476.95 159.03 L478.21 160.05 L479.45 161.07 L480.66 162.09 L481.86 163.10 L483.03 164.12 L484.20 165.13 L485.34 166.14 L486.47 167.16 L487.59 168.17 L488.70 169.18 L489.79 170.19 L490.87 171.19 L491.95 172.20 L493.02 173.21 L494.07 174.22 L495.12 175.22 L496.17 176.23 L497.20 177.24 L498.24 178.24 L499.26 179.25 L500.28 180.25 L501.30 181.25 L502.32 182.26 L503.33 183.26 L504.33 184.26 L505.34 185.26 L506.34 186.26 L507.35 187.27 L508.35 188.27 L509.35 189.27 L510.35 190.27 L511.35 191.27 L512.35 192.27 L513.35 193.26 L514.35 194.26 L515.36 195.26 L516.36 196.26 L517.37 197.25 L518.38 198.25 L519.40 199.25 L520.42 200.24 L521.44 201.24 L522.47 202.23 L523.51 203.23 L524.55 204.22 L525.59 205.22 L526.65 206.21 L527.71 207.20 L528.78 208.19 L529.86 209.18 L530.94 210.17 L532.04 211.16 L533.15 212.15 L534.27 213.14 L535.41 214.13 L536.56 215.12 L537.72 216.10 L538.90 217.09 L540.10 218.07 L541.32 219.05 L542.56 220.03 L543.82 221.02 L545.11 221.99 L546.43 222.97 L547.78 223.95 L549.16 224.92 L550.57 225.89 L552.03 226.86 L553.54 227.83 L555.10 228.79 L556.72 229.75 L558.40 230.70 L560.17 231.65 L562.03 232.60 L564.01 233.53 L566.01 234.40 L568.01 235.20 L570.01 235.93 L572.01 236.58 L574.01 237.16 L576.01 237.66 L578.01 238.08 L580.01 238.42 L582.01 238.69 L584.01 238.87 L586.01 238.97 L588.01 239.00 L590.01 238.94 L592.01 238.81 L594.01 238.59 L596.01 238.30 L598.01 237.92 L600.01 237.47 L602.01 236.94 L604.01 236.34 L606.01 235.66 L608.01 234.90 L610.01 234.07 L612.01 233.17 L614.01 232.20 L616.01 231.15 L617.93 230.09 L619.74 229.03 L621.45 227.99 L623.08 226.94 L624.65 225.91 L626.15 224.87 L627.61 223.84 L629.03 222.81 L630.40 221.79 L631.74 220.76 L633.05 219.74 L634.33 218.72 L635.59 217.70 L636.82 216.68 L638.03 215.67 L639.22 214.65 L640.40 213.64 L641.55 212.62 L642.70 211.61 L643.82 210.60 L644.94 209.59 L646.04 208.58 L647.13 207.57 L648.21 206.56 L649.29 205.55 "
       style="fill:none;stroke:#000000;stroke-width:1;"
       id="path3235" />
    <path
       id="path4017"
       style="fill:#000000;fill-opacity:1;stroke:#000000;stroke-width:1"
       d="m -2.0158959,400.07225 0.8265895,0.0274 C -0.71054771,341.58454 -9.7498813,225.96093 0.2469696,224.55443 L 1.4558101,223.42047 3.46,220.74 l 1.31,-1.03 1.28,-1.02 1.25,-1.02 1.23,-1.01 1.22,-1.02 1.19,-1.01 1.17,-1.02 1.16,-1.01 1.14,-1.01 1.12,-1.02 1.12,-1.01 1.1,-1.01 1.09,-1.01 1.09,-1.01 1.07,-1 1.06,-1.01 1.06,-1.01 1.05,-1 1.04,-1.01 1.03,-1.01 1.03,-1 1.03,-1 1.02,-1.01 1.01,-1 1.02,-1.01 1.01,-1 1,-1 1.01,-1 1,-1 1,-1 1.01,-1 1,-1.01 1,-0.99 1,-1 1,-1 1,-1 1,-1 1.01,-1 1,-1 1.01,-0.99 1.02,-1 1.01,-0.99 1.03,-1 1.02,-1 1.03,-0.99 1.04,-0.99 1.04,-1 1.05,-0.99 1.05,-0.99 1.06,-1 1.08,-0.99 1.08,-0.99 1.09,-0.99 1.1,-0.99 1.11,-0.99 1.13,-0.99 1.14,-0.98 1.15,-0.99 1.17,-0.99 1.18,-0.98 1.21,-0.98 1.22,-0.99 1.25,-0.98 1.27,-0.98 1.29,-0.98 1.33,-0.97 1.35,-0.98 1.39,-0.97 1.43,-0.97 1.47,-0.97 1.52,-0.97 1.58,-0.96 1.63,-0.96 1.71,-0.95 1.79,-0.95 1.89,-0.94 2,-0.92 2,-0.86 2,-0.78 2,-0.71 2,-0.63 2,-0.55 2,-0.48 2,-0.4 2,-0.32 2,-0.24 2,-0.17 2,-0.08 2,0 2,0.08 2,0.15 2,0.24 2,0.32 2,0.39 2,0.47 2,0.55 2,0.63 2,0.7 2,0.78 2,0.85 2,0.92 2,0.99 2,1.06 1.89,1.06 1.78,1.05 1.68,1.05 1.62,1.04 1.55,1.04 1.49,1.03 1.45,1.03 1.4,1.03 1.37,1.03 1.33,1.02 1.3,1.02 1.27,1.02 1.25,1.02 1.23,1.02 1.2,1.01 1.19,1.02 1.17,1.01 1.15,1.01 1.14,1.02 1.12,1.01 1.11,1.01 1.1,1.01 1.09,1.01 1.08,1.01 1.07,1 1.06,1.01 1.06,1.01 1.04,1 1.04,1.01 1.04,1.01 1.03,1 1.02,1 1.02,1.01 1.02,1 1.01,1 1.01,1.01 1,1 1.01,1 1,1 1,1 1,1 1,1 1,1 1,1 1.01,1 1,1 1,1 1.01,1 1.01,0.99 1.01,1 1.01,1 1.02,0.99 1.02,1 1.03,0.99 1.03,1 1.03,0.99 1.05,1 1.05,0.99 1.05,0.99 1.07,0.99 1.07,0.99 1.09,1 1.09,0.99 1.1,0.98 1.12,0.99 1.13,0.99 1.14,0.99 1.16,0.99 1.17,0.98 1.19,0.98 1.21,0.99 1.23,0.98 1.25,0.98 1.28,0.98 1.3,0.98 1.33,0.98 1.37,0.97 1.39,0.97 1.44,0.97 1.49,0.97 1.53,0.97 1.59,0.96 1.65,0.95 1.73,0.96 1.81,0.94 1.92,0.94 2,0.91 2,0.83 2,0.77 2,0.69 2,0.61 2,0.54 2,0.45 2,0.39 2,0.3 2,0.22 2,0.14 2,0.07 2,-0.02 2,-0.1 2,-0.17 2,-0.26 2,-0.33 2,-0.42 2,-0.49 2,-0.57 2,-0.64 2,-0.72 2,-0.8 2,-0.87 2,-0.93 2,-1.01 1.98,-1.07 1.86,-1.06 1.76,-1.05 1.66,-1.05 1.6,-1.04 1.54,-1.03 1.48,-1.03 1.43,-1.03 1.4,-1.03 1.35,-1.03 1.33,-1.02 1.29,-1.02 1.27,-1.02 1.24,-1.02 1.22,-1.01 1.2,-1.02 1.19,-1.02 1.16,-1.01 1.15,-1.01 1.13,-1.01 1.12,-1.01 1.11,-1.02 1.1,-1 1.09,-1.01 1.07,-1.01 1.07,-1.01 1.06,-1.01 1.05,-1 1.05,-1.01 1.04,-1.01 1.03,-1 1.03,-1.01 1.02,-1 1.02,-1 1.01,-1.01 1.02,-1 1,-1 1.01,-1 1,-1.01 1.01,-1 1,-1 1,-1 1,-1 1,-1 1,-1 1,-1 1,-0.99 1.01,-1 1,-1 1.01,-1 1.01,-0.99 1.02,-1 1.02,-1 1.02,-0.99 1.03,-1 1.03,-0.99 1.04,-0.99 1.04,-1 1.05,-0.99 1.06,-0.99 1.07,-1 1.08,-0.99 1.08,-0.99 1.1,-0.99 1.11,-0.99 1.11,-0.98 1.14,-0.99 1.14,-0.99 1.16,-0.99 1.18,-0.98 1.19,-0.99 1.22,-0.98 1.23,-0.98 1.26,-0.98 1.28,-0.98 1.31,-0.98 1.34,-0.97 1.37,-0.98 1.41,-0.97 1.45,-0.97 1.49,-0.97 1.55,-0.96 1.6,-0.96 1.67,-0.96 1.75,-0.95 1.84,-0.94 1.95,-0.94 2,-0.89 2,-0.82 2,-0.74 2,-0.67 2,-0.6 2,-0.51 2,-0.44 2,-0.37 2,-0.28 2,-0.2 2,-0.13 2,-0.04 2,0.04 2,0.11 2,0.2 2,0.27 2,0.36 2,0.43 2,0.51 2,0.59 2,0.66 2,0.74 2,0.81 2,0.89 2,0.95 2,1.03 1.95,1.06 1.83,1.06 1.73,1.05 1.65,1.04 1.58,1.04 1.52,1.04 1.47,1.03 1.43,1.03 1.38,1.03 1.35,1.02 1.32,1.02 1.29,1.02 1.26,1.02 1.24,1.02 1.21,1.02 1.2,1.01 1.17,1.02 1.17,1.01 1.14,1.01 1.13,1.02 1.12,1.01 1.11,1.01 1.09,1.01 1.08,1 1.08,1.01 1.07,1.01 1.05,1.01 1.05,1 1.05,1.01 1.03,1.01 1.04,1 1.02,1.01 1.02,1 1.02,1 1.02,1.01 1.01,1 1,1 1.01,1 1,1 1.01,1.01 1,1 1,1 1,1 1,1 1,1 1,0.99 1,1 1.01,1 1,1 1.01,0.99 1.01,1 1.02,1 1.02,0.99 1.02,1 1.03,0.99 1.04,1 1.04,0.99 1.04,1 1.06,0.99 1.06,0.99 1.07,0.99 1.08,0.99 1.08,0.99 1.1,0.99 1.11,0.99 1.12,0.99 1.14,0.99 1.15,0.99 1.16,0.98 1.18,0.99 1.2,0.98 1.22,0.98 1.24,0.98 1.26,0.99 1.29,0.97 1.32,0.98 1.35,0.98 1.38,0.97 1.41,0.97 1.46,0.97 1.51,0.97 1.56,0.96 1.62,0.96 1.68,0.95 1.77,0.95 1.86,0.95 1.98,0.93 2,0.87 2,0.8 2,0.73 2,0.65 2,0.58 2,0.5 2,0.42 2,0.34 2,0.27 2,0.18 2,0.1 2,0.03 2,-0.06 2,-0.13 2,-0.22 2,-0.29 2,-0.38 2,-0.45 2,-0.53 2,-0.6 2,-0.68 2,-0.76 2,-0.83 2,-0.9 2,-0.97 2,-1.05 1.92,-1.06 1.81,-1.06 1.71,-1.04 1.63,-1.05 1.57,-1.03 1.5,-1.04 1.46,-1.03 1.42,-1.03 1.37,-1.02 1.34,-1.03 1.31,-1.02 1.28,-1.02 1.26,-1.02 1.23,-1.02 1.21,-1.01 1.19,-1.02 1.18,-1.01 1.15,-1.02 1.15,-1.01 1.12,-1.01 1.12,-1.01 1.1,-1.01 1.09,-1.01 1.08,-1.01 578.7534,348.88162"
       inkscape:connector-curvature="0"
       sodipodi:nodetypes="ccccccccccccccccccccccccccccccccccccccccccccccccccccccccccccccccccccccccccccccccccccccccccccccccccccccccccccccccccccccccccccccccccccccccccccccccccccccccccccccccccccccccccccccccccccccccccccccccccccccccccccccccccccccccccccccccccccccccccccccccccccccccccccccccccccccccccccccccccccccccccccccccccccccccccccccccccccccccccccccccccccccccccccccccccccccccccccccccccccccccccccccccccccccccccccccccccccccccccccccccccccccccccccccccccccccccccccccccccccccccccccccccccccccccccccccccccccccc" />
  </g>
</svg>
