<?xml version="1.0" standalone="no"?>
<!DOCTYPE svg PUBLIC "-//W3C//DTD SVG 1.1//EN" "http://www.w3.org/Graphics/SVG/1.1/DTD/svg11.dtd" >
<svg>
<metadata>
Created by FontForge 20110222 at Thu May  2 12:20:39 2013
 By Orthosie Webmaster
Copyright (c) 1995 Adobe Systems Incorporated.  All Rights Reserved.Optima is a trademark of Linotype-Hell AG and/or its subsidiaries.
</metadata>
<defs>
<font id="OptimaMediumMedium" horiz-adv-x="500" >
  <font-face 
    font-family="OptimaMediumMedium"
    font-weight="500"
    font-stretch="normal"
    units-per-em="1000"
    panose-1="2 11 6 0 0 0 0 0 0 0"
    ascent="800"
    descent="-200"
    x-height="481"
    cap-height="687"
    bbox="-24 -276 1000 896"
    underline-thickness="50"
    underline-position="-50"
    unicode-range="U+0020-2122"
  />
<missing-glyph horiz-adv-x="502" 
d="M-1 0h500v500h-500v-500zM9 10v480h480v-480h-480z" />
    <glyph glyph-name=".notdef" horiz-adv-x="502" 
d="M-1 0h500v500h-500v-500zM9 10v480h480v-480h-480z" />
    <glyph glyph-name=".null" horiz-adv-x="0" 
 />
    <glyph glyph-name="nonmarkingreturn" horiz-adv-x="333" 
 />
    <glyph glyph-name="space" unicode=" " horiz-adv-x="250" 
 />
    <glyph glyph-name="exclam" unicode="!" horiz-adv-x="444" 
d="M204 173q2 0 7 1h7h6q5 -1 7 -1l40 404q3 26 3 39q0 10 -1.5 21.5t-7 23t-17 19.5t-30.5 8t-31 -8.5t-17 -21t-6.5 -23.5t-1.5 -20t2 -28q1 -4 1 -9zM219 115q-27 0 -45.5 -19t-18.5 -45t18.5 -44.5t45.5 -18.5q26 0 44.5 19t18.5 45t-18.5 44.5t-44.5 18.5z" />
    <glyph glyph-name="quotedbl" unicode="&#x22;" 
d="M186 409l26 286h-84l26 -286h32zM346 409l26 286h-84l26 -286h32z" />
    <glyph glyph-name="numbersign" unicode="#" 
d="M125 0l34 184h128l-34 -184h70l34 184h116v61h-105l26 140h116v61h-105l40 213h-70l-40 -213h-127l39 213h-70l-39 -213h-117v-61h104l-24 -140h-117v-61h105l-34 -184h70zM196 385h128l-26 -140h-128z" />
    <glyph glyph-name="dollar" unicode="$" 
d="M404 549q6 45 28 88q-35 20 -74.5 31.5t-90.5 13.5q0 11 0.5 22t2.5 29l2 29q-16 -2 -26 -2q-5 0 -21 1q-3 1 -7 1q3 -30 4 -42t2 -37v-4q-26 -3 -56 -14t-57.5 -33t-45.5 -57t-18 -83q0 -34 12 -69t43 -59q21 -16 40.5 -25.5t75.5 -32.5l6 -2v-276q-16 0 -34.5 3
t-41.5 12.5t-45.5 30.5t-40.5 55h-12q-1 -18 -4.5 -39t-13.5 -52q44 -33 90 -43.5t102 -10.5q0 -27 -1 -42t-5 -47q16 2 28 2t26 -2q-4 36 -4.5 49t-0.5 44q38 7 65.5 17.5t56.5 37.5q32 30 50.5 72.5t18.5 86.5q0 37 -11 65t-29.5 47t-42.5 32.5t-56 27.5q-12 5 -30 12
q-17 7 -22 9v245q33 -4 56 -14.5t36 -24.5t19.5 -26t11.5 -27zM224 412l-1 1q-19 7 -33.5 15t-29 21t-24 32.5t-9.5 46.5q0 31 11.5 52.5t28 33.5t31.5 17t26 7v-226zM267 287h1q22 -10 38 -19t31.5 -23.5t25 -36t9.5 -50.5q0 -100 -105 -126v255z" />
    <glyph glyph-name="percent" unicode="%" horiz-adv-x="889" 
d="M374 535q0 72 -46.5 119t-118.5 47q-71 0 -118 -47.5t-47 -118.5t47 -118.5t118 -47.5q72 0 118.5 47t46.5 119zM209 677q26 0 43.5 -13.5t27.5 -35t13.5 -45.5t3.5 -48q0 -26 -3.5 -50t-13.5 -45t-27.5 -34t-43.5 -13q-25 0 -42.5 13t-27.5 34.5t-14 46t-4 48.5
q0 23 4 47.5t14 46t27.5 35t42.5 13.5zM845 148q0 72 -46.5 119t-118.5 47q-71 0 -118 -47.5t-47 -118.5t47 -118.5t118 -47.5q72 0 118.5 47t46.5 119zM680 290q26 0 43.5 -13.5t27.5 -35t13.5 -45.5t3.5 -48q0 -26 -3.5 -50t-13.5 -45t-27.5 -34t-43.5 -13q-25 0 -42.5 13
t-27.5 34.5t-14 46t-4 48.5q0 23 4 47.5t14 46t27.5 35t42.5 13.5zM225 -35q14 3 25 3q13 0 25 -3l388 757q-9 -3 -23 -3q-8 0 -18 2q-2 0 -6 1z" />
    <glyph glyph-name="ampersand" unicode="&#x26;" horiz-adv-x="722" 
d="M605 375q-3 -28 -13 -59.5t-24 -58.5t-29 -48.5t-28 -33.5q-16 16 -37 40.5t-44 51.5t-96 116l-2 3l2 2q70 50 99.5 84t29.5 86q0 51 -33.5 83.5t-102.5 32.5q-42 0 -73 -14.5t-49.5 -38t-27 -51t-8.5 -54.5q0 -30 13 -66.5t51 -85.5q-93 -47 -132 -93t-39 -112
q0 -78 52.5 -127.5t145.5 -49.5q41 0 75 9.5t60 23.5t44 29.5t36 33.5q36 -36 73 -83q14 4 30.5 5t34.5 1q39 0 59 -6v14q-40 36 -70 67.5t-61 67.5q0 1 -1 2q26 28 60.5 78t61.5 105q-13 7 -26.5 20.5t-22.5 27.5zM244 551q0 40 23 64.5t60 24.5q36 0 56.5 -24t20.5 -58
q0 -38 -23 -78t-69 -68q-37 48 -52.5 77.5t-15.5 61.5zM153 194q0 30 10 54.5t25 41.5t30 28.5t33 21.5q14 -19 40 -51t56.5 -67.5t58 -66t46.5 -49.5q-38 -33 -69.5 -50t-74.5 -17q-27 0 -54.5 10.5t-50.5 31t-36.5 49t-13.5 64.5z" />
    <glyph glyph-name="quotesingle" unicode="'" horiz-adv-x="250" 
d="M141 409l26 286h-84l26 -286h32z" />
    <glyph glyph-name="parenleft" unicode="(" horiz-adv-x="333" 
d="M85 283q0 -69 11 -121t27 -93q29 -75 64 -122t73 -84q5 7 9.5 11t12.5 11q-53 61 -87.5 165t-34.5 228q0 133 36.5 235.5t90.5 161.5l-13.5 12t-10.5 11q-22 -19 -47.5 -49t-55.5 -83q-40 -73 -57.5 -138.5t-17.5 -144.5z" />
    <glyph glyph-name="parenright" unicode=")" horiz-adv-x="333" 
d="M248 282q0 82 -18 148.5t-60 139.5q-29 52 -53.5 81t-46.5 47l-2 -2q-7 -8 -11 -12t-11 -9q59 -65 93 -167.5t34 -229.5q0 -123 -34.5 -228t-87.5 -165q7 -5 11.5 -10t10.5 -12q33 32 59.5 65t53.5 87q31 63 46.5 127t15.5 140z" />
    <glyph glyph-name="asterisk" unicode="*" 
d="M384 639q-26 -21 -59 -46t-58 -40q0 26 4.5 69t9.5 76q-15 -4 -29 -4q-13 0 -35 4q5 -31 10 -73.5t6 -72.5q-21 12 -47 31t-62 48q-7 5 -10 7q-6 -19 -12 -29t-20 -27q9 -4 25 -10q39 -16 66 -28t43 -21q-24 -13 -61 -29t-73 -31q13 -16 18.5 -24.5t13.5 -30.5
q10 8 31 23q58 45 88 63q-2 -33 -6.5 -73t-9.5 -72v-2q3 1 5 1q19 3 29 3q12 0 30 -4q-5 35 -9 77.5t-6 70.5q8 -5 44 -33q18 -13 39 -28t37 -27q7 20 12 30t18 26q-38 14 -76 31t-59 29q16 9 25.5 13.5t21 9.5t28 12t46.5 20l16 6q-10 11 -16.5 21.5t-17.5 33.5z" />
    <glyph glyph-name="plus" unicode="+" horiz-adv-x="593" 
d="M263 0h66v216h218v60h-218v215h-66v-215h-218v-60h218v-216z" />
    <glyph glyph-name="comma" unicode="," horiz-adv-x="250" 
d="M12 -176q8 -2 17 -6q2 -1 5 -2l130 216q9 15 12 27t3 20q0 18 -9.5 31t-31.5 13q-21 0 -35 -14.5t-25 -54.5z" />
    <glyph glyph-name="hyphen" unicode="-" horiz-adv-x="333" 
d="M288 203l-1 5q-3 20 -3 38t3 38l1 5q-34 -2 -61 -3.5t-57 -1.5q-35 0 -103 4q-11 0 -22 1v-2q4 -22 4 -40t-3 -41l-1 -3q31 3 52.5 4t50.5 1t58.5 -1t81.5 -4z" />
    <glyph glyph-name="period" unicode="." horiz-adv-x="250" 
d="M126 115q-27 0 -45.5 -19t-18.5 -45t18.5 -44.5t45.5 -18.5q26 0 44.5 19t18.5 45t-18.5 44.5t-44.5 18.5z" />
    <glyph glyph-name="slash" unicode="/" horiz-adv-x="278" 
d="M286 673q-12 -3 -30 -3t-32 3l-231 -692q12 3 28 3q18 0 33 -3z" />
    <glyph glyph-name="zero" unicode="0" 
d="M469 341q0 52 -6.5 104.5t-27.5 106t-66.5 89.5t-118.5 36q-72 0 -117.5 -36t-67 -91.5t-28 -112.5t-6.5 -116q0 -57 6.5 -111t27.5 -106.5t66.5 -87t118.5 -34.5q75 0 121.5 42.5t67 103t25.5 113.5t5 100zM369 349q0 -170 -29.5 -249.5t-91.5 -79.5q-41 0 -65.5 29
t-35.5 76t-13.5 95t-2.5 116q0 61 3.5 111t15 94t36 71t64.5 27q37 0 60.5 -21t36 -59t17.5 -89.5t5 -120.5z" />
    <glyph glyph-name="one" unicode="1" 
d="M23 522q17 -9 26 -18.5t16 -22.5q16 12 40 26.5t52.5 30.5t83.5 47h1q0 -133 -2 -377v-54q0 -37 -3.5 -79.5t-8.5 -79.5q29 6 53 6q21 0 57 -6q-2 40 -2 110q0 117 1 254q1 86 3 161.5t4 110.5q1 16 2 27t3 24l-11 7q-28 -22 -70.5 -47t-89 -47.5t-88 -39.5t-67.5 -26v-7
z" />
    <glyph glyph-name="two" unicode="2" 
d="M16 -5l47 1q104 2 161 3t115 1q31 0 64.5 -1.5t61.5 -3.5q-5 17 -5 43q0 25 5 47q-63 -7 -139 -7h-192l195 199q45 47 75.5 103.5t30.5 118.5q0 78 -54 128.5t-148 50.5q-49 0 -86 -14t-60.5 -34t-35.5 -38t-21 -35q14 -12 26.5 -28.5t19.5 -37.5l16 3q0 38 11 65.5
t29 44t38.5 24t40.5 7.5q39 0 63.5 -16.5t36.5 -41.5t16 -49.5t4 -47.5q0 -77 -29.5 -133.5t-74.5 -107.5q-104 -123 -211 -216v-28z" />
    <glyph glyph-name="three" unicode="3" 
d="M34 101q0 -26 -3 -41t-10 -34q33 -18 68 -29.5t90 -11.5q59 0 107.5 15.5t83 44t52.5 67t18 82.5q0 46 -18.5 77.5t-47 49t-57.5 24.5t-53 7q-5 0 -5 4q0 2 3 3t15 4q58 18 94 60.5t36 99.5q0 43 -18.5 73.5t-47.5 48t-62.5 25t-66.5 7.5q-62 0 -101 -19t-71 -48
q13 -18 18.5 -31t10.5 -37l15 -1q2 17 6 29.5t15 25.5q14 17 38 29t54 12q50 0 81.5 -34t31.5 -93q0 -25 -6.5 -49t-21.5 -44.5t-38.5 -32.5t-55.5 -12q-23 0 -49 7v-3q2 -14 2 -26q0 -11 -2 -25v-2q13 4 22.5 6t24.5 2q66 0 108 -35.5t42 -109.5q0 -28 -7.5 -55.5
t-24.5 -51.5t-47 -39t-73 -15q-36 0 -73 16.5t-62 60.5z" />
    <glyph glyph-name="four" unicode="4" 
d="M297 181q0 -53 -2.5 -97.5t-5.5 -88.5l3 1q32 6 47 6q17 0 49 -7h1q0 18 -1 50q0 14 -1 64q-1 66 -1 72q28 0 46.5 -1t36.5 -3q5 -1 10 -1q-5 17 -5 36t5 39q-3 0 -27 -1q-27 -2 -36.5 -2t-29.5 -1v26q1 79 1.5 143.5t1 93.5t2 66t4.5 92q-3 0 -7 -1q-17 -4 -31 -4t-37 4
q-4 1 -6 1q-4 -7 -55 -82.5t-99.5 -146.5t-98.5 -143t-64 -89q2 -12 2 -18q0 -2 -1 -5v-7q32 1 72.5 2.5t63.5 1.5h163zM81 247l1 1q18 30 28 45.5t31 47.5q11 16 51 73q29 41 59 83.5t47 66.5v-317h-217z" />
    <glyph glyph-name="five" unicode="5" 
d="M89 312l1 1q18 14 41.5 25.5t59.5 11.5q25 0 50.5 -8.5t47 -26.5t34.5 -48t13 -71q0 -81 -44 -127.5t-112 -46.5q-42 0 -80.5 21.5t-58.5 59.5l-11 -1q-2 -22 -5 -37t-9 -39q38 -26 79 -35.5t78 -9.5q57 0 106 16.5t84.5 46.5t55 73t19.5 94q0 48 -16.5 83.5t-45.5 58
t-66.5 33t-81.5 10.5q-37 0 -59.5 -6t-43.5 -17q0 107 7 212q80 0 155 -2t131 -7l-1 5q-4 21 -4 36q0 14 3 33q2 11 2 15q-8 0 -16 -1q-43 -2 -78.5 -3.5t-86.5 -1.5q-60 0 -93 1.5t-58 3.5l-12 1q4 -42 5.5 -75t1.5 -84q0 -33 -1 -73.5t-4 -107.5v-5z" />
    <glyph glyph-name="six" unicode="6" 
d="M384 633q-5 16 -6 22.5t-2 15.5q-2 0 -7 1q-25 4 -45 4q-57 0 -109.5 -26.5t-93.5 -77.5t-64 -124.5t-23 -164.5q0 -87 17 -138.5t45 -87.5q22 -29 62 -51.5t100 -22.5q47 0 86 16.5t68 46.5t44.5 71t15.5 90q0 91 -51 143t-137 52q-57 0 -95 -24t-55 -54
q3 80 19.5 139.5t44 98t61.5 57t72 18.5q21 0 47 -7l2 -1zM254 22q-52 0 -85 42.5t-33 123.5t33.5 124t90.5 43q34 0 56.5 -15.5t34.5 -39.5t16.5 -51t4.5 -55q0 -33 -6 -63.5t-20 -55t-37 -39t-55 -14.5z" />
    <glyph glyph-name="seven" unicode="7" 
d="M497 662q-49 -2 -109.5 -3.5t-99.5 -1.5q-57 0 -97.5 1t-80.5 4q-31 3 -64 6q5 -22 5 -49t-5 -50l46.5 4.5t39 2.5t45.5 1t90 1h130q-17 -34 -38 -71t-49 -84q-9 -15 -10 -17q-35 -59 -61.5 -103t-53 -86.5t-60 -94.5t-76.5 -119l3 -8q24 6 44 6t42 -6q28 61 56.5 119
t71.5 139q10 18 41 72.5t69.5 120.5t70.5 120.5t51 84.5z" />
    <glyph glyph-name="eight" unicode="8" 
d="M301 376h2q27 6 46.5 13.5t37.5 23.5q23 20 36.5 49t13.5 66q0 67 -49 107.5t-137 40.5q-49 0 -85 -14t-58.5 -37t-33 -51t-10.5 -56q0 -57 32.5 -92.5t92.5 -50.5v0q-28 -6 -53 -16t-50 -31q-25 -23 -41 -57.5t-16 -87.5q0 -91 57 -145.5t160 -54.5q102 0 163 55.5
t61 158.5q0 58 -19.5 92t-44.5 54q-24 18 -49.5 24.5t-55.5 8.5v0zM249 390q-29 0 -47.5 14t-27 34.5t-11 39t-2.5 35.5q0 18 2 36t10.5 39t28 35.5t51.5 14.5q27 0 45 -11t27.5 -29t13 -38t3.5 -39q0 -67 -27 -99t-66 -32zM248 21q-33 0 -56 14t-36.5 38t-19 53t-5.5 62
q0 21 3 45t14 52t36.5 48t67.5 20q35 0 58 -14t36 -38t18 -51.5t5 -58.5q0 -79 -32 -124.5t-89 -45.5z" />
    <glyph glyph-name="nine" unicode="9" 
d="M77 53q7 -16 11 -26.5t9 -28.5q18 -7 32 -9.5t41 -2.5q48 0 95 15t85 56q54 58 83.5 145t29.5 190q0 46 -7.5 92.5t-30.5 91t-68 73.5t-116 29q-100 0 -156.5 -63t-56.5 -157q0 -86 49 -142t135 -56q24 0 52.5 6.5t58.5 27.5q17 12 35 36l1 1q0 -70 -14.5 -127.5
t-40.5 -98.5q-51 -82 -129 -82q-20 0 -43.5 8t-44.5 28zM242 306q-59 0 -87 45t-28 114q0 82 34 127.5t84 45.5q25 0 47.5 -11.5t35.5 -29.5q19 -26 25 -60.5t6 -67.5q0 -20 -2.5 -43.5t-13.5 -51.5t-35.5 -48t-65.5 -20z" />
    <glyph glyph-name="colon" unicode=":" horiz-adv-x="250" 
d="M122 463q-27 0 -45.5 -19t-18.5 -45t19 -44.5t45 -18.5t44.5 18.5t18.5 45.5q0 26 -18.5 44.5t-44.5 18.5zM122 115q-27 0 -45.5 -19t-18.5 -45t18.5 -44.5t45.5 -18.5q26 0 44.5 19t18.5 45t-18.5 44.5t-44.5 18.5z" />
    <glyph glyph-name="semicolon" unicode=";" horiz-adv-x="250" 
d="M129 463q-27 0 -45.5 -18.5t-18.5 -44.5t19 -45t45 -19t44.5 18.5t18.5 45.5q0 26 -18.5 44.5t-44.5 18.5zM12 -177q7 -2 11 -3t11 -5l129 217q9 15 12.5 27t3.5 20q0 17 -10 30.5t-32 13.5q-20 0 -34 -14.5t-25 -54.5z" />
    <glyph glyph-name="less" unicode="&#x3c;" horiz-adv-x="593" 
d="M46 212l501 -199v67l-423 164l423 166v67l-501 -200v-65z" />
    <glyph glyph-name="equal" unicode="=" horiz-adv-x="593" 
d="M45 310h502v60h-502v-60zM45 120h502v60h-502v-60z" />
    <glyph glyph-name="greater" unicode="&#x3e;" horiz-adv-x="593" 
d="M547 212v65l-501 200v-67l422 -166l-422 -164v-67z" />
    <glyph glyph-name="question" unicode="?" horiz-adv-x="444" 
d="M101 592q28 52 90 52q38 0 60.5 -23t22.5 -58q0 -31 -17.5 -58t-61.5 -70q-40 -41 -61.5 -74t-21.5 -72q0 -18 5.5 -37t19 -36t37.5 -28t57 -11q18 0 35 5q1 11 3 17.5t6 15.5l-6 4q-10 -6 -16.5 -8t-16.5 -2q-24 0 -36.5 16t-12.5 38q0 13 3 23.5t12.5 25t28.5 34.5
t50 50l2 2q35 34 56 67t21 82q0 61 -43.5 99.5t-117.5 38.5q-8 0 -20 -1t-29 -4.5t-35.5 -11.5t-33.5 -21q5 -16 7 -25t4 -28zM208 115q-26 0 -44.5 -19t-18.5 -45t18.5 -44.5t44.5 -18.5q27 0 45.5 19t18.5 45t-18.5 44.5t-45.5 18.5z" />
    <glyph glyph-name="at" unicode="@" horiz-adv-x="800" 
d="M669 97q-57 -40 -121 -61.5t-130 -21.5q-68 0 -127 22t-103 63t-68 96.5t-24 121.5q0 67 26.5 130t74.5 111.5t112.5 76t137.5 27.5q61 0 112.5 -18.5t89 -52.5t58 -80.5t20.5 -101.5q0 -44 -13.5 -86t-35.5 -75.5t-48 -52.5t-50 -19q-16 0 -31.5 11.5t-15.5 37.5
q0 22 15 76t60 201h-69l-17 -55q-7 36 -34.5 51t-56.5 15q-34 0 -69.5 -18.5t-65 -51.5t-47 -75t-17.5 -86q0 -58 35 -99t90 -41q41 0 70 23.5t46 59.5q3 -44 29 -63.5t59 -19.5q38 0 74 22.5t64.5 61t45 87t16.5 98.5q0 60 -23 112t-65.5 91t-102 60.5t-130.5 21.5
q-83 0 -156.5 -30t-128.5 -83t-85.5 -121.5t-30.5 -143.5q0 -76 29.5 -138.5t81.5 -107.5t119.5 -68.5t140.5 -23.5q146 0 274 91zM304 259q0 28 11.5 65.5t31 73t45.5 58.5t53 23q24 0 40.5 -16t16.5 -44q0 -14 -5 -37.5t-13 -50.5t-17.5 -52t-16.5 -40q-31 -63 -81 -63
q-31 0 -48 23t-17 60z" />
    <glyph glyph-name="A" unicode="A" horiz-adv-x="667" 
d="M431 257l5 -11q28 -61 51.5 -119t44.5 -132q38 6 64 6q25 0 59 -6q-2 4 -40.5 89.5t-89 200.5t-97 226t-73.5 184q-12 -3 -22 -3q-7 0 -18 2l-7 1q-24 -62 -61.5 -149t-79 -180.5t-86 -192t-81.5 -178.5q5 1 11 2q19 4 33 4t31 -4l10 -2q20 78 42 137t48 118q2 5 3 7h253
zM411 307h-213l105 248z" />
    <glyph glyph-name="B" unicode="B" horiz-adv-x="611" 
d="M525 533q0 36 -17.5 67.5t-47.5 52.5q-32 22 -85 27.5t-178 5.5q-46 0 -68.5 0.5t-38.5 2.5q9 -170 9 -396q0 -111 -2 -168q-1 -31 -3 -66.5t-4 -63.5q35 2 54 3t36 1q7 0 55 -1q50 -1 60 -1q45 0 87.5 8t71.5 24q51 27 76 72.5t25 93.5q0 28 -9.5 56t-30.5 52t-55 40
t-81 21h-3q-12 2 -14.5 2.5t-2.5 2.5t3 3.5t14 4.5q21 5 43.5 13.5t47 26t41.5 46.5t17 70zM421 519q0 -49 -28 -84t-79 -46q-16 -3 -31 -5t-35 -2q-7 0 -21 1q-21 1 -32 1q-2 86 -2 129q0 66 3 127q38 5 70 5q65 0 110 -31.5t45 -94.5zM446 192q0 -41 -15.5 -75.5
t-56.5 -57.5q-21 -12 -53 -15t-73 -3q-18 0 -43 2h-9q-3 71 -3 144q0 54 2 152h2q43 3 57 3q30 0 59 -3.5t60 -18t52 -46t21 -82.5z" />
    <glyph glyph-name="C" unicode="C" horiz-adv-x="722" 
d="M669 134q-28 -33 -59.5 -53.5t-63 -31.5t-57 -14.5t-47.5 -3.5q-54 0 -103 19.5t-87 59t-59.5 98.5t-21.5 134q0 144 71.5 226.5t191.5 82.5q74 0 135 -32.5t82 -77.5h10q4 34 8 50.5t16 49.5q-50 22 -108.5 37.5t-138.5 15.5q-96 0 -168.5 -27t-120 -75.5t-71 -112.5
t-23.5 -138q0 -77 25 -142.5t72 -114t116 -75t154 -26.5q139 0 248 65q1 25 4 43t7 38z" />
    <glyph glyph-name="D" unicode="D" horiz-adv-x="778" 
d="M725 360q0 74 -25 139t-85 113q-34 27 -70.5 42.5t-78 22t-88.5 8t-131 1.5q-81 0 -164 3q3 -53 4 -78.5t2 -52.5q2 -62 2 -163q0 -84 -1 -146t-2 -99t-3.5 -76t-5.5 -75v-4q45 2 67 3t40 1q9 0 36.5 -0.5t73.5 -2.5q46 -1 49 -1q77 0 145 22t121.5 67t83.5 114.5
t30 161.5zM614 348q0 -33 -5 -67.5t-17 -69.5t-34.5 -67t-55.5 -55q-24 -17 -52.5 -27t-56 -14.5t-50.5 -5.5t-48 -1q-34 0 -56.5 1.5t-50.5 4.5q-1 50 -1.5 71.5t-1.5 48.5v183q0 82 1 153.5t4 132.5h5q24 3 37 3.5t46 0.5q81 0 134.5 -9t100.5 -44q30 -22 50 -51.5t31 -61
t15.5 -63.5t4.5 -63z" />
    <glyph glyph-name="E" unicode="E" 
d="M188 385q-1 53 -1 130v67t2 48q33 2 49.5 2h47.5q59 0 92 -3t67 -10l-1 3q-3 16 -3 29t4 35q-61 -6 -152 -6q-139 0 -209 6q4 -69 6 -161.5t2 -171.5q0 -87 -1 -139.5t-2 -90t-3 -62.5t-5 -66q154 6 232 6q93 0 139 -6l-1 3q-3 16 -3 29t3 30l1 4q-78 -8 -136.5 -10
t-126.5 -2q-1 30 -2 75.5t-1 79.5q0 45 2 131q50 2 81 2q34 0 76 -2.5t79 -7.5q0 4 -2 13q-2 11 -2 18q0 13 3 30l1 4q-65 -8 -161 -8q-19 0 -38 1h-37z" />
    <glyph glyph-name="F" unicode="F" 
d="M188 334q50 2 79 2q38 0 80.5 -2.5t82.5 -8.5l-1 3q-3 16 -3 29q0 14 3 32q1 1 1 3q-37 -5 -92.5 -6.5t-149.5 -1.5q-1 53 -1 130v67t2 49q23 1 64 1q56 0 107.5 -4t90.5 -10v2q-4 17 -4 32q0 14 3 32q1 1 1 3q-12 -1 -28 -2.5t-39 -1.5q-45 -2 -139 -2q-64 0 -94 1
t-67 5q2 -40 3.5 -80t2.5 -95.5t1.5 -100t0.5 -76.5q0 -95 -3 -178t-8 -161l5 1q15 3 24.5 4t25.5 1q18 0 31.5 -1.5t25.5 -4.5h2v3q-4 48 -6 87t-2 111z" />
    <glyph glyph-name="G" unicode="G" horiz-adv-x="778" 
d="M668 534q5 22 12 46t22 56q-53 27 -126.5 43t-143.5 16q-96 0 -169.5 -27.5t-122 -76.5t-72 -113t-23.5 -136q0 -80 27 -146t77 -114t118.5 -74t151.5 -26q75 0 134 13.5t144 42.5q-3 22 -3 73q0 52 2.5 95t7.5 101l-3 -1q-14 -2 -24 -3.5t-26 -1.5q-19 0 -32.5 1.5
t-26.5 4.5q4 -32 5 -56t1 -63v-42q-1 -52 -1 -81q-20 -13 -44 -21t-45.5 -11.5t-36.5 -4.5t-26 -1q-56 0 -107.5 20.5t-92 60.5t-63.5 100t-23 136q0 75 22 133.5t60 97t87.5 58t105.5 19.5q52 0 90.5 -12t64 -30.5t40.5 -36.5t28 -39h11z" />
    <glyph glyph-name="H" unicode="H" horiz-adv-x="778" 
d="M198 335q60 2 87.5 2h104.5h108q19 -1 41 -1.5t43 -1.5v-150q0 -7 -0.5 -30t-1.5 -51t-2.5 -63t-2.5 -45q38 6 57 6q15 0 45 -5q2 0 7 -1l-3 66t-2 46q-1 38 -1 100q0 128 2.5 245.5t8.5 234.5q-24 -6 -56 -6q-19 0 -31 1.5t-25 4.5l1 -12q3 -72 4 -107.5t1 -75.5v-37
q-1 -43 -1 -60q-46 -1 -89 -2t-96 -1q-67 0 -199 4q0 96 2.5 177.5t4.5 113.5q-13 -3 -25 -4.5t-31 -1.5t-31 1.5t-25 4.5q1 -14 1 -25q3 -81 4 -116t3 -83q1 -52 1 -103q0 -48 -0.5 -84t-2 -77t-4.5 -92t-6 -112q34 6 57 6q22 0 54 -6q-2 59 -2 88v103v149z" />
    <glyph glyph-name="I" unicode="I" horiz-adv-x="333" 
d="M118 351q0 -72 -0.5 -121.5t-2 -87.5t-3.5 -74.5t-4 -72.5h2q30 6 51 6q24 0 62 -6l-1 20q-3 78 -4.5 141.5t-1.5 173.5q0 198 8 357q-14 -3 -26 -4.5t-32 -1.5q-19 0 -30.5 1.5t-24.5 4.5q3 -81 4 -112.5t2 -70.5q1 -43 1 -153z" />
    <glyph glyph-name="J" unicode="J" horiz-adv-x="333" 
d="M19 -149q45 4 82.5 16t71.5 47q20 21 31.5 42.5t17 47.5t7 56.5t1.5 79.5v68q-1 58 -1 68q0 118 2.5 222.5t8.5 188.5h-2q-34 -6 -57 -6q-25 0 -59 6q8 -158 8 -319q0 -103 -1 -187q-1 -58 -3 -105.5t-5 -72.5q-4 -36 -14.5 -59.5t-25.5 -36t-31 -17.5t-36 -7z" />
    <glyph glyph-name="K" unicode="K" horiz-adv-x="611" 
d="M95 332q0 -50 -0.5 -82.5t-1.5 -64.5t-2.5 -60t-6.5 -105l-1 -25h3q36 6 56 6q24 0 56 -6q-3 36 -4 61t-2 51q-1 32 -2 151v11v62l3 4l6 -7q38 -40 55.5 -59.5t35.5 -40.5t45 -52l2 -3q52 -60 82.5 -98t54.5 -80q15 3 35.5 4.5t35.5 1.5q13 0 33 -2t30 -4v23
q-12 12 -32 34q-15 16 -18 19q-39 44 -67.5 76t-50 56t-139.5 158l-16 18q7 6 26 24t60 58q54 52 86 82.5t60 56.5t54 50t37 31l-2 6q-28 -6 -45 -6q-25 0 -52 6q-7 -11 -14 -20t-15 -18t-22 -25t-44 -47q-43 -46 -74 -77.5t-53.5 -52.5t-41 -37t-48.5 -40q-2 -2 -6 -5
q0 27 -1 80v47v35q1 22 1 33q0 7 1 30q2 42 3 62.5t3 34.5l-3 -1q-13 -2 -22.5 -3.5t-25.5 -1.5q-17 0 -30.5 1.5t-30.5 4.5l1 -13q3 -60 4 -78t2 -51.5t1.5 -87.5t0.5 -125z" />
    <glyph glyph-name="L" unicode="L" 
d="M201 52q0 250 1 338q1 60 3 137t5 160q-36 -6 -63 -6q-15 0 -25.5 1.5t-23.5 3.5q-3 1 -5 1q0 -9 1.5 -44.5t3 -83.5t2.5 -97.5t1 -101.5q0 -116 -2 -197t-7 -168q14 1 31 2q39 2 63 3t73 1q50 0 87.5 -1t73.5 -3q36 -1 55 -2q-4 16 -4 34q0 15 4 33q-32 -6 -85 -9
t-96 -3q-24 0 -40 0.5t-53 1.5z" />
    <glyph glyph-name="M" unicode="M" horiz-adv-x="945" 
d="M769 -5h2q16 3 28.5 4.5t31.5 1.5q11 0 21 -1t26 -4q8 -1 9 -1q-4 13 -6 27q-9 56 -20 137.5t-21.5 172.5t-20 174.5t-20.5 184.5l-5 -1q-10 -1 -14 -1q-5 0 -14 1q-2 1 -4 1q-12 -28 -20.5 -45t-25.5 -50q-40 -76 -176 -329q-23 -43 -62 -115q-23 37 -65.5 114
t-90.5 166.5t-84.5 161t-48.5 97.5q-14 -2 -20 -2q-7 0 -17 2q-8 -77 -23 -186.5t-31.5 -216.5t-30 -189.5t-18.5 -103.5h3q27 6 45 6q14 0 38 -6q0 39 3 103t8.5 133.5t13.5 142t16 125.5q45 -77 97.5 -176t118.5 -227q12 -23 21 -42.5t26 -58.5h3q7 2 10 2q4 0 14 -2
q1 3 3 8q10 26 20.5 50.5t28.5 60.5q97 195 207 394q16 -151 24.5 -241.5t14 -162t5.5 -109.5z" />
    <glyph glyph-name="N" unicode="N" horiz-adv-x="778" 
d="M149 512l195 -203q34 -34 51 -50q24 -22 60.5 -60t77 -82t70.5 -78t43 -50q2 0 6 1q7 1 10 1q5 0 13 -1q1 0 6 -1q-3 47 -3.5 114t-0.5 155q0 144 3 240t14 193q-26 -6 -43 -6t-39 6q5 -57 7.5 -104.5t3.5 -98.5q2 -72 2 -285v-37q-32 33 -66.5 68t-58.5 60.5t-153 160.5
q-27 29 -71 75q-42 44 -64.5 69t-47.5 53l-33 39q-6 -1 -7 -1q-9 -1 -14 -1q-4 0 -13 2h-3v-120q0 -16 1 -119q2 -109 2 -131q0 -37 -1 -83.5t-3.5 -99t-4.5 -89.5t-4 -54l5 1q18 5 34 5q18 0 42 -6q-1 12 -1 26q-4 58 -6 97.5t-3.5 85.5t-3 100t-2.5 145v63z" />
    <glyph glyph-name="O" unicode="O" horiz-adv-x="889" 
d="M450 696q-90 0 -162 -26t-122 -74t-76 -114t-26 -146q0 -82 27.5 -148t78.5 -112.5t120 -71t150 -24.5q88 0 159.5 27.5t122.5 77.5t77.5 117.5t26.5 145.5q0 82 -28.5 147.5t-80 110t-120 67.5t-147.5 23zM178 337q0 81 22 142t60 99t85.5 56.5t99.5 18.5q28 0 58.5 -6
t60.5 -19.5t57.5 -36.5t46.5 -56q24 -40 34 -92.5t10 -99.5q0 -151 -74.5 -235.5t-195.5 -84.5q-57 0 -106 21.5t-84 62.5t-54.5 99.5t-19.5 130.5z" />
    <glyph glyph-name="P" unicode="P" horiz-adv-x="556" 
d="M533 510q0 51 -23.5 90t-69.5 61q-32 15 -73.5 19t-114.5 4q-71 0 -105.5 0.5t-60.5 2.5q3 -47 4 -61.5t2 -46.5t1.5 -71.5t0.5 -90.5q0 -262 -8 -422l3 1q13 2 23 3.5t27 1.5q18 0 28 -1t24 -4q4 -1 6 -1q-2 37 -3 64t-2 63q-2 70 -2 181q32 -2 48 -2q56 0 109.5 9.5
t89.5 32.5q40 25 68 65.5t28 101.5zM424 500q0 -49 -17.5 -80.5t-46.5 -47.5t-63.5 -21.5t-75.5 -5.5h-16h-15v79q-1 51 -1 75q0 26 1 74v65q25 4 58 4q42 0 80 -10.5t62 -33.5q18 -17 26 -42t8 -56z" />
    <glyph glyph-name="Q" unicode="Q" horiz-adv-x="889" 
d="M818 -150q-18 8 -30 14.5t-32 18.5t-48 30l-84 54q-12 8 -25.5 18.5t-13.5 14.5q0 1 2 3q46 16 88.5 45t76.5 72t54 100.5t20 127.5q0 78 -26.5 142t-76 110.5t-120.5 71t-157 24.5q-87 0 -158 -25.5t-121 -73t-76.5 -114t-26.5 -146.5q0 -77 25.5 -142.5t73.5 -113
t116.5 -74t152.5 -26.5q14 0 42 2q19 -14 33 -23.5t46 -30.5q1 0 21 -13q94 -60 158 -116q37 28 86 44v6zM178 337q0 81 22 142t60 99t85.5 56.5t99.5 18.5q28 0 58.5 -6t60.5 -19.5t57.5 -36.5t46.5 -56q24 -40 34 -92.5t10 -99.5q0 -151 -74.5 -235.5t-195.5 -84.5
q-57 0 -106 21.5t-84 62.5t-54.5 99.5t-19.5 130.5z" />
    <glyph glyph-name="R" unicode="R" horiz-adv-x="611" 
d="M596 7q-1 2 -14.5 19t-37.5 48q-32 40 -57 72t-60.5 78t-57 75t-31.5 44q34 6 64 14.5t60.5 27.5t51 53t20.5 84q0 38 -12 68t-39 52t-66 32t-123 10h-55q-42 -1 -61 -1q-49 0 -87 4l1 -25q5 -194 5 -284q0 -111 -1.5 -202t-5.5 -181l5 1q13 3 22.5 4t25.5 1q33 0 58 -6
q-4 90 -5.5 164t-1.5 171h26q64 -76 121 -152.5t124 -182.5q7 1 14 1q41 5 58 5q19 0 49 -5l10 -1v12zM430 511q0 -48 -20.5 -78.5t-50.5 -44.5t-57 -18.5t-55 -5.5h-14q-6 -1 -10 -1q-13 0 -29 2v45q-1 58 -1 92q0 91 2 136q33 5 63 5q32 0 61 -4.5t54.5 -18.5t41 -41
t15.5 -68z" />
    <glyph glyph-name="S" unicode="S" horiz-adv-x="556" 
d="M438 560q2 23 11 48t18 41q-24 16 -71 31t-99 15q-94 0 -158 -51t-64 -143q0 -36 12.5 -70t37.5 -54q10 -9 19.5 -15.5t23.5 -13.5t30 -14t73 -30l11 -5q61 -25 92.5 -54t31.5 -84q0 -54 -37.5 -93.5t-110.5 -39.5q-57 0 -100.5 28.5t-66.5 75.5h-13v-1q-1 -17 -5 -39
t-13 -54q38 -28 84 -41.5t98 -13.5q64 0 112 19.5t79 52t45.5 72t14.5 79.5q0 35 -12.5 69t-43.5 59q-13 11 -24.5 18.5t-27.5 15t-36.5 15.5t-67.5 27l-7 2q-26 10 -44 19t-35 23t-27.5 35t-10.5 49q0 16 5.5 35t19.5 37.5t39.5 30.5t63.5 12q32 0 57 -8.5t41 -22.5
t25.5 -29.5t15.5 -32.5h14z" />
    <glyph glyph-name="T" unicode="T" horiz-adv-x="556" 
d="M231 386q0 -106 -2.5 -208.5t-8.5 -182.5q12 3 24.5 4.5t27.5 1.5q23 0 64 -6q-8 105 -8 260q0 33 1 92v77q0 69 2 207q81 -1 132.5 -4.5t80.5 -9.5q0 2 -1 4q-3 17 -3 31q0 17 4 35q-41 -4 -104.5 -5t-163.5 -1q-91 0 -141 1q-39 0 -72.5 1.5t-55.5 3.5v-2q4 -18 4 -33
q0 -14 -3 -31q-1 -2 -1 -4q61 13 222 14q1 -59 1.5 -117.5t0.5 -127.5z" />
    <glyph glyph-name="U" unicode="U" horiz-adv-x="778" 
d="M98 273q0 -72 8 -114t34 -77q22 -30 51.5 -49.5t62.5 -31t65.5 -16t64.5 -4.5q80 0 132.5 21t87.5 58q24 25 38.5 56.5t22 67.5t9.5 71t2 79q0 117 4 202t13 151l-3 -1q-10 -2 -18.5 -3.5t-22.5 -1.5q-15 0 -24 1.5t-20 3.5l-3 1q3 -22 6 -66t4.5 -90.5t2.5 -88t1 -55.5
q0 -13 -0.5 -37t-2 -53t-5 -60.5t-9.5 -55.5q-11 -48 -38 -78.5t-58.5 -45t-57 -18.5t-43.5 -4q-48 0 -92 18t-68 47q-28 34 -36 87t-8 158q0 63 1 130q1 53 3 111.5t5 100.5q-34 -6 -58 -6q-17 0 -56 6h-3q3 -51 4.5 -84t2.5 -69q1 -54 1 -261z" />
    <glyph glyph-name="V" unicode="V" horiz-adv-x="667" 
d="M360 108q-28 61 -60.5 141t-63.5 162.5t-55.5 155.5t-38.5 120q-14 -4 -31.5 -5t-37.5 -1q-15 0 -32.5 1.5t-26.5 4.5q27 -51 69 -150.5t87.5 -216t78.5 -205t43 -120.5q10 4 20 5t19 1q15 0 24.5 -1.5t15.5 -4.5q38 105 85.5 222.5t90.5 217.5t74.5 169t40.5 83
q-8 -3 -22 -4.5t-27 -1.5q-23 0 -41 6l-3 -10q-8 -30 -14.5 -52.5t-18.5 -59.5q-23 -70 -43.5 -126.5t-40.5 -107.5t-41.5 -103t-50.5 -120z" />
    <glyph glyph-name="W" unicode="W" horiz-adv-x="1000" 
d="M737 118q-53 155 -75.5 221t-40.5 120.5t-31 95.5q-12 39 -20.5 70.5t-16.5 61.5l-5 -1q-16 -5 -33 -5q-12 0 -19.5 1t-18.5 4l-4 1q-6 -29 -19.5 -76t-30 -101t-33 -104t-27.5 -80l-73 -208q-19 59 -41.5 129.5t-46.5 149.5t-45 154.5t-34 135.5q-10 -2 -30.5 -4
t-39.5 -2q-30 0 -52 6q28 -70 60 -162t62.5 -190.5t55.5 -186t42 -153.5q11 4 22 5t20 1t20.5 -1.5t23.5 -4.5q6 25 10 37.5t8 25.5q9 30 32.5 100t49.5 144t50.5 144.5t34.5 97.5l6 -16q15 -42 38 -108t49.5 -145t50 -154t36.5 -126q10 4 21 5t20 1q10 0 22 -1.5t18 -4.5
q12 44 23 79t33 97q57 166 103 289t88 227q-8 -3 -18 -4.5t-28 -1.5q-27 0 -43 6q-11 -55 -23 -103t-23.5 -86.5t-23.5 -76t-32 -95.5z" />
    <glyph glyph-name="X" unicode="X" horiz-adv-x="611" 
d="M352 372q24 37 56 83t64.5 91t62 83t46.5 58q-10 -3 -19 -4.5t-25 -1.5q-20 0 -31 1.5t-21 4.5q-11 -26 -32 -64.5t-45.5 -77.5t-47.5 -73t-36 -53q-8 8 -24.5 35.5t-41 70.5t-47.5 86t-41 76q-13 -3 -33.5 -4.5t-35.5 -1.5q-43 0 -64 6q20 -29 49.5 -75t65.5 -102
t66 -104t46 -74q-10 -17 -41 -62.5t-67.5 -96t-74 -101t-58.5 -77.5q17 6 46 6q12 0 26 -2t23 -4q40 76 87 154.5t88 138.5q13 -21 39 -65.5t49 -85t44.5 -81t30.5 -61.5q23 6 61 6q20 0 38 -1t35 -5l-31.5 46.5t-24.5 37.5q-3 5 -5 8q-26 42 -129 208z" />
    <glyph glyph-name="Y" unicode="Y" horiz-adv-x="611" 
d="M363 227q0 40 1 55q0 1 2 5q9 22 17 36q15 28 46 80t70 114.5t67.5 106.5t41.5 63q-13 -3 -22.5 -4.5t-22.5 -1.5q-29 0 -47 6q-57 -138 -139 -280q0 -1 -4 -7q-12 -21 -22.5 -37.5t-13.5 -16.5q-5 0 -18.5 21.5t-32.5 54.5q-44 76 -75 135.5t-59 129.5q-30 -6 -70 -6
q-14 0 -31 1t-33 5q23 -37 43 -70.5t43.5 -72.5t67.5 -112.5t94 -157.5v-75q1 -26 1 -47q0 -48 -1.5 -83t-5.5 -74q11 4 23.5 5t36.5 1q30 0 50 -6q-2 30 -3 61t-2 71q-2 63 -2 100z" />
    <glyph glyph-name="Z" unicode="Z" horiz-adv-x="611" 
d="M5 -5q91 6 230 6q53 0 189 -2q57 -1 107 -2t57 -2q-4 15 -4 38q0 19 4 33q-111 -10 -208 -12.5t-215 -2.5q-6 0 -6 3t32.5 52t90.5 133t141.5 201.5t166.5 231.5v15q-27 -3 -94 -4.5t-167 -1.5q-119 0 -162 1q-31 0 -61 1.5t-62 3.5q4 -12 4 -34q0 -18 -4 -38
q61 10 157.5 13t236.5 3q-45 -68 -93.5 -139.5t-103 -150.5t-99 -142t-78.5 -110q-2 -3 -9 -12t-20 -26.5t-20 -26.5t-10 -12v-17z" />
    <glyph glyph-name="bracketleft" unicode="[" horiz-adv-x="333" 
d="M106 28q0 -46 -1 -76t-3 -65v-6q26 3 39.5 4t35.5 1q24 0 58 -1.5t52 -3.5q-3 10 -3 22q0 11 3 22q-43 -6 -105 -6q-3 107 -3.5 137.5t-0.5 66.5q-1 55 -1 217q0 108 1 148q0 25 1 67t3 94q33 0 53 -1t52 -6v2q-4 12 -4 21q0 10 4 22q-47 -5 -112 -5q-20 0 -36.5 1
t-34.5 4l2 -100v-559z" />
    <glyph glyph-name="backslash" unicode="\" horiz-adv-x="278" 
d="M225 -19q15 3 33 3q16 0 28 -3l-231 692q-13 -3 -32 -3q-18 0 -30 3z" />
    <glyph glyph-name="bracketright" unicode="]" horiz-adv-x="333" 
d="M227 540q0 46 1 76t3 65v6q-25 -3 -38.5 -4t-36.5 -1q-24 0 -58 1.5t-52 3.5q3 -10 3 -22q0 -11 -3 -22q43 6 105 6q3 -107 3.5 -137.5t0.5 -66.5q1 -55 1 -217q0 -108 -1 -148q0 -25 -1 -67t-3 -94q-33 0 -53 1t-52 6l1 -2q3 -12 3 -21q0 -10 -4 -22q48 5 112 5
q20 0 36.5 -1t34.5 -4l-2 100v559z" />
    <glyph glyph-name="asciicircum" unicode="^" horiz-adv-x="593" 
d="M96 241h69l130 339l133 -339h69l-169 418h-63z" />
    <glyph glyph-name="underscore" unicode="_" 
d="M0 -125h500v50h-500v-50z" />
    <glyph glyph-name="grave" unicode="`" horiz-adv-x="278" 
d="M212 549l-135 133q-25 25 -32.5 30.5t-18.5 5.5q-14 0 -24 -10.5t-10 -24.5q0 -8 3.5 -15.5t14.5 -14.5l167 -104h35z" />
    <glyph glyph-name="a" unicode="a" 
d="M103 361v1q5 11 12 22.5t19.5 23.5t33 19.5t49.5 7.5q50 0 81 -29.5t31 -79.5q0 -21 -8 -32t-29 -16l-87 -19q-41 -9 -67 -17t-49 -23t-36.5 -40t-13.5 -63q0 -22 7.5 -45t24 -43t43 -32.5t63.5 -12.5q52 0 86 19t65 51q8 -32 29 -48.5t47 -16.5q18 0 34 5.5t38 16.5
l-1 28q-12 -5 -25 -5q-26 0 -31.5 22t-5.5 95q0 16 2 86q1 34 1.5 59.5t0.5 34.5q0 42 -10.5 67.5t-30.5 44.5q-27 25 -62.5 35t-71.5 10q-54 0 -91.5 -17t-70.5 -44l-4 -65h27zM327 135q0 -40 -33 -67.5t-73 -27.5q-32 0 -58.5 20t-26.5 64q0 23 6.5 40t26 32t58 27.5
t100.5 21.5v-110z" />
    <glyph glyph-name="b" unicode="b" horiz-adv-x="611" 
d="M109 -5q9 13 24 30t29 27q33 -33 68.5 -52.5t92.5 -19.5q55 0 100 19.5t76.5 55.5t48 84t16.5 104q0 115 -65.5 179t-158.5 64q-35 0 -63 -9.5t-47 -23.5t-31.5 -28.5t-21.5 -28.5q0 20 1 40q1 91 1.5 117.5t1 49t2.5 61t3 69.5q-25 -6 -52 -6q-18 0 -54 6l1 -21
q3 -38 3.5 -56t0.5 -41q2 -57 2 -128.5v-168.5q0 -95 -1.5 -177.5t-5.5 -145.5h29zM316 24q-74 0 -110 54.5t-36 144.5q0 64 11.5 101t32.5 62q19 24 46.5 36.5t58.5 12.5q24 0 48.5 -9.5t46.5 -31.5t35.5 -61t13.5 -94q0 -43 -8.5 -81.5t-26 -68.5t-46 -47.5t-66.5 -17.5z
" />
    <glyph glyph-name="c" unicode="c" 
d="M461 82q-25 -27 -63 -40.5t-73 -13.5q-26 0 -55 8.5t-56.5 31.5t-45.5 66t-18 108q0 95 43.5 149.5t125.5 54.5q16 0 32.5 -3t33 -11.5t31.5 -25t25 -43.5h12v2q8 47 22 83q-69 40 -165 40q-123 0 -193.5 -69t-70.5 -185q0 -49 15 -94t47.5 -81t83 -56.5t119.5 -20.5
q46 0 84.5 11t63.5 28v1q1 14 3 27t8 30z" />
    <glyph glyph-name="d" unicode="d" horiz-adv-x="611" 
d="M44 232q0 -63 19.5 -111.5t52 -79t71.5 -45.5t79 -15q54 0 100 25t70 70q0 -44 -3 -81h2q26 6 47 6q19 0 43 -5l4 -1q-1 72 -2 158t-1 159q0 221 10 421h-2q-30 -6 -53 -6q-15 0 -24.5 1.5t-22.5 3.5l-3 1q3 -50 4 -104.5t1 -124.5q0 -1 -1 -55v-53q-14 36 -56.5 64.5
t-106.5 28.5q-49 0 -90.5 -18t-72.5 -51.5t-48 -81.5t-17 -106zM284 31q-25 0 -49.5 11.5t-44 36t-31.5 64.5t-12 94q0 25 3 54t16.5 63.5t43.5 59t80 24.5q38 0 70.5 -18t55.5 -61q13 -25 17.5 -53.5t4.5 -63.5q0 -65 -11.5 -99.5t-29.5 -59.5q-18 -24 -46 -38t-67 -14z
" />
    <glyph glyph-name="e" unicode="e" horiz-adv-x="556" 
d="M508 238q0 41 -6.5 80.5t-28 78.5t-67 64t-117.5 25q-59 0 -105 -19.5t-76 -54.5t-44.5 -81t-14.5 -99q0 -116 65.5 -183t179.5 -67q118 0 186 65v8q2 28 7 52l-12 3q-8 -12 -20 -24.5t-31 -25.5t-46.5 -22t-61.5 -9q-15 0 -31 2t-35 9.5t-38.5 24t-35.5 42.5
q-17 30 -22 63t-5 68h359zM150 280q7 78 41 122t97 44q42 0 67 -19.5t36.5 -47t14 -52t2.5 -47.5h-258z" />
    <glyph glyph-name="f" unicode="f" horiz-adv-x="333" 
d="M333 732q-12 3 -27 3q-35 0 -69.5 -20t-62 -57t-44 -86.5t-18.5 -106.5q-29 0 -85 2q0 -2 1 -5q1 -12 1 -18t-1 -17q-1 -2 -1 -4q56 2 84 2q3 -96 3 -165q0 -61 -2 -134q-2 -40 -4 -74.5t-4 -56.5l14 2q24 4 40 4t41 -4q9 -2 12 -2q-2 24 -3.5 59t-2.5 84q-1 53 -1 124
l-1 163q35 0 105 -2q-2 12 -2 19q0 5 1 17q0 2 1 8h-3q-66 -2 -104 -2q-4 14 -8.5 46t-4.5 57q0 14 1.5 27.5t8.5 27.5t23 24t42 10q23 0 57 -12l7 4z" />
    <glyph glyph-name="g" unicode="g" horiz-adv-x="556" 
d="M65 325q0 -48 23.5 -84.5t73.5 -55.5q-9 -2 -22 -8.5t-26.5 -18t-23 -30t-9.5 -41.5q0 -27 15.5 -49t58.5 -34q-1 0 -2 -1q-15 -5 -31.5 -13.5t-34 -23.5t-30 -38.5t-12.5 -54.5q0 -27 11 -53t36 -47.5t66.5 -35t98.5 -13.5q74 0 126.5 22t82 55.5t42.5 70t13 67.5
q0 59 -40 94q-19 18 -48.5 28t-87.5 11h-34q-26 -1 -37 -1q-40 0 -64 4.5t-35 11.5t-14.5 16t-3.5 21q0 20 11.5 34t32.5 14l14 -1q20 -1 36 -2t20 -1q89 0 145 43.5t56 120.5q0 59 -42 96h52t40 -2q0 3 -1 9q-2 11 -2 17q0 5 2 17q1 5 1 8q-34 -3 -49 -3.5t-42 -0.5
q-30 0 -47.5 1.5t-56.5 8.5q-29 5 -67 5q-84 0 -139.5 -43t-55.5 -120zM264 202q-46 0 -75 30t-29 90q0 19 3.5 40.5t14.5 42.5t33.5 35t57.5 14q44 0 76 -29.5t32 -90.5q0 -23 -5.5 -45.5t-18 -42.5t-35 -32t-54.5 -12zM278 -235q-71 0 -114.5 32t-43.5 87q0 40 19 64
t46 35t49.5 13.5t41.5 2.5q27 0 54.5 -4.5t52 -16t40 -33t15.5 -54.5q0 -53 -42.5 -89.5t-117.5 -36.5z" />
    <glyph glyph-name="h" unicode="h" horiz-adv-x="611" 
d="M182 485q1 40 2 100v36q0 21 1.5 53.5t3.5 58.5q-3 0 -12 -2q-26 -4 -42 -4q-18 0 -41 4q-6 1 -11 2q0 -14 1 -27q2 -69 3 -99q1 -55 1 -136v-217q0 -55 -2 -123.5t-5 -135.5q12 3 23.5 4.5t28.5 1.5q32 0 54 -6v4q-4 70 -5 90q-2 57 -2 154q0 62 8.5 90t25.5 48t42.5 32
t59.5 12q40 0 63.5 -15.5t35 -42.5t14.5 -58.5t3 -78.5q0 -41 -1 -84q-1 -34 -3 -76t-5 -75q12 3 23.5 4.5t29.5 1.5t29 -1.5t22 -4.5q-1 5 -1 14t-1 37q-1 34 -1 53q0 17 1 67t2 89q1 56 1 57q0 29 -5 56.5t-21.5 55t-52.5 45t-93 17.5q-66 0 -109.5 -28t-66.5 -70z" />
    <glyph glyph-name="i" unicode="i" horiz-adv-x="278" 
d="M96 249q0 -54 -2 -123t-5 -131q13 3 23 4.5t29 1.5q18 0 28 -1.5t21 -4.5l-3 67q-3 92 -3.5 110t-0.5 44q0 101 2 166q0 22 1 37.5t3 50.5v9q-22 -6 -52 -6q-16 0 -27 1.5t-22 4.5q4 -49 6 -101t2 -129zM196 643q0 23 -16 39t-39 16q-22 0 -38 -16t-16 -39q0 -22 16 -38
t38 -16q23 0 39 16t16 38z" />
    <glyph glyph-name="j" unicode="j" horiz-adv-x="278" 
d="M197 643q0 23 -16 39t-39 16q-22 0 -38 -16t-16 -39q0 -22 16 -38t38 -16q23 0 39 16t16 38zM21 -264q44 6 75 25t48 43t24.5 44.5t11.5 38.5v0q4 18 5.5 30t2.5 37q1 35 1 208q0 117 1 169q1 31 3 76t3 72q-32 -6 -54 -6q-24 0 -54 6q4 -69 7 -148t3 -139
q0 -87 -0.5 -172.5t-1.5 -108.5q-4 -44 -12 -71.5t-18.5 -42t-21 -20.5t-26.5 -11z" />
    <glyph glyph-name="k" unicode="k" horiz-adv-x="556" 
d="M526 4l-88 93l-156 183l228 199q-26 -6 -55 -6q-31 0 -49 6q-16 -22 -39.5 -48.5t-48.5 -51.5t-47.5 -46t-49.5 -46l-3 -3q-12 -10 -17 -14t-7 -4q-8 0 -8 8v28q-1 20 -1 33q0 34 2 91q1 63 1 87q0 89 9 220h-2q-27 -6 -50 -6t-53 6q3 -77 3.5 -165t0.5 -213
q0 -240 -4 -360q21 6 50 6q23 0 53 -6q-1 6 -1.5 16.5t-2.5 34.5t-3 44.5t-1 36.5l-1 88q0 17 7 17q5 0 11.5 -4.5t13.5 -11.5l14 -16q60 -68 94 -109t73 -96q34 6 63 6q30 0 64 -6v9z" />
    <glyph glyph-name="l" unicode="l" horiz-adv-x="278" 
d="M93 380q0 -199 -1 -251q0 -34 -1.5 -64l-3.5 -70v0q16 4 25.5 5.5t25.5 1.5q18 0 29 -1.5t25 -5.5q-3 65 -4 101.5t-2 73.5q-2 81 -2 188q0 119 2 197q0 37 1.5 85.5t3.5 90.5v2h-3q-33 -6 -50 -6q-18 0 -50 6h-2q3 -48 4 -70.5t1 -55.5q1 -40 2 -214v-13z" />
    <glyph glyph-name="m" unicode="m" horiz-adv-x="889" 
d="M294 427q27 0 51.5 -10.5t37.5 -38.5q5 -12 8.5 -33t5.5 -46.5t2.5 -50t0.5 -39.5q0 -54 -2 -111t-6 -103q11 3 21 4.5t29 1.5q20 0 30.5 -1.5t23.5 -4.5q-4 71 -6 134t-2 115q0 33 3.5 62t15 57t36.5 46t66 18q24 0 46 -9t36 -33q7 -11 10.5 -21.5t5.5 -27.5t3 -47.5
t1 -79.5q0 -62 -1.5 -105t-7.5 -109q26 6 51 6q22 0 53 -6q-6 114 -6 172q0 22 1 116q1 47 1 52q0 27 -6 52t-24 47q-24 30 -60.5 41t-68.5 11q-48 0 -93 -22t-72 -68q-19 46 -57.5 68t-91.5 22q-43 0 -83 -20t-71 -70q0 26 2 49t4 38q-2 0 -13 -2q-24 -4 -38 -4t-35 4
q-9 1 -14 2l2 -51q0 -7 1.5 -53.5t2.5 -69.5q1 -35 1 -82q0 -40 -1 -72q0 -13 -1 -44t-2 -56l-2 -60q32 6 52 6q22 0 52 -6q-5 50 -7 99t-2 99q0 84 4.5 121t22.5 64q17 26 39.5 37.5t50.5 11.5z" />
    <glyph glyph-name="n" unicode="n" horiz-adv-x="611" 
d="M91 270q0 -102 -2.5 -158.5t-7.5 -116.5q30 6 53 6q25 0 53 -6l-1 12q-3 37 -5 72.5t-2 81.5q0 28 0.5 53t2 53t5.5 52.5t10 36.5q37 69 119 69q40 0 63.5 -15.5t35 -42.5t14.5 -58.5t3 -78.5q0 -41 -1 -84q-1 -34 -3 -76t-5 -75q12 3 23.5 4.5t29.5 1.5t29 -1.5t22 -4.5
q-1 5 -1 14t-1 37q-1 34 -1 53q0 17 1 67t2 89q1 56 1 57q0 29 -5 56.5t-21.5 55t-52.5 45t-93 17.5q-65 0 -109 -28.5t-67 -69.5q1 20 1.5 24t1.5 26q2 42 2 45q-6 -1 -7 -1q-25 -5 -42 -5q-16 0 -41 4l-9 2q1 -19 2 -49q3 -114 3 -164z" />
    <glyph glyph-name="o" unicode="o" horiz-adv-x="611" 
d="M302 487q-114 0 -184 -68.5t-70 -184.5q0 -73 23.5 -123t61 -78.5t81.5 -40t88 -11.5q57 0 105 18t83 52t54.5 82t19.5 107q0 48 -14.5 91.5t-46.5 79t-82.5 56t-118.5 20.5zM308 447q46 0 77 -20.5t47.5 -53t23 -68t6.5 -69.5q0 -99 -43.5 -157t-115.5 -58
q-70 0 -111.5 56.5t-41.5 159.5q0 24 3.5 54.5t18.5 67t48 62.5t88 26z" />
    <glyph glyph-name="p" unicode="p" horiz-adv-x="611" 
d="M564 237q0 64 -19.5 112t-52.5 79t-72 45.5t-78 14.5q-38 0 -68 -10.5t-50 -26t-31 -29.5t-21 -30q0 20 0.5 37t3.5 54q-28 -6 -49 -6t-49 6q5 -242 5 -359q0 -212 -11 -391q13 3 24.5 4.5t29.5 1.5q17 0 28.5 -1.5t23.5 -4.5q-2 27 -2.5 51.5t-1.5 68.5q-1 58 -1 220
q14 -36 56.5 -64.5t106.5 -28.5q49 0 91 18t72.5 51.5t47.5 81.5t17 106zM324 438q26 0 50 -11.5t44 -36t31.5 -64.5t11.5 -94q0 -25 -3 -53.5t-16.5 -63.5t-44 -59.5t-79.5 -24.5q-65 0 -106 49q-19 23 -30 55t-11 91q0 67 11 101.5t30 58.5t46.5 38t65.5 14z" />
    <glyph glyph-name="q" unicode="q" horiz-adv-x="611" 
d="M46 237q0 -58 17 -105.5t47.5 -81.5t73 -52t91.5 -18q66 0 108 29t55 64q0 -160 -1 -211q0 -37 -1 -69t-3 -60q23 6 52 6q32 0 54 -6q-4 60 -6 101t-3 85q-2 68 -2 224q0 155 1 231q1 32 2 57.5t2 46.5v5q-28 -6 -49 -6q-28 0 -49 6q0 -6 1 -14q3 -45 3 -77l-1 1
q-12 21 -24 35.5t-35 28.5q-50 31 -110 31q-40 0 -79 -15t-72 -46t-52.5 -78.5t-19.5 -111.5zM149 238q0 92 38 146t103 54q36 0 70.5 -17.5t56.5 -61.5q12 -24 17.5 -58t5.5 -65q0 -66 -11.5 -106t-50.5 -70q-17 -13 -37 -21t-49 -8q-50 0 -80 24.5t-43.5 59.5t-16.5 65
t-3 58z" />
    <glyph glyph-name="r" unicode="r" horiz-adv-x="389" 
d="M363 393q-2 16 -2 28q0 31 9 65h-9q-6 1 -9 1q-37 0 -65 -12t-47.5 -30.5t-31 -37t-19.5 -37.5q0 24 1.5 50.5t6.5 62.5q-24 -6 -51 -6q-28 0 -51 6q1 -10 1 -15q4 -60 5.5 -105t1.5 -113q0 -59 -0.5 -95.5t-2 -62.5t-3 -45t-5.5 -48v-4q12 3 22.5 4.5t27.5 1.5
q19 0 30.5 -1.5t23.5 -4.5v9q-1 22 -1.5 38t-3.5 61q-1 21 -1 65q0 45 0.5 74.5t2 48t5 30t8.5 23.5q11 20 35.5 38.5t62.5 18.5q18 0 29 -3t23 -10z" />
    <glyph glyph-name="s" unicode="s" horiz-adv-x="444" 
d="M346 370q2 24 7 43.5t13 40.5v0q-27 14 -57 23.5t-75 9.5q-49 0 -83 -14.5t-53.5 -37t-28 -48t-8.5 -49.5q0 -31 11 -54t28.5 -38.5t35.5 -24.5t39 -16q47 -15 70.5 -24t39 -19t22.5 -24t7 -35q0 -40 -29 -61t-72 -21q-41 0 -73 19q-23 14 -34 29.5t-19 34.5l-1 2l-12 -3
q-3 -17 -9 -41t-14 -39q18 -13 57 -27.5t91 -14.5q50 0 87 14t60 37t34 51.5t11 58.5q0 36 -12 60t-33.5 38.5t-46 23t-69.5 20.5q-15 4 -31 10t-30.5 16.5t-23.5 26t-9 35.5q0 33 24.5 54t68.5 21q17 0 34 -3.5t31 -13.5q19 -13 26.5 -27.5t12.5 -31.5v-1h13z" />
    <glyph glyph-name="t" unicode="t" horiz-adv-x="333" 
d="M104 268q-2 -75 -2 -93v-35q0 -43 3.5 -62.5t10.5 -31.5q15 -26 41.5 -43t65.5 -17q20 0 44.5 5t40.5 14q0 3 -1 9v6v5q1 5 1 8l-6 -1q-35 -5 -40 -5q-41 0 -55.5 30t-14.5 95q0 160 5 274q23 0 50 -1t47 -2h11v2q-2 12 -2 22q0 9 2 22v3q-57 -5 -108 -5q0 12 1 16
q1 50 1.5 63.5t1.5 31.5t3 46q-11 -6 -22.5 -12.5t-27 -13.5t-29 -12.5t-23.5 -7.5q2 -40 2 -59.5v-51.5q-22 0 -48 2q-21 2 -32 3v-2q2 -14 2 -23q0 -11 -2 -25q14 1 20 2q25 1 32.5 1.5t27.5 0.5v-158z" />
    <glyph glyph-name="u" unicode="u" horiz-adv-x="611" 
d="M290 48q-38 0 -60.5 17.5t-32 47.5t-12 65.5t-2.5 93.5q0 44 2.5 101t6.5 110q-22 -6 -50 -6t-51 6q2 -15 3 -47t1 -63q0 -13 -1 -50t-2 -62q-1 -45 -1.5 -71t-0.5 -30q0 -26 5.5 -54.5t23.5 -56t53 -45.5t90 -18q18 0 38 4t42 15t44 32t40 53q0 -8 -1 -17
q-1 -31 -1.5 -47t-2.5 -31q15 3 24.5 4.5t22.5 1.5q16 0 41 -5q4 0 8 -1q-1 17 -2.5 36.5t-1.5 44.5q-2 50 -2 153q0 68 3 128.5t7 125.5h-2q-26 -6 -47 -6q-24 0 -54 6q1 -18 2.5 -51.5t2.5 -75.5q1 -74 1 -132q0 -31 -3 -56.5t-15 -49.5q-14 -28 -43.5 -49t-72.5 -21z" />
    <glyph glyph-name="v" unicode="v" 
d="M254 132q-11 25 -27 66.5t-36 95t-36.5 100.5t-30.5 89q-24 -6 -62 -6q-28 0 -57 6q67 -141 115.5 -257t85.5 -231q8 3 16 4.5t22 1.5q23 0 37 -6q17 55 43 121t54.5 130t57 123.5t55.5 113.5l-9 -2q-20 -4 -37 -4q-14 0 -40 6q-10 -35 -29.5 -93t-37 -107.5t-34 -93.5
t-23.5 -58l-11 -23q-2 -2 -3 -2t-3 2z" />
    <glyph glyph-name="w" unicode="w" horiz-adv-x="778" 
d="M378 348q4 0 20 -45l1 -3q25 -68 35.5 -98.5t22.5 -65.5t23 -69t22 -72q20 6 36 6q9 0 18 -2t16 -4q21 57 49 128t56 141t54 130t42 89q-17 -5 -43 -5q-21 0 -36 5q-21 -75 -43 -143.5t-40.5 -119t-30.5 -77.5t-15 -27q-4 0 -13.5 24t-26.5 75q-6 17 -21 64
q-25 76 -37.5 116.5t-22.5 87.5q-5 -1 -6 -1q-19 -5 -35 -5q-12 0 -20 1.5t-22 4.5q-18 -72 -38.5 -138.5t-39 -117.5t-31.5 -81t-17 -30q-2 0 -7.5 13t-13 34.5t-15 44l-10.5 31.5t-4 11q-59 178 -70 233q-29 -6 -58 -6q-36 0 -58 6q21 -50 50 -125.5t56.5 -149.5t48 -134
t24.5 -79q14 6 35 6q20 0 38 -6q24 72 41 122t50 144q12 34 14 40q7 21 13 34t9 13z" />
    <glyph glyph-name="x" unicode="x" 
d="M287 262q22 27 36.5 45.5t24.5 31t28.5 34.5t38.5 45l11 13q17 19 26.5 29.5t15.5 16.5l5 6q-10 -2 -22.5 -4t-25.5 -2q-14 0 -23 1.5t-17 4.5q-24 -40 -54 -85t-62 -91q-5 -7 -7 -9q-35 44 -61.5 86t-51.5 87l-7 12q-16 -3 -29 -4.5t-31 -1.5q-31 0 -71 6
q22 -28 48.5 -62t54.5 -71t51 -67t41 -56q-14 -22 -37.5 -52t-50.5 -62t-52.5 -60.5t-51.5 -57.5q11 3 20.5 4.5t22.5 1.5q22 0 44 -6q9 15 23.5 37t33.5 50.5t37.5 56t34.5 49.5q80 -112 126 -193h3q19 3 32.5 4.5t26.5 1.5q29 0 61 -6q-16 23 -40 57t-53.5 75.5
t-55.5 77.5t-43 57z" />
    <glyph glyph-name="y" unicode="y" 
d="M218 -18q-39 -80 -125 -240l-2 -4q27 6 45 6q21 0 35 -6q29 97 70.5 196.5t110.5 250.5l3 6q12 24 34 72q4 9 34 74.5t41.5 88.5t17.5 34.5t13 22.5q-16 -6 -40 -6q-22 0 -44 6q-17 -58 -39.5 -122t-44.5 -120t-38 -90t-20 -34t-9.5 9.5t-11.5 24.5q-17 42 -37.5 95
t-37 97.5t-31 84t-19.5 55.5q-13 -4 -23.5 -5t-30.5 -1q-22 0 -35.5 1.5t-27.5 4.5q12 -25 19.5 -40.5t13.5 -29.5l13.5 -31.5t18.5 -45.5q12 -28 23 -54.5t31 -72.5q19 -46 53 -128z" />
    <glyph glyph-name="z" unicode="z" 
d="M20 -5q65 6 219 6q69 0 137.5 -2t91.5 -4q-4 26 -4 37q0 9 4 25v2q-72 -8 -144 -10.5t-165 -2.5q12 26 32 53.5t39 52.5v0q72 94 115 149t65 82.5t33.5 40t30.5 32.5v18q-94 -6 -235 -6q-40 0 -68.5 1.5t-57.5 4.5l-7 1q-33 3 -51 6q4 -20 4 -35q0 -11 -3 -28l-1 -6
q22 5 53.5 8t62 4.5t56 2t34.5 0.5q19 0 35 -0.5t34 -2.5q-14 -19 -34 -47q-19 -26 -33.5 -45t-33.5 -45t-28 -38l-12 -16q-71 -91 -169 -212v-26z" />
    <glyph glyph-name="braceleft" unicode="{" horiz-adv-x="407" 
d="M38 263q48 -4 76 -16.5t40.5 -30.5t15.5 -37t3 -47v-53q0 -46 5.5 -77.5t24.5 -58t59 -43.5t108 -21v40q-45 3 -71.5 17t-38.5 34t-14.5 41t-2.5 51v49q0 38 -3 62.5t-15 48t-38.5 40t-72.5 21.5q46 5 73 22t39 41.5t14.5 48.5t2.5 60v42q0 34 3 56t14.5 42.5t38 34.5
t71.5 17v40q-70 -4 -111.5 -22.5t-59.5 -47t-22 -59t-4 -78.5v-46q0 -40 -5.5 -60.5t-23.5 -35.5q-14 -12 -42 -22.5t-64 -12.5v-40z" />
    <glyph glyph-name="bar" unicode="|" horiz-adv-x="222" 
d="M79 -250h65v1000h-65v-1000z" />
    <glyph glyph-name="braceright" unicode="}" horiz-adv-x="407" 
d="M370 303q-48 4 -76 17t-40.5 30.5t-15.5 36.5t-3 47v53q0 46 -5.5 77.5t-24 58t-59 43.5t-108.5 21v-40q45 -3 71.5 -17t38.5 -34t14.5 -41t2.5 -51v-49q0 -38 2.5 -62.5t14.5 -48t39 -40t73 -21.5q-46 -5 -73 -22t-39 -41t-14.5 -48.5t-2.5 -60.5v-42q0 -34 -3 -56
t-14.5 -42.5t-38 -34.5t-71.5 -17v-40q70 4 111.5 22.5t59.5 47t22 59t4 78.5v46q0 40 5.5 60.5t23.5 35.5q14 12 42.5 22.5t63.5 12.5v40z" />
    <glyph glyph-name="asciitilde" unicode="~" horiz-adv-x="593" 
d="M79 173q6 40 28.5 59.5t48.5 19.5q24 0 54 -9t77 -26l4 -1q47 -17 81.5 -27t62.5 -10q55 0 87.5 41t36.5 98h-45q-6 -36 -25.5 -57.5t-51.5 -21.5q-23 0 -54.5 9.5t-80.5 27.5q-48 17 -81.5 26.5t-62.5 9.5q-55 0 -87.5 -41t-36.5 -98h45z" />
    <glyph glyph-name="exclamdown" unicode="&#xa1;" horiz-adv-x="444" 
d="M216 356q27 0 45.5 19t18.5 45t-18.5 44.5t-45.5 18.5q-26 0 -44.5 -18.5t-18.5 -44.5q0 -27 18.5 -45.5t44.5 -18.5zM232 298h-7q-4 -1 -6 -1t-7 1h-7l-40 -404q-3 -23 -3 -38q0 -9 1.5 -20t6.5 -23.5t17 -21t31 -8.5t31 8.5t17 21t6.5 23t1.5 20.5q0 8 -2 30l-1 7z" />
    <glyph glyph-name="cent" unicode="&#xa2;" 
d="M378 435q29 -15 42.5 -33.5t20.5 -38.5h12v2q8 47 22 83l-2 1q-18 10 -34.5 17t-44.5 13q5 17 8 24.5t6.5 16.5t11 26t18.5 44q-13 1 -24 4.5t-26 13.5q-9 -34 -19.5 -68.5t-17.5 -53.5q-16 2 -41 2q-123 0 -193.5 -69.5t-70.5 -185.5q0 -55 15.5 -96.5t38.5 -68.5
t45 -41.5t40 -22.5q-1 -1 -2 -5q-1 -3 -2 -4q-6 -16 -14 -36q-16 -40 -23 -59q16 -2 26 -5t23 -12q11 40 17.5 62t14.5 46q2 0 8 -1q42 -8 79 -8q45 0 83.5 11t63.5 28v1q1 14 3 27t8 30l-9 3q-25 -26 -63 -40t-73 -14q-25 0 -43 5t-35 13q-1 0 -3 1zM209 73
q-11 10 -19.5 21t-18 30t-15.5 48t-6 66q0 29 5 59.5t18.5 61t40.5 53t68 30.5q1 0 7 1q18 3 31 3h9q7 -1 8 -1z" />
    <glyph glyph-name="sterling" unicode="&#xa3;" 
d="M463 564q3 52 22 92q-35 16 -66 22t-59 6q-68 0 -117 -26.5t-79 -64.5q-21 -27 -32 -63.5t-11 -91.5q0 -29 5 -66v-3h-4q-34 1 -51.5 2t-47.5 4l1 -2q3 -16 3 -24q0 -9 -4 -25q4 0 13 1q28 1 43 1.5t50 0.5q7 -63 7 -110q0 -67 -25.5 -109.5t-75.5 -42.5q-10 0 -20 2
q3 -9 4 -16.5t1 -19.5q0 -13 -1 -20t-4 -16q18 0 40 1t35 2q11 1 62 3q26 2 53 2h70q36 0 74.5 -1t63.5 -2.5t47.5 -3t27.5 -1.5q-3 13 -4 22t-1 22t1 20.5t3 21.5q1 2 1 3q-18 -2 -45.5 -3t-65.5 -2q-65 -2 -128 -2h-125l1 1q21 18 39.5 42t35.5 66q15 37 19 70t4 71
q62 0 90.5 -1t69.5 -5v2q-4 14 -4 24q0 11 4 27q-37 -2 -72 -3.5t-87 -1.5q-2 24 -3 42t-1 48t2.5 57t14 57t37 50t68.5 20q38 0 66.5 -20.5t40.5 -58.5h14z" />
    <glyph glyph-name="currency" unicode="&#xa4;" 
d="M16 139l43 -43l65 64q56 -42 126 -42q67 0 126 43l65 -65l43 43l-64 65q16 23 29 53t13 72q0 69 -42 127l64 64l-43 43l-64 -64q-30 20 -58.5 31t-68.5 11q-44 0 -72.5 -11.5t-54.5 -30.5l-64 64l-43 -43l64 -64q-42 -58 -42 -126q0 -42 12 -70.5t28 -53.5q1 -1 2 -3z
M250 476q61 0 104 -42.5t43 -104.5q0 -61 -43 -103.5t-104 -42.5q-30 0 -57 11.5t-47 31.5t-31.5 47t-11.5 56q0 61 43 104t104 43z" />
    <glyph glyph-name="yen" unicode="&#xa5;" 
d="M205 200h-61.5t-74.5 2q4 -6 4 -22q0 -15 -4 -28q24 1 66 2t70 1q0 -85 -8 -160q11 4 23 5t37 1q30 0 49 -6q0 10 -2 40q-4 95 -4 120q16 0 67 -1t69 -2v2q-4 12 -4 21q0 14 4 27q-22 -1 -44 -1.5t-92 -0.5v65q45 0 119 -2h17q-4 14 -4 25q0 12 4 25q-64 -3 -128 -3
q6 12 11 20l8 16l45 88q22 43 67 134q32 67 51 104q-12 -4 -20.5 -5t-23.5 -1q-30 0 -48 6q-22 -69 -41 -125t-36 -103t-29.5 -74t-18.5 -27q-7 0 -25.5 38.5t-41.5 95t-43.5 112t-29.5 83.5q-12 -3 -27.5 -4.5t-29.5 -1.5t-31 1t-35 5q32 -62 61 -117q44 -86 55.5 -108.5
t36.5 -73.5q14 -28 34 -63q-31 0 -91 2q-26 1 -37 1q1 -4 1 -5q3 -10 3 -17q0 -16 -4 -28q45 2 136 2v-65z" />
    <glyph glyph-name="brokenbar" unicode="&#xa6;" horiz-adv-x="222" 
d="M79 -175h65v350h-65v-350zM79 325h65v350h-65v-350z" />
    <glyph glyph-name="section" unicode="&#xa7;" 
d="M381 555q6 24 12 40.5t19 33.5q-20 17 -43.5 27.5t-44.5 15t-36 5.5t-26 1q-85 0 -130 -46.5t-45 -115.5q0 -34 10.5 -53.5t24.5 -33.5l1 -1l-1 -1q-14 -10 -25.5 -19.5t-21.5 -23.5q-29 -38 -29 -89q0 -35 12 -60.5t33 -43.5t45.5 -30.5t61.5 -28.5q91 -39 121.5 -63
t30.5 -72t-33 -75t-84 -27q-48 0 -85 27t-56 77h-10q0 -31 -4 -54.5t-12 -44.5q19 -16 60 -31.5t91 -15.5q47 0 85.5 14.5t66 40.5t41.5 58.5t14 68.5q0 24 -9 50t-36 50q35 31 55 64t20 70q0 35 -15 65t-38 44q-25 16 -83 40q-9 3 -13 5l-6 2q-78 33 -111.5 57.5
t-33.5 68.5q0 41 30 65t78 24q44 0 72.5 -25t38.5 -60h8zM353 154q-20 12 -35 19.5t-63 27.5l-37 17q-26 12 -44.5 21.5t-35 22.5t-27.5 31t-11 40q0 23 11.5 43t31.5 32q35 -22 60 -34.5t67 -31.5l5 -2q62 -25 91 -47t29 -62q0 -27 -13 -45t-29 -32v0z" />
    <glyph glyph-name="dieresis" unicode="&#xa8;" horiz-adv-x="278" 
d="M190 615q0 -20 13.5 -33.5t32.5 -13.5t33 14t14 33t-14 32.5t-33 13.5t-32.5 -13.5t-13.5 -32.5zM-6 615q0 -20 13.5 -33.5t32.5 -13.5t33 14t14 33t-14 32.5t-33 13.5t-32.5 -13.5t-13.5 -32.5z" />
    <glyph glyph-name="copyright" unicode="&#xa9;" horiz-adv-x="778" 
d="M389 696q-73 0 -138.5 -27.5t-115.5 -77t-78 -115t-28 -138.5q0 -72 27.5 -137.5t77.5 -115t116 -77.5t139 -28t139 28t116 77.5t77.5 115t27.5 137.5q0 73 -28 138.5t-78 115t-115.5 77t-138.5 27.5zM389 657q65 0 123 -24.5t101.5 -68.5t68 -102.5t24.5 -123.5
t-24 -123t-68 -102.5t-102 -69t-123 -24.5t-123 24.5t-101.5 68.5t-68 102.5t-24.5 123.5q0 66 24.5 124t68.5 102t101.5 68.5t122.5 24.5zM521 218q-27 -36 -60.5 -48.5t-61.5 -12.5q-61 0 -103.5 48.5t-42.5 136.5q0 85 38 135t103 50q39 0 72 -19.5t45 -45.5h6
q1 19 3.5 29t9.5 30v0q-31 14 -61.5 23t-71.5 9q-102 0 -155 -60t-53 -151q0 -94 53.5 -154t145.5 -60q26 0 61.5 7.5t72.5 31.5q1 30 5 49z" />
    <glyph glyph-name="ordfeminine" unicode="&#xaa;" horiz-adv-x="325" 
d="M70 616v1q8 17 23.5 30.5t50.5 13.5q28 0 48 -17.5t20 -44.5q0 -21 -24 -26l-57 -12h-1q-26 -5 -43 -10t-31.5 -14t-23.5 -25t-9 -39q0 -30 22 -54.5t68 -24.5q37 0 60 10.5t40 28.5q12 -36 50 -36q22 0 48 13l-1 21q-4 -3 -16 -3q-15 0 -18.5 12.5t-3.5 53.5q0 6 1 50
q2 47 2 58q0 25 -7 40.5t-20 26.5q-18 15 -41 21t-46 6q-38 0 -63.5 -10.5t-46.5 -26.5l-3 -43h22zM210 489q0 -24 -20 -40.5t-46 -16.5q-19 0 -35.5 11t-16.5 35q0 27 22.5 43.5t95.5 27.5v-60z" />
    <glyph glyph-name="guillemotleft" unicode="&#xab;" 
d="M215 440q-11 -19 -28 -45.5t-37.5 -56.5t-39 -55.5t-30.5 -38.5q35 -50 65 -96t60 -99q12 13 22.5 19t27.5 12q-38 48 -65.5 88.5t-49.5 76.5q10 16 27.5 41t33.5 46t32 41.5t29 35.5q-11 3 -21 9t-26 22zM372 440q-8 -15 -25.5 -42.5t-39 -58.5t-40 -56.5t-30.5 -39.5
l4 -5q35 -50 63.5 -94t57.5 -95q12 13 23 19.5t28 11.5q-63 79 -116 164q12 18 27.5 40.5t32 44.5t33 43t30.5 37h-1q-11 3 -21.5 9t-25.5 22z" />
    <glyph glyph-name="logicalnot" unicode="&#xac;" horiz-adv-x="593" 
d="M46 310h440v-191h62v251h-502v-60z" />
    <glyph glyph-name="minus" unicode="&#xad;" horiz-adv-x="593" 
d="M45 215h502v60h-502v-60z" />
    <glyph glyph-name="minus" unicode="&#x2212;" horiz-adv-x="593" 
d="M45 215h502v60h-502v-60z" />
    <glyph glyph-name="registered" unicode="&#xae;" horiz-adv-x="383" 
d="M290 422q-4 4 -17 18.5t-26.5 30t-25.5 29.5t-18 22q11 1 21.5 3.5t20.5 8t17 15t7 24.5q0 32 -25 40t-77 8q-34 0 -49 1q1 -21 1.5 -41t0.5 -57q0 -40 -0.5 -64t-2.5 -41q1 0 3 1q8 1 16 1t17 -1l6 -1q-2 28 -2.5 49t-0.5 50h7l12 -13q41 -47 68 -86l9 1q11 1 16 1
q7 0 19 -2h2zM230 571q0 -13 -7.5 -21.5t-20 -12t-23 -4.5t-23.5 -1q0 48 1 75q35 0 54 -6t19 -30zM12 516q0 -37 14 -70t38.5 -57.5t57.5 -38.5t70 -14t69.5 14t57.5 38.5t38.5 57.5t13.5 70t-13.5 70t-38.5 57.5t-58 38.5t-70 14q-36 0 -68.5 -13.5t-57.5 -38.5t-39 -57.5
t-14 -70.5zM337 516q0 -64 -41.5 -106t-104.5 -42q-62 0 -103.5 42.5t-41.5 105.5q0 62 42 105t103 43q63 0 104.5 -43t41.5 -105z" />
    <glyph glyph-name="macron" unicode="&#xaf;" horiz-adv-x="278" 
d="M6 590h266v50h-266v-50z" />
    <glyph glyph-name="degree" unicode="&#xb0;" horiz-adv-x="407" 
d="M203 677q-30 0 -57.5 -11.5t-48.5 -32.5t-33 -48.5t-12 -58.5t11.5 -58.5t33 -49t48.5 -33t58 -11.5t58.5 12t49 33t33 48.5t11.5 58.5t-11.5 58.5t-32.5 48.5t-49 32.5t-59 11.5zM203 620q40 0 67.5 -27.5t27.5 -66.5t-27.5 -67t-67.5 -28q-39 0 -66.5 27.5t-27.5 67.5
q0 39 28 66.5t66 27.5z" />
    <glyph glyph-name="plusminus" unicode="&#xb1;" horiz-adv-x="593" 
d="M263 93h66v173h218v60h-218v174h-66v-174h-218v-60h218v-173zM45 -10h502v60h-502v-60z" />
    <glyph glyph-name="twosuperior" unicode="&#xb2;" horiz-adv-x="325" 
d="M13 268q15 0 60 1q108 2 151 2q28 0 74 -3h8q-3 15 -3 30q0 16 3 28q-36 -4 -89 -4h-117l119 113q30 30 50 64.5t20 71.5q0 47 -35.5 77t-96.5 30q-32 0 -56.5 -8t-40 -20t-23 -22.5t-14.5 -21.5v-1l6 -6q18 -22 24 -37l12 2q0 43 24 62.5t52 19.5q24 0 39.5 -10t23 -25
t10 -30t2.5 -28q0 -42 -19 -74t-48 -62q-59 -61 -136 -129v-20z" />
    <glyph glyph-name="threesuperior" unicode="&#xb3;" horiz-adv-x="325" 
d="M25 336q0 -19 -1.5 -29t-6.5 -21l2 -1q22 -10 44 -16.5t57 -6.5q78 0 125 35.5t47 89.5q0 28 -12 46.5t-30.5 29.5t-37 15t-33.5 4q-3 0 -3 2t8 4l3 1q38 10 61 35.5t23 60.5q0 26 -12 44t-31.5 28.5t-41.5 15t-43 4.5q-42 -1 -67.5 -12.5t-46.5 -28.5q1 -2 2 -3
q9 -15 11.5 -22t5.5 -20l12 -1q3 25 24 41t47 16q31 0 51 -19.5t20 -50.5q0 -30 -19 -55t-58 -25q-12 0 -32 4l1 -5q1 -10 1 -16q0 -10 -2 -18q13 4 31 4q41 0 68 -21t27 -63q0 -14 -4.5 -29.5t-15.5 -29t-30 -22.5t-46 -9q-23 0 -46 9.5t-40 35.5z" />
    <glyph glyph-name="acute" unicode="&#xb4;" horiz-adv-x="278" 
d="M101 549l166 104q19 12 19 30q0 14 -10 24.5t-24 10.5q-12 0 -19.5 -5.5t-32.5 -30.5l-134 -133h35z" />
    <glyph glyph-name="mu" unicode="&#xb5;" horiz-adv-x="611" 
d="M290 48q-38 0 -60.5 17.5t-32 47.5t-12 65.5t-2.5 93.5q0 44 2.5 101t6.5 110q-22 -6 -50 -6t-51 6q3 -76 4 -165t1 -215q0 -216 -10 -370q13 3 24.5 4.5t29.5 1.5q17 0 28.5 -1.5t23.5 -4.5q-3 52 -4 106t-1 167q28 -20 75 -20q18 0 38 4t42 15t44 32t40 53q0 -8 -1 -17
q-1 -31 -1.5 -47t-2.5 -31q15 3 24.5 4.5t22.5 1.5q16 0 41 -5q4 0 8 -1q-1 17 -2.5 36.5t-1.5 44.5q-2 50 -2 153q0 68 3 128.5t7 125.5h-2q-26 -6 -47 -6q-24 0 -54 6q1 -18 2.5 -51.5t2.5 -75.5q1 -74 1 -132q0 -31 -3 -56.5t-15 -49.5q-14 -28 -43.5 -49t-72.5 -21z" />
    <glyph glyph-name="paragraph" unicode="&#xb6;" 
d="M500 623v57h-259q-74 0 -125 -22t-80 -57.5t-41 -75.5t-12 -79q0 -37 10 -74t33.5 -68.5t63.5 -53t98 -25.5v-434h69v832h120v-832h69v832h54z" />
    <glyph glyph-name="periodcentered" unicode="&#xb7;" horiz-adv-x="250" 
d="M126 310q-27 0 -45.5 -19t-18.5 -45t18.5 -44.5t45.5 -18.5q26 0 44.5 19t18.5 45t-18.5 44.5t-44.5 18.5z" />
    <glyph glyph-name="periodcentered" unicode="&#x2219;" horiz-adv-x="250" 
d="M126 310q-27 0 -45.5 -19t-18.5 -45t18.5 -44.5t45.5 -18.5q26 0 44.5 19t18.5 45t-18.5 44.5t-44.5 18.5z" />
    <glyph glyph-name="cedilla" unicode="&#xb8;" horiz-adv-x="278" 
d="M47 -204q31 -9 52.5 -12.5t34.5 -3.5q17 0 36.5 4t37.5 13t29.5 26t11.5 41q0 33 -23 51.5t-53 18.5q-15 0 -34 -5q-1 -1 -2 -1l30 67h-34l-44 -99l16 -6q14 6 28 6q24 0 35.5 -11.5t11.5 -28.5q0 -19 -15 -30.5t-43 -11.5q-27 0 -61 12z" />
    <glyph glyph-name="onesuperior" unicode="&#xb9;" horiz-adv-x="325" 
d="M217 682q-18 -12 -44.5 -26t-58.5 -28t-57.5 -24t-41.5 -15v-7q12 -6 18 -12.5t12 -16.5q9 6 24.5 15.5t33 19t29 15.5t23.5 12q0 -89 -2 -225v-29q0 -29 -1.5 -48.5t-4.5 -39.5l-1 -7q27 3 40 3t37 -3q-1 12 -1 66q0 88 1 152q0 52 1 96.5t3 66.5q0 4 1 8q0 13 2 23z
" />
    <glyph glyph-name="ordmasculine" unicode="&#xba;" horiz-adv-x="397" 
d="M368 548q0 71 -47.5 109.5t-121.5 38.5q-76 0 -123 -40t-47 -115q0 -70 47.5 -109.5t121.5 -39.5t122 41t48 115zM101 544q0 53 23.5 88.5t74.5 35.5q50 0 73.5 -36.5t23.5 -87.5q0 -48 -25 -86t-73 -38q-49 0 -73 37t-24 87z" />
    <glyph glyph-name="guillemotright" unicode="&#xbb;" 
d="M137 49q29 52 60.5 100.5t64.5 94.5q-12 14 -30 39t-39.5 56.5t-38.5 57.5t-27 43q-11 -13 -21.5 -19.5t-25.5 -11.5q11 -13 25.5 -30.5t33.5 -43.5t34 -47.5t29 -42.5q-57 -90 -115 -164q31 -11 50 -32zM295 49q29 52 60.5 100.5t64.5 94.5q-11 13 -30 38.5t-40 56
t-38 57.5t-27 44q-11 -13 -22 -19.5t-26 -11.5q11 -11 26 -30.5t32.5 -42.5t35 -47.5t29.5 -43.5q-57 -90 -116 -164q31 -11 51 -32z" />
    <glyph glyph-name="onequarter" unicode="&#xbc;" horiz-adv-x="817" 
d="M682 107q0 -32 -3 -85q-2 -21 -2 -24q4 0 14 2q14 2 21 2q12 0 29 -3l7 -1q0 11 -1 30v40l-1 39q36 0 57 -3q-3 12 -3 24t3 25q-22 -1 -33 -1q-20 -1 -24 -1v14q1 102 1 139l2 48t2 50q-15 -3 -27 -3q-18 0 -30 3q-3 -5 -32 -45t-68 -92t-68.5 -91.5t-37.5 -48.5
q0 -2 1 -7v-4q0 -1 -1 -4v-5q21 1 48 1.5t41 0.5h105zM682 151h-132q7 11 15 22.5t22 31.5l17 23q69 91 78 102v-179zM656 673q-12 -3 -28 -3q-17 0 -29 3l-438 -690q14 3 29 3q14 0 26 -3zM218 682q-19 -14 -47 -28.5t-57.5 -27t-56 -23t-42.5 -15.5v-6q18 -9 29 -28
q10 7 25 16t32 18t30.5 16t23.5 12q0 -91 -2 -227v-28q0 -29 -1.5 -48.5t-4.5 -39.5l-1 -7q27 3 40 3t37 -3q-1 12 -1 66q0 88 1 152q0 52 1 96.5t3 66.5q0 4 1 8q0 13 2 23z" />
    <glyph glyph-name="onehalf" unicode="&#xbd;" horiz-adv-x="817" 
d="M656 673q-12 -3 -28 -3q-17 0 -29 3l-438 -690q14 3 29 3q14 0 26 -3zM505 -3q15 0 60 1q108 2 151 2q28 0 74 -3h8q-3 15 -3 30q0 16 3 28q-36 -4 -89 -4h-117l119 113q30 30 50 64.5t20 71.5q0 47 -35.5 77t-96.5 30q-32 0 -56.5 -8t-40 -20t-23 -22.5t-14.5 -21.5v-1
l6 -6q18 -22 24 -37l12 2q0 43 24 62.5t52 19.5q24 0 39.5 -10t23 -25t10 -30t2.5 -28q0 -42 -19 -74t-48 -62q-59 -61 -136 -129v-20zM217 682q-18 -12 -44.5 -26t-58.5 -28t-57.5 -24t-41.5 -15v-7q12 -6 18 -12.5t12 -16.5q9 6 24.5 15.5t33 19t29 15.5t23.5 12
q0 -89 -2 -225v-29q0 -29 -1.5 -48.5t-4.5 -39.5l-1 -7q27 3 40 3t37 -3q-1 12 -1 66q0 88 1 152q0 52 1 96.5t3 66.5q0 4 1 8q0 13 2 23z" />
    <glyph glyph-name="threequarters" unicode="&#xbe;" horiz-adv-x="817" 
d="M682 107q0 -32 -3 -85q-2 -21 -2 -24q4 0 14 2q14 2 21 2q12 0 29 -3l7 -1q0 11 -1 30v40l-1 39q36 0 57 -3q-3 12 -3 24t3 25q-22 -1 -33 -1q-20 -1 -24 -1v14q1 102 1 139l2 48t2 50q-15 -3 -27 -3q-18 0 -30 3q-3 -5 -32 -45t-68 -92t-68.5 -91.5t-37.5 -48.5
q0 -2 1 -7v-4q0 -1 -1 -4v-5q21 1 48 1.5t41 0.5h105zM682 151h-132q7 11 15 22.5t22 31.5l17 23q69 91 78 102v-179zM661 673q-12 -3 -28 -3q-17 0 -29 3l-438 -690q14 3 29 3q14 0 26 -3zM25 336q0 -19 -1.5 -29t-6.5 -21l2 -1q22 -10 44 -16.5t57 -6.5q78 0 125 35.5
t47 89.5q0 28 -12 46.5t-30.5 29.5t-37 15t-33.5 4q-3 0 -3 2t8 4l3 1q38 10 61 35.5t23 60.5q0 26 -12 44t-31.5 28.5t-41.5 15t-43 4.5q-42 -1 -67.5 -12.5t-46.5 -28.5q1 -2 2 -3q9 -15 11.5 -22t5.5 -20l12 -1q3 25 24 41t47 16q31 0 51 -19.5t20 -50.5q0 -30 -19 -55
t-58 -25q-12 0 -32 4l1 -5q1 -10 1 -16q0 -10 -2 -18q13 4 31 4q41 0 68 -21t27 -63q0 -14 -4.5 -29.5t-15.5 -29t-30 -22.5t-46 -9q-23 0 -46 9.5t-40 35.5z" />
    <glyph glyph-name="questiondown" unicode="&#xbf;" horiz-adv-x="444" 
d="M242 356q26 0 44.5 18.5t18.5 45.5q0 26 -18.5 44.5t-44.5 18.5q-27 0 -45.5 -18.5t-18.5 -45.5q0 -26 19 -44.5t45 -18.5zM350 -121q-30 -52 -91 -52q-38 0 -60.5 23t-22.5 58q0 31 17 57.5t62 71.5q40 40 61.5 73t21.5 72q0 20 -6.5 39.5t-20.5 36.5t-36.5 27t-54.5 10
q-16 0 -36 -5q-2 -18 -9 -33l6 -4q18 10 33 10q22 0 35.5 -14.5t13.5 -39.5q0 -13 -3.5 -24.5t-13 -25.5t-27.5 -33.5t-50 -49.5v0q-35 -34 -57 -68t-22 -84q0 -58 41.5 -98t119.5 -40q10 0 21.5 1t28.5 4.5t35.5 11.5t34.5 21q-6 18 -7.5 24.5t-4.5 25.5v3z" />
    <glyph glyph-name="Agrave" unicode="&#xc0;" horiz-adv-x="667" 
d="M431 257l5 -11q28 -61 51.5 -119t44.5 -132q38 6 64 6q25 0 59 -6q-2 4 -40.5 89.5t-89 200.5t-97 226t-73.5 184q-12 -3 -22 -3q-7 0 -18 2l-7 1q-24 -62 -61.5 -149t-79 -180.5t-86 -192t-81.5 -178.5q5 1 11 2q19 4 33 4t31 -4l10 -2q20 78 42 137t48 118q2 5 3 7h253
zM411 307h-213l105 248zM407 727l-135 133q-25 25 -32.5 30.5t-18.5 5.5q-14 0 -24 -10.5t-10 -24.5q0 -8 3.5 -15.5t14.5 -14.5l167 -104h35z" />
    <glyph glyph-name="Aacute" unicode="&#xc1;" horiz-adv-x="667" 
d="M431 257l5 -11q28 -61 51.5 -119t44.5 -132q38 6 64 6q25 0 59 -6q-2 4 -40.5 89.5t-89 200.5t-97 226t-73.5 184q-12 -3 -22 -3q-7 0 -18 2l-7 1q-24 -62 -61.5 -149t-79 -180.5t-86 -192t-81.5 -178.5q5 1 11 2q19 4 33 4t31 -4l10 -2q20 78 42 137t48 118q2 5 3 7h253
zM411 307h-213l105 248zM296 727l166 104q19 12 19 30q0 14 -10 24.5t-24 10.5q-12 0 -19.5 -5.5t-32.5 -30.5l-134 -133h35z" />
    <glyph glyph-name="Acircumflex" unicode="&#xc2;" horiz-adv-x="667" 
d="M431 257l5 -11q28 -61 51.5 -119t44.5 -132q38 6 64 6q25 0 59 -6q-2 4 -40.5 89.5t-89 200.5t-97 226t-73.5 184q-12 -3 -22 -3q-7 0 -18 2l-7 1q-24 -62 -61.5 -149t-79 -180.5t-86 -192t-81.5 -178.5q5 1 11 2q19 4 33 4t31 -4l10 -2q20 78 42 137t48 118q2 5 3 7h253
zM411 307h-213l105 248zM183 727h34l117 105l117 -105h33l-122 167h-56z" />
    <glyph glyph-name="Atilde" unicode="&#xc3;" horiz-adv-x="667" 
d="M431 257l5 -11q28 -61 51.5 -119t44.5 -132q38 6 64 6q25 0 59 -6q-2 4 -40.5 89.5t-89 200.5t-97 226t-73.5 184q-12 -3 -22 -3q-7 0 -18 2l-7 1q-24 -62 -61.5 -149t-79 -180.5t-86 -192t-81.5 -178.5q5 1 11 2q19 4 33 4t31 -4l10 -2q20 78 42 137t48 118q2 5 3 7h253
zM411 307h-213l105 248zM198 752q8 28 24.5 37t30.5 9q17 0 47 -15l35 -17q28 -14 57 -14q24 0 42.5 10.5t31.5 27t20.5 33.5t10.5 31h-29q-9 -22 -22 -36t-34 -14q-12 0 -20.5 3t-30.5 13l-3 1q-2 1 -3 2q-42 19 -53.5 23t-26.5 4q-37 0 -67 -27t-37 -71h27z" />
    <glyph glyph-name="Adieresis" unicode="&#xc4;" horiz-adv-x="667" 
d="M431 257l5 -11q28 -61 51.5 -119t44.5 -132q38 6 64 6q25 0 59 -6q-2 4 -40.5 89.5t-89 200.5t-97 226t-73.5 184q-12 -3 -22 -3q-7 0 -18 2l-7 1q-24 -62 -61.5 -149t-79 -180.5t-86 -192t-81.5 -178.5q5 1 11 2q19 4 33 4t31 -4l10 -2q20 78 42 137t48 118q2 5 3 7h253
zM411 307h-213l105 248zM385 793q0 -20 13.5 -33.5t32.5 -13.5t33 14t14 33t-14 32.5t-33 13.5t-32.5 -13.5t-13.5 -32.5zM189 793q0 -20 13.5 -33.5t32.5 -13.5t33 14t14 33t-14 32.5t-33 13.5t-32.5 -13.5t-13.5 -32.5z" />
    <glyph glyph-name="Aring" unicode="&#xc5;" horiz-adv-x="667" 
d="M431 257l5 -11q28 -61 51.5 -119t44.5 -132q38 6 64 6q25 0 59 -6q-2 4 -40.5 89.5t-89 200.5t-97 226t-73.5 184q-12 -3 -22 -3q-7 0 -18 2l-7 1q-24 -62 -61.5 -149t-79 -180.5t-86 -192t-81.5 -178.5q5 1 11 2q19 4 33 4t31 -4l10 -2q20 78 42 137t48 118q2 5 3 7h253
zM411 307h-213l105 248zM334 712q38 0 64.5 27t26.5 65q0 37 -27 64t-64 27q-38 0 -65 -26.5t-27 -64.5t27 -65t65 -27zM334 739q-28 0 -46.5 19t-18.5 46q0 26 18.5 45t45.5 19q28 0 46.5 -18.5t18.5 -45.5t-18.5 -46t-45.5 -19z" />
    <glyph glyph-name="AE" unicode="&#xc6;" horiz-adv-x="889" 
d="M471 249q0 -59 -1 -130q-1 -41 -2.5 -73.5t-2.5 -50.5q34 3 68 4.5t71 1.5q95 0 147.5 -1t86.5 -5l-1 3q-3 16 -3 31q0 12 3 26l1 6q-85 -8 -146.5 -10t-119.5 -2q-6 72 -6 143q0 24 1 72q1 47 1 71h27q22 1 26 1q51 0 101 -3t84 -8l-1 3q-3 16 -3 31t3 31l1 3
q-96 -11 -181 -11q-30 0 -57 3q0 17 -1 49t-1 49q0 47 1 81.5t3 67.5q2 0 20 1h23q62 0 115.5 -2.5t103.5 -10.5q0 1 -1 3q-3 16 -3 32q0 15 3 29l1 3q-23 -2 -76 -4t-104 -2q-80 0 -124 2q-22 0 -43 1.5t-36 2.5q-12 -22 -27 -46.5t-46 -72.5l-34 -54
q-98 -153 -115.5 -180.5t-58.5 -91t-66 -101.5q-6 -10 -77 -110q-17 -25 -25 -36q14 3 24 4.5t28 1.5q17 0 26 -1.5l21 -3.5l3 -1q22 55 54.5 118.5t80.5 133.5q24 2 35 2h24h175zM451 594l2 2q6 9 10 9q5 0 7 -29q2 -27 2.5 -65.5t0.5 -86.5q0 -16 -1 -64t-1 -64h-125
t-79 2z" />
    <glyph glyph-name="Ccedilla" unicode="&#xc7;" horiz-adv-x="722" 
d="M426 -17q17 0 40.5 1.5t56.5 8t71.5 20t75.5 35.5q1 25 4 43t7 38l-12 5q-28 -33 -59.5 -53.5t-63 -31.5t-57 -14.5t-47.5 -3.5q-54 0 -103 19.5t-87 59t-59.5 98.5t-21.5 134q0 144 71.5 226.5t191.5 82.5q74 0 135 -32.5t82 -77.5h10q4 34 8 50.5t16 49.5
q-50 22 -108.5 37.5t-138.5 15.5q-96 0 -168.5 -27t-120 -75.5t-71 -112.5t-23.5 -138q0 -71 21 -133.5t63.5 -110.5t106.5 -77.5t146 -35.5l-39 -88l17 -6q14 6 27 6q24 0 36 -11.5t12 -28.5q0 -19 -15 -30.5t-43 -11.5q-17 0 -30.5 3t-31.5 9l-14 -30q32 -9 53.5 -12.5
t34.5 -3.5q17 0 36.5 4t37.5 13t29.5 26t11.5 41q0 33 -23 51.5t-53 18.5q-15 0 -34 -5q-1 -1 -2 -1z" />
    <glyph glyph-name="Egrave" unicode="&#xc8;" 
d="M188 385q-1 53 -1 130v67t2 48q33 2 49.5 2h47.5q59 0 92 -3t67 -10l-1 3q-3 16 -3 29t4 35q-61 -6 -152 -6q-139 0 -209 6q4 -69 6 -161.5t2 -171.5q0 -87 -1 -139.5t-2 -90t-3 -62.5t-5 -66q154 6 232 6q93 0 139 -6l-1 3q-3 16 -3 29t3 30l1 4q-78 -8 -136.5 -10
t-126.5 -2q-1 30 -2 75.5t-1 79.5q0 45 2 131q50 2 81 2q34 0 76 -2.5t79 -7.5q0 4 -2 13q-2 11 -2 18q0 13 3 30l1 4q-65 -8 -161 -8q-19 0 -38 1h-37zM343 727l-135 133q-25 25 -32.5 30.5t-18.5 5.5q-14 0 -24 -10.5t-10 -24.5q0 -8 3.5 -15.5t14.5 -14.5l167 -104h35z
" />
    <glyph glyph-name="Eacute" unicode="&#xc9;" 
d="M188 385q-1 53 -1 130v67t2 48q33 2 49.5 2h47.5q59 0 92 -3t67 -10l-1 3q-3 16 -3 29t4 35q-61 -6 -152 -6q-139 0 -209 6q4 -69 6 -161.5t2 -171.5q0 -87 -1 -139.5t-2 -90t-3 -62.5t-5 -66q154 6 232 6q93 0 139 -6l-1 3q-3 16 -3 29t3 30l1 4q-78 -8 -136.5 -10
t-126.5 -2q-1 30 -2 75.5t-1 79.5q0 45 2 131q50 2 81 2q34 0 76 -2.5t79 -7.5q0 4 -2 13q-2 11 -2 18q0 13 3 30l1 4q-65 -8 -161 -8q-19 0 -38 1h-37zM222 727l166 104q19 12 19 30q0 14 -10 24.5t-24 10.5q-12 0 -19.5 -5.5t-32.5 -30.5l-134 -133h35z" />
    <glyph glyph-name="Ecircumflex" unicode="&#xca;" 
d="M188 385q-1 53 -1 130v67t2 48q33 2 49.5 2h47.5q59 0 92 -3t67 -10l-1 3q-3 16 -3 29t4 35q-61 -6 -152 -6q-139 0 -209 6q4 -69 6 -161.5t2 -171.5q0 -87 -1 -139.5t-2 -90t-3 -62.5t-5 -66q154 6 232 6q93 0 139 -6l-1 3q-3 16 -3 29t3 30l1 4q-78 -8 -136.5 -10
t-126.5 -2q-1 30 -2 75.5t-1 79.5q0 45 2 131q50 2 81 2q34 0 76 -2.5t79 -7.5q0 4 -2 13q-2 11 -2 18q0 13 3 30l1 4q-65 -8 -161 -8q-19 0 -38 1h-37zM114 727h34l117 105l117 -105h33l-122 167h-56z" />
    <glyph glyph-name="Edieresis" unicode="&#xcb;" 
d="M188 385q-1 53 -1 130v67t2 48q33 2 49.5 2h47.5q59 0 92 -3t67 -10l-1 3q-3 16 -3 29t4 35q-61 -6 -152 -6q-139 0 -209 6q4 -69 6 -161.5t2 -171.5q0 -87 -1 -139.5t-2 -90t-3 -62.5t-5 -66q154 6 232 6q93 0 139 -6l-1 3q-3 16 -3 29t3 30l1 4q-78 -8 -136.5 -10
t-126.5 -2q-1 30 -2 75.5t-1 79.5q0 45 2 131q50 2 81 2q34 0 76 -2.5t79 -7.5q0 4 -2 13q-2 11 -2 18q0 13 3 30l1 4q-65 -8 -161 -8q-19 0 -38 1h-37zM316 793q0 -20 13.5 -33.5t32.5 -13.5t33 14t14 33t-14 32.5t-33 13.5t-32.5 -13.5t-13.5 -32.5zM120 793
q0 -20 13.5 -33.5t32.5 -13.5t33 14t14 33t-14 32.5t-33 13.5t-32.5 -13.5t-13.5 -32.5z" />
    <glyph glyph-name="Igrave" unicode="&#xcc;" horiz-adv-x="333" 
d="M118 351q0 -72 -0.5 -121.5t-2 -87.5t-3.5 -74.5t-4 -72.5h2q30 6 51 6q24 0 62 -6l-1 20q-3 78 -4.5 141.5t-1.5 173.5q0 198 8 357q-14 -3 -26 -4.5t-32 -1.5q-19 0 -30.5 1.5t-24.5 4.5q3 -81 4 -112.5t2 -70.5q1 -43 1 -153zM240 727l-135 133q-25 25 -32.5 30.5
t-18.5 5.5q-14 0 -24 -10.5t-10 -24.5q0 -8 3.5 -15.5t14.5 -14.5l167 -104h35z" />
    <glyph glyph-name="Iacute" unicode="&#xcd;" horiz-adv-x="333" 
d="M118 351q0 -72 -0.5 -121.5t-2 -87.5t-3.5 -74.5t-4 -72.5h2q30 6 51 6q24 0 62 -6l-1 20q-3 78 -4.5 141.5t-1.5 173.5q0 198 8 357q-14 -3 -26 -4.5t-32 -1.5q-19 0 -30.5 1.5t-24.5 4.5q3 -81 4 -112.5t2 -70.5q1 -43 1 -153zM129 727l166 104q19 12 19 30
q0 14 -10 24.5t-24 10.5q-12 0 -19.5 -5.5t-32.5 -30.5l-134 -133h35z" />
    <glyph glyph-name="Icircumflex" unicode="&#xce;" horiz-adv-x="333" 
d="M118 351q0 -72 -0.5 -121.5t-2 -87.5t-3.5 -74.5t-4 -72.5h2q30 6 51 6q24 0 62 -6l-1 20q-3 78 -4.5 141.5t-1.5 173.5q0 198 8 357q-14 -3 -26 -4.5t-32 -1.5q-19 0 -30.5 1.5t-24.5 4.5q3 -81 4 -112.5t2 -70.5q1 -43 1 -153zM16 727h34l117 105l117 -105h33l-122 167
h-56z" />
    <glyph glyph-name="Idieresis" unicode="&#xcf;" horiz-adv-x="333" 
d="M118 351q0 -72 -0.5 -121.5t-2 -87.5t-3.5 -74.5t-4 -72.5h2q30 6 51 6q24 0 62 -6l-1 20q-3 78 -4.5 141.5t-1.5 173.5q0 198 8 357q-14 -3 -26 -4.5t-32 -1.5q-19 0 -30.5 1.5t-24.5 4.5q3 -81 4 -112.5t2 -70.5q1 -43 1 -153zM218 793q0 -20 13.5 -33.5t32.5 -13.5
t33 14t14 33t-14 32.5t-33 13.5t-32.5 -13.5t-13.5 -32.5zM22 793q0 -20 13.5 -33.5t32.5 -13.5t33 14t14 33t-14 32.5t-33 13.5t-32.5 -13.5t-13.5 -32.5z" />
    <glyph glyph-name="Eth" unicode="&#xd0;" horiz-adv-x="778" 
d="M725 360q0 74 -25 139t-85 113q-34 27 -70.5 42.5t-78 22t-88.5 8t-131 1.5q-81 0 -164 3q7 -112 7 -290q-45 0 -92 3q2 -9 2 -24q0 -14 -2 -26q16 1 31 1q41 2 61 2q0 -133 -2 -193q-1 -34 -3 -73.5t-6 -93.5q45 2 67 3t40 1q9 0 35 -0.5t73 -2.5q48 -1 51 -1
q77 0 145 22t121.5 67t83.5 114.5t30 161.5zM614 348q0 -33 -5 -67.5t-17 -69.5t-34.5 -67t-55.5 -55q-24 -17 -52.5 -27t-56.5 -14.5t-51 -5.5t-48 -1q-33 0 -55.5 1.5t-50.5 4.5q-1 26 -2 57t-1 43v208q114 0 177 -3q-2 12 -2 22q0 12 2 26v2q-63 -3 -177 -3q0 138 5 237
h5q24 3 37 3.5t46 0.5q81 0 134.5 -9t100.5 -44q30 -22 50 -51.5t31 -61t15.5 -63.5t4.5 -63z" />
    <glyph glyph-name="Ntilde" unicode="&#xd1;" horiz-adv-x="778" 
d="M149 512l195 -203q34 -34 51 -50q24 -22 60.5 -60t77 -82t70.5 -78t43 -50q2 0 6 1q7 1 10 1q5 0 13 -1q1 0 6 -1q-3 47 -3.5 114t-0.5 155q0 144 3 240t14 193q-26 -6 -43 -6t-39 6q5 -57 7.5 -104.5t3.5 -98.5q2 -72 2 -285v-37q-32 33 -66.5 68t-58.5 60.5t-153 160.5
q-27 29 -71 75q-42 44 -64.5 69t-47.5 53l-33 39q-6 -1 -7 -1q-9 -1 -14 -1q-4 0 -13 2h-3v-120q0 -16 1 -119q2 -109 2 -131q0 -37 -1 -83.5t-3.5 -99t-4.5 -89.5t-4 -54l5 1q18 5 34 5q18 0 42 -6q-1 12 -1 26q-4 58 -6 97.5t-3.5 85.5t-3 100t-2.5 145v63zM258 752
q8 28 24.5 37t30.5 9q17 0 47 -15l35 -17q28 -14 57 -14q24 0 42.5 10.5t31.5 27t20.5 33.5t10.5 31h-29q-9 -22 -22 -36t-34 -14q-12 0 -20.5 3t-30.5 13l-3 1q-2 1 -3 2q-42 19 -53.5 23t-26.5 4q-37 0 -67 -27t-37 -71h27z" />
    <glyph glyph-name="Ograve" unicode="&#xd2;" horiz-adv-x="889" 
d="M450 696q-90 0 -162 -26t-122 -74t-76 -114t-26 -146q0 -82 27.5 -148t78.5 -112.5t120 -71t150 -24.5q88 0 159.5 27.5t122.5 77.5t77.5 117.5t26.5 145.5q0 82 -28.5 147.5t-80 110t-120 67.5t-147.5 23zM178 337q0 81 22 142t60 99t85.5 56.5t99.5 18.5q28 0 58.5 -6
t60.5 -19.5t57.5 -36.5t46.5 -56q24 -40 34 -92.5t10 -99.5q0 -151 -74.5 -235.5t-195.5 -84.5q-57 0 -106 21.5t-84 62.5t-54.5 99.5t-19.5 130.5zM518 727l-135 133q-25 25 -32.5 30.5t-18.5 5.5q-14 0 -24 -10.5t-10 -24.5q0 -8 3.5 -15.5t14.5 -14.5l167 -104h35z" />
    <glyph glyph-name="Oacute" unicode="&#xd3;" horiz-adv-x="889" 
d="M450 696q-90 0 -162 -26t-122 -74t-76 -114t-26 -146q0 -82 27.5 -148t78.5 -112.5t120 -71t150 -24.5q88 0 159.5 27.5t122.5 77.5t77.5 117.5t26.5 145.5q0 82 -28.5 147.5t-80 110t-120 67.5t-147.5 23zM178 337q0 81 22 142t60 99t85.5 56.5t99.5 18.5q28 0 58.5 -6
t60.5 -19.5t57.5 -36.5t46.5 -56q24 -40 34 -92.5t10 -99.5q0 -151 -74.5 -235.5t-195.5 -84.5q-57 0 -106 21.5t-84 62.5t-54.5 99.5t-19.5 130.5zM407 727l166 104q19 12 19 30q0 14 -10 24.5t-24 10.5q-12 0 -19.5 -5.5t-32.5 -30.5l-134 -133h35z" />
    <glyph glyph-name="Ocircumflex" unicode="&#xd4;" horiz-adv-x="889" 
d="M450 696q-90 0 -162 -26t-122 -74t-76 -114t-26 -146q0 -82 27.5 -148t78.5 -112.5t120 -71t150 -24.5q88 0 159.5 27.5t122.5 77.5t77.5 117.5t26.5 145.5q0 82 -28.5 147.5t-80 110t-120 67.5t-147.5 23zM178 337q0 81 22 142t60 99t85.5 56.5t99.5 18.5q28 0 58.5 -6
t60.5 -19.5t57.5 -36.5t46.5 -56q24 -40 34 -92.5t10 -99.5q0 -151 -74.5 -235.5t-195.5 -84.5q-57 0 -106 21.5t-84 62.5t-54.5 99.5t-19.5 130.5zM294 727h34l117 105l117 -105h33l-122 167h-56z" />
    <glyph glyph-name="Otilde" unicode="&#xd5;" horiz-adv-x="889" 
d="M450 696q-90 0 -162 -26t-122 -74t-76 -114t-26 -146q0 -82 27.5 -148t78.5 -112.5t120 -71t150 -24.5q88 0 159.5 27.5t122.5 77.5t77.5 117.5t26.5 145.5q0 82 -28.5 147.5t-80 110t-120 67.5t-147.5 23zM178 337q0 81 22 142t60 99t85.5 56.5t99.5 18.5q28 0 58.5 -6
t60.5 -19.5t57.5 -36.5t46.5 -56q24 -40 34 -92.5t10 -99.5q0 -151 -74.5 -235.5t-195.5 -84.5q-57 0 -106 21.5t-84 62.5t-54.5 99.5t-19.5 130.5zM309 752q8 28 24.5 37t30.5 9q17 0 47 -15l35 -17q28 -14 57 -14q24 0 42.5 10.5t31.5 27t20.5 33.5t10.5 31h-29
q-9 -22 -22 -36t-34 -14q-12 0 -20.5 3t-30.5 13l-3 1q-2 1 -3 2q-42 19 -53.5 23t-26.5 4q-37 0 -67 -27t-37 -71h27z" />
    <glyph glyph-name="Odieresis" unicode="&#xd6;" horiz-adv-x="889" 
d="M450 696q-90 0 -162 -26t-122 -74t-76 -114t-26 -146q0 -82 27.5 -148t78.5 -112.5t120 -71t150 -24.5q88 0 159.5 27.5t122.5 77.5t77.5 117.5t26.5 145.5q0 82 -28.5 147.5t-80 110t-120 67.5t-147.5 23zM178 337q0 81 22 142t60 99t85.5 56.5t99.5 18.5q28 0 58.5 -6
t60.5 -19.5t57.5 -36.5t46.5 -56q24 -40 34 -92.5t10 -99.5q0 -151 -74.5 -235.5t-195.5 -84.5q-57 0 -106 21.5t-84 62.5t-54.5 99.5t-19.5 130.5zM496 793q0 -20 13.5 -33.5t32.5 -13.5t33 14t14 33t-14 32.5t-33 13.5t-32.5 -13.5t-13.5 -32.5zM300 793q0 -20 13.5 -33.5
t32.5 -13.5t33 14t14 33t-14 32.5t-33 13.5t-32.5 -13.5t-13.5 -32.5z" />
    <glyph glyph-name="multiply" unicode="&#xd7;" horiz-adv-x="593" 
d="M59 53l46 -45l192 193l192 -193l45 45l-192 193l192 191l-45 45l-192 -192l-193 193l-45 -45l193 -193z" />
    <glyph glyph-name="Oslash" unicode="&#xd8;" horiz-adv-x="889" 
d="M671 639q-49 29 -106.5 43t-119.5 14q-81 0 -151 -23.5t-121.5 -70t-80 -114t-28.5 -152.5q0 -90 28.5 -151.5t80.5 -111.5q-22 -23 -43 -46q-14 -14 -56 -59q14 -9 20.5 -15t14.5 -18q16 19 31.5 37.5t33.5 38.5q16 19 32 37q26 -18 48 -29q33 -16 81 -27.5t105 -11.5
q87 0 159 27.5t122.5 77.5t77.5 117.5t27 145.5q0 55 -11.5 98.5t-29.5 74.5t-35.5 51t-40.5 41q21 24 32.5 36t33.5 36l19 20l-3 2q-16 11 -21 15.5t-15 17.5q-40 -46 -47.5 -55.5t-13.5 -17t-23 -28.5zM712 343q0 -67 -17.5 -125t-51.5 -101.5t-84.5 -68t-114.5 -24.5
q-40 0 -72 8.5t-54 21t-35.5 23.5t-27.5 26v0l120 136.5t80.5 91t97.5 109t102 113.5q23 -36 34 -66q23 -69 23 -144zM178 337q0 26 3 55t11 60.5t23.5 63t38.5 56.5q34 38 84.5 59.5t105.5 21.5q50 0 97 -17t84 -49q-114 -132 -211.5 -243.5t-183.5 -206.5
q-21 33 -36.5 78.5t-15.5 121.5z" />
    <glyph glyph-name="Ugrave" unicode="&#xd9;" horiz-adv-x="778" 
d="M98 273q0 -72 8 -114t34 -77q22 -30 51.5 -49.5t62.5 -31t65.5 -16t64.5 -4.5q80 0 132.5 21t87.5 58q24 25 38.5 56.5t22 67.5t9.5 71t2 79q0 117 4 202t13 151l-3 -1q-10 -2 -18.5 -3.5t-22.5 -1.5q-15 0 -24 1.5t-20 3.5l-3 1q3 -22 6 -66t4.5 -90.5t2.5 -88t1 -55.5
q0 -13 -0.5 -37t-2 -53t-5 -60.5t-9.5 -55.5q-11 -48 -38 -78.5t-58.5 -45t-57 -18.5t-43.5 -4q-48 0 -92 18t-68 47q-28 34 -36 87t-8 158q0 63 1 130q1 53 3 111.5t5 100.5q-34 -6 -58 -6q-17 0 -56 6h-3q3 -51 4.5 -84t2.5 -69q1 -54 1 -261zM462 727l-135 133
q-25 25 -32.5 30.5t-18.5 5.5q-14 0 -24 -10.5t-10 -24.5q0 -8 3.5 -15.5t14.5 -14.5l167 -104h35z" />
    <glyph glyph-name="Uacute" unicode="&#xda;" horiz-adv-x="778" 
d="M98 273q0 -72 8 -114t34 -77q22 -30 51.5 -49.5t62.5 -31t65.5 -16t64.5 -4.5q80 0 132.5 21t87.5 58q24 25 38.5 56.5t22 67.5t9.5 71t2 79q0 117 4 202t13 151l-3 -1q-10 -2 -18.5 -3.5t-22.5 -1.5q-15 0 -24 1.5t-20 3.5l-3 1q3 -22 6 -66t4.5 -90.5t2.5 -88t1 -55.5
q0 -13 -0.5 -37t-2 -53t-5 -60.5t-9.5 -55.5q-11 -48 -38 -78.5t-58.5 -45t-57 -18.5t-43.5 -4q-48 0 -92 18t-68 47q-28 34 -36 87t-8 158q0 63 1 130q1 53 3 111.5t5 100.5q-34 -6 -58 -6q-17 0 -56 6h-3q3 -51 4.5 -84t2.5 -69q1 -54 1 -261zM356 727l166 104
q19 12 19 30q0 14 -10 24.5t-24 10.5q-12 0 -19.5 -5.5t-32.5 -30.5l-134 -133h35z" />
    <glyph glyph-name="Ucircumflex" unicode="&#xdb;" horiz-adv-x="778" 
d="M98 273q0 -72 8 -114t34 -77q22 -30 51.5 -49.5t62.5 -31t65.5 -16t64.5 -4.5q80 0 132.5 21t87.5 58q24 25 38.5 56.5t22 67.5t9.5 71t2 79q0 117 4 202t13 151l-3 -1q-10 -2 -18.5 -3.5t-22.5 -1.5q-15 0 -24 1.5t-20 3.5l-3 1q3 -22 6 -66t4.5 -90.5t2.5 -88t1 -55.5
q0 -13 -0.5 -37t-2 -53t-5 -60.5t-9.5 -55.5q-11 -48 -38 -78.5t-58.5 -45t-57 -18.5t-43.5 -4q-48 0 -92 18t-68 47q-28 34 -36 87t-8 158q0 63 1 130q1 53 3 111.5t5 100.5q-34 -6 -58 -6q-17 0 -56 6h-3q3 -51 4.5 -84t2.5 -69q1 -54 1 -261zM253 727h34l117 105
l117 -105h33l-122 167h-56z" />
    <glyph glyph-name="Udieresis" unicode="&#xdc;" horiz-adv-x="778" 
d="M98 273q0 -72 8 -114t34 -77q22 -30 51.5 -49.5t62.5 -31t65.5 -16t64.5 -4.5q80 0 132.5 21t87.5 58q24 25 38.5 56.5t22 67.5t9.5 71t2 79q0 117 4 202t13 151l-3 -1q-10 -2 -18.5 -3.5t-22.5 -1.5q-15 0 -24 1.5t-20 3.5l-3 1q3 -22 6 -66t4.5 -90.5t2.5 -88t1 -55.5
q0 -13 -0.5 -37t-2 -53t-5 -60.5t-9.5 -55.5q-11 -48 -38 -78.5t-58.5 -45t-57 -18.5t-43.5 -4q-48 0 -92 18t-68 47q-28 34 -36 87t-8 158q0 63 1 130q1 53 3 111.5t5 100.5q-34 -6 -58 -6q-17 0 -56 6h-3q3 -51 4.5 -84t2.5 -69q1 -54 1 -261zM460 793q0 -20 13.5 -33.5
t32.5 -13.5t33 14t14 33t-14 32.5t-33 13.5t-32.5 -13.5t-13.5 -32.5zM264 793q0 -20 13.5 -33.5t32.5 -13.5t33 14t14 33t-14 32.5t-33 13.5t-32.5 -13.5t-13.5 -32.5z" />
    <glyph glyph-name="Yacute" unicode="&#xdd;" horiz-adv-x="611" 
d="M363 227q0 40 1 55q0 1 2 5q9 22 17 36q15 28 46 80t70 114.5t67.5 106.5t41.5 63q-13 -3 -22.5 -4.5t-22.5 -1.5q-29 0 -47 6q-57 -138 -139 -280q0 -1 -4 -7q-12 -21 -22.5 -37.5t-13.5 -16.5q-5 0 -18.5 21.5t-32.5 54.5q-44 76 -75 135.5t-59 129.5q-30 -6 -70 -6
q-14 0 -31 1t-33 5q23 -37 43 -70.5t43.5 -72.5t67.5 -112.5t94 -157.5v-75q1 -26 1 -47q0 -48 -1.5 -83t-5.5 -74q11 4 23.5 5t36.5 1q30 0 50 -6q-2 30 -3 61t-2 71q-2 63 -2 100zM293 727l166 104q19 12 19 30q0 14 -10 24.5t-24 10.5q-12 0 -19.5 -5.5t-32.5 -30.5
l-134 -133h35z" />
    <glyph glyph-name="Thorn" unicode="&#xde;" horiz-adv-x="556" 
d="M190 566q0 5 3 68q1 37 2 53q-6 -1 -13 -2q-28 -4 -44 -4q-15 0 -37 4l-15 2q3 -47 4 -61.5t2 -46.5t1.5 -71.5t0.5 -90.5q0 -262 -8 -422l3 1q13 2 23 3.5t27 1.5q18 0 28 -1t24 -4q4 -1 6 -1q-2 51 -3.5 87.5t-2.5 81.5l-1 21h3q32 -2 44 -2q30 0 60 3t52 7
q52 10 88.5 32t57 50t29.5 57.5t9 58.5q0 50 -24 90.5t-68 61.5q-31 15 -65.5 19t-86.5 4h-99zM424 382q0 -48 -16.5 -79.5t-44.5 -48t-62 -22.5t-74 -6q-7 0 -19 1h-18v74q-1 49 -1 73q0 25 1 73v73q15 2 27 3t29 1q88 0 133 -34.5t45 -107.5z" />
    <glyph glyph-name="germandbls" unicode="&#xdf;" horiz-adv-x="611" 
d="M268 88q-3 -31 -7.5 -47t-11.5 -32v0q21 -11 43.5 -18.5t55.5 -7.5q42 0 80 16.5t66.5 44t45 62t16.5 69.5q0 32 -10.5 57t-29 44.5t-40.5 35.5t-58 38l-1 1l-2 1q-22 14 -40.5 30.5t-18.5 35.5q0 10 8 23q9 11 23 26.5t25 26.5l1 1q26 26 42.5 52.5t16.5 65.5
q0 56 -45.5 90.5t-115.5 34.5q-52 0 -95.5 -18.5t-72.5 -54.5q-18 -21 -27 -41.5t-13 -47.5t-5 -61.5t-1 -107.5v-103q0 -167 -1 -209q0 -28 -1.5 -52t-4.5 -48l4 1q15 2 25 3.5t27 1.5t26.5 -1.5t22.5 -4.5q-3 35 -4.5 92t-1.5 120q0 70 1 188v153q0 33 7 60.5t17 43.5
q14 23 38.5 35.5t52.5 12.5q44 0 71 -26t27 -74q0 -35 -15.5 -64t-42.5 -59l-1 -1q-43 -47 -53.5 -63.5t-10.5 -37.5q0 -6 1 -15.5t5 -16.5q9 -18 32.5 -40.5t48.5 -36.5q19 -11 37 -23t35 -29t28.5 -39t11.5 -48q0 -16 -5.5 -33t-17.5 -31.5t-32 -24t-49 -9.5
q-36 0 -60.5 18t-36.5 40z" />
    <glyph glyph-name="agrave" unicode="&#xe0;" 
d="M103 361v1q5 11 12 22.5t19.5 23.5t33 19.5t49.5 7.5q50 0 81 -29.5t31 -79.5q0 -21 -8 -32t-29 -16l-87 -19q-41 -9 -67 -17t-49 -23t-36.5 -40t-13.5 -63q0 -22 7.5 -45t24 -43t43 -32.5t63.5 -12.5q52 0 86 19t65 51q8 -32 29 -48.5t47 -16.5q18 0 34 5.5t38 16.5
l-1 28q-12 -5 -25 -5q-26 0 -31.5 22t-5.5 95q0 16 2 86q1 34 1.5 59.5t0.5 34.5q0 42 -10.5 67.5t-30.5 44.5q-27 25 -62.5 35t-71.5 10q-54 0 -91.5 -17t-70.5 -44l-4 -65h27zM327 135q0 -40 -33 -67.5t-73 -27.5q-32 0 -58.5 20t-26.5 64q0 23 6.5 40t26 32t58 27.5
t100.5 21.5v-110zM323 549l-135 133q-25 25 -32.5 30.5t-18.5 5.5q-14 0 -24 -10.5t-10 -24.5q0 -8 3.5 -15.5t14.5 -14.5l167 -104h35z" />
    <glyph glyph-name="aacute" unicode="&#xe1;" 
d="M103 361v1q5 11 12 22.5t19.5 23.5t33 19.5t49.5 7.5q50 0 81 -29.5t31 -79.5q0 -21 -8 -32t-29 -16l-87 -19q-41 -9 -67 -17t-49 -23t-36.5 -40t-13.5 -63q0 -22 7.5 -45t24 -43t43 -32.5t63.5 -12.5q52 0 86 19t65 51q8 -32 29 -48.5t47 -16.5q18 0 34 5.5t38 16.5
l-1 28q-12 -5 -25 -5q-26 0 -31.5 22t-5.5 95q0 16 2 86q1 34 1.5 59.5t0.5 34.5q0 42 -10.5 67.5t-30.5 44.5q-27 25 -62.5 35t-71.5 10q-54 0 -91.5 -17t-70.5 -44l-4 -65h27zM327 135q0 -40 -33 -67.5t-73 -27.5q-32 0 -58.5 20t-26.5 64q0 23 6.5 40t26 32t58 27.5
t100.5 21.5v-110zM212 549l166 104q19 12 19 30q0 14 -10 24.5t-24 10.5q-12 0 -19.5 -5.5t-32.5 -30.5l-134 -133h35z" />
    <glyph glyph-name="acircumflex" unicode="&#xe2;" 
d="M103 361v1q5 11 12 22.5t19.5 23.5t33 19.5t49.5 7.5q50 0 81 -29.5t31 -79.5q0 -21 -8 -32t-29 -16l-87 -19q-41 -9 -67 -17t-49 -23t-36.5 -40t-13.5 -63q0 -22 7.5 -45t24 -43t43 -32.5t63.5 -12.5q52 0 86 19t65 51q8 -32 29 -48.5t47 -16.5q18 0 34 5.5t38 16.5
l-1 28q-12 -5 -25 -5q-26 0 -31.5 22t-5.5 95q0 16 2 86q1 34 1.5 59.5t0.5 34.5q0 42 -10.5 67.5t-30.5 44.5q-27 25 -62.5 35t-71.5 10q-54 0 -91.5 -17t-70.5 -44l-4 -65h27zM327 135q0 -40 -33 -67.5t-73 -27.5q-32 0 -58.5 20t-26.5 64q0 23 6.5 40t26 32t58 27.5
t100.5 21.5v-110zM99 549h34l117 105l117 -105h33l-122 167h-56z" />
    <glyph glyph-name="atilde" unicode="&#xe3;" 
d="M103 361v1q5 11 12 22.5t19.5 23.5t33 19.5t49.5 7.5q50 0 81 -29.5t31 -79.5q0 -21 -8 -32t-29 -16l-87 -19q-41 -9 -67 -17t-49 -23t-36.5 -40t-13.5 -63q0 -22 7.5 -45t24 -43t43 -32.5t63.5 -12.5q52 0 86 19t65 51q8 -32 29 -48.5t47 -16.5q18 0 34 5.5t38 16.5
l-1 28q-12 -5 -25 -5q-26 0 -31.5 22t-5.5 95q0 16 2 86q1 34 1.5 59.5t0.5 34.5q0 42 -10.5 67.5t-30.5 44.5q-27 25 -62.5 35t-71.5 10q-54 0 -91.5 -17t-70.5 -44l-4 -65h27zM327 135q0 -40 -33 -67.5t-73 -27.5q-32 0 -58.5 20t-26.5 64q0 23 6.5 40t26 32t58 27.5
t100.5 21.5v-110zM114 574q8 28 24.5 37t30.5 9q17 0 47 -15l35 -17q28 -14 57 -14q24 0 42.5 10.5t31.5 27t20.5 33.5t10.5 31h-29q-9 -22 -22 -36t-34 -14q-12 0 -20.5 3t-30.5 13l-3 1q-2 1 -3 2q-42 19 -53.5 23t-26.5 4q-37 0 -67 -27t-37 -71h27z" />
    <glyph glyph-name="adieresis" unicode="&#xe4;" 
d="M103 361v1q5 11 12 22.5t19.5 23.5t33 19.5t49.5 7.5q50 0 81 -29.5t31 -79.5q0 -21 -8 -32t-29 -16l-87 -19q-41 -9 -67 -17t-49 -23t-36.5 -40t-13.5 -63q0 -22 7.5 -45t24 -43t43 -32.5t63.5 -12.5q52 0 86 19t65 51q8 -32 29 -48.5t47 -16.5q18 0 34 5.5t38 16.5
l-1 28q-12 -5 -25 -5q-26 0 -31.5 22t-5.5 95q0 16 2 86q1 34 1.5 59.5t0.5 34.5q0 42 -10.5 67.5t-30.5 44.5q-27 25 -62.5 35t-71.5 10q-54 0 -91.5 -17t-70.5 -44l-4 -65h27zM327 135q0 -40 -33 -67.5t-73 -27.5q-32 0 -58.5 20t-26.5 64q0 23 6.5 40t26 32t58 27.5
t100.5 21.5v-110zM301 615q0 -20 13.5 -33.5t32.5 -13.5t33 14t14 33t-14 32.5t-33 13.5t-32.5 -13.5t-13.5 -32.5zM105 615q0 -20 13.5 -33.5t32.5 -13.5t33 14t14 33t-14 32.5t-33 13.5t-32.5 -13.5t-13.5 -32.5z" />
    <glyph glyph-name="aring" unicode="&#xe5;" 
d="M103 361v1q5 11 12 22.5t19.5 23.5t33 19.5t49.5 7.5q50 0 81 -29.5t31 -79.5q0 -21 -8 -32t-29 -16l-87 -19q-41 -9 -67 -17t-49 -23t-36.5 -40t-13.5 -63q0 -22 7.5 -45t24 -43t43 -32.5t63.5 -12.5q52 0 86 19t65 51q8 -32 29 -48.5t47 -16.5q18 0 34 5.5t38 16.5
l-1 28q-12 -5 -25 -5q-26 0 -31.5 22t-5.5 95q0 16 2 86q1 34 1.5 59.5t0.5 34.5q0 42 -10.5 67.5t-30.5 44.5q-27 25 -62.5 35t-71.5 10q-54 0 -91.5 -17t-70.5 -44l-4 -65h27zM327 135q0 -40 -33 -67.5t-73 -27.5q-32 0 -58.5 20t-26.5 64q0 23 6.5 40t26 32t58 27.5
t100.5 21.5v-110zM250 532q38 0 64.5 27t26.5 65q0 37 -27 64t-64 27q-38 0 -65 -26.5t-27 -64.5t27 -65t65 -27zM250 559q-28 0 -46.5 19t-18.5 46q0 26 18.5 45t45.5 19q28 0 46.5 -18.5t18.5 -45.5t-18.5 -46t-45.5 -19z" />
    <glyph glyph-name="ae" unicode="&#xe6;" horiz-adv-x="833" 
d="M782 238q0 118 -51.5 184t-162.5 66q-63 0 -100 -19.5t-62 -44.5l-1 -1q-26 31 -55.5 48t-88.5 17q-65 0 -106 -20t-67 -42q0 -23 -3 -59l-1 -9l24 -2q6 15 13.5 26.5t22.5 23.5q17 14 40.5 22t48.5 8q26 0 53.5 -11t42.5 -39q10 -19 14 -37.5t4 -36.5q0 -6 -1 -11v-7
q-1 -1 -4 -2q-15 -8 -31 -13q-7 -2 -15.5 -4t-36.5 -7l-30 -6h-2q-45 -9 -72.5 -16.5t-52 -22.5t-39.5 -41t-15 -65q0 -61 38.5 -97.5t107.5 -36.5q40 0 71 12t51.5 29.5t32 34t21.5 34.5v0q28 -55 81.5 -82.5t119.5 -27.5q42 0 89.5 13t95.5 49q1 28 2 38t5 27l-10 3
q-8 -11 -20.5 -24t-32 -26.5t-46.5 -23t-60 -9.5q-31 0 -60 11.5t-52 36.5t-36.5 65t-13.5 95h350zM432 280q0 70 34.5 118.5t98.5 48.5q39 0 63 -17t36 -42.5t15.5 -52.5t3.5 -55h-251zM344 187v-3q-1 -43 -5 -64.5t-21 -42.5q-30 -39 -82 -39q-36 0 -62.5 20.5t-26.5 66.5
q0 43 21.5 63.5t59.5 32.5q7 2 21 5t29 6l58 11l8 1v-57z" />
    <glyph glyph-name="ccedilla" unicode="&#xe7;" 
d="M461 82q-25 -27 -62.5 -40.5t-72.5 -13.5q-27 0 -56 8.5t-56.5 31.5t-45.5 66t-18 108q0 95 44 149.5t126 54.5q16 0 32 -3t32.5 -11.5t31.5 -25t25 -43.5h12v2q8 47 22 83q-69 40 -164 40q-123 0 -194 -69t-71 -185q0 -100 58 -169.5t168 -80.5l-39 -88l16 -6l2 1
q14 5 26 5q24 0 36 -11.5t12 -28.5q0 -19 -15.5 -30.5t-43.5 -11.5q-16 0 -29.5 3t-31.5 9l-14 -30q32 -9 53 -12.5t34 -3.5q17 0 36.5 4t37.5 13t30 26t12 41q0 33 -23 51.5t-53 18.5q-15 0 -34 -5q-1 -1 -2 -1l24 54q50 0 89 11t64 28v1q1 14 3 27t8 30z" />
    <glyph glyph-name="egrave" unicode="&#xe8;" horiz-adv-x="556" 
d="M508 238q0 41 -6.5 80.5t-28 78.5t-67 64t-117.5 25q-59 0 -105 -19.5t-76 -54.5t-44.5 -81t-14.5 -99q0 -116 65.5 -183t179.5 -67q118 0 186 65v8q2 28 7 52l-12 3q-8 -12 -20 -24.5t-31 -25.5t-46.5 -22t-61.5 -9q-15 0 -31 2t-35 9.5t-38.5 24t-35.5 42.5
q-17 30 -22 63t-5 68h359zM150 280q7 78 41 122t97 44q42 0 67 -19.5t36.5 -47t14 -52t2.5 -47.5h-258zM371 549l-135 133q-25 25 -32.5 30.5t-18.5 5.5q-14 0 -24 -10.5t-10 -24.5q0 -8 3.5 -15.5t14.5 -14.5l167 -104h35z" />
    <glyph glyph-name="eacute" unicode="&#xe9;" horiz-adv-x="556" 
d="M508 238q0 41 -6.5 80.5t-28 78.5t-67 64t-117.5 25q-59 0 -105 -19.5t-76 -54.5t-44.5 -81t-14.5 -99q0 -116 65.5 -183t179.5 -67q118 0 186 65v8q2 28 7 52l-12 3q-8 -12 -20 -24.5t-31 -25.5t-46.5 -22t-61.5 -9q-15 0 -31 2t-35 9.5t-38.5 24t-35.5 42.5
q-17 30 -22 63t-5 68h359zM150 280q7 78 41 122t97 44q42 0 67 -19.5t36.5 -47t14 -52t2.5 -47.5h-258zM250 549l166 104q19 12 19 30q0 14 -10 24.5t-24 10.5q-12 0 -19.5 -5.5t-32.5 -30.5l-134 -133h35z" />
    <glyph glyph-name="ecircumflex" unicode="&#xea;" horiz-adv-x="556" 
d="M508 238q0 41 -6.5 80.5t-28 78.5t-67 64t-117.5 25q-59 0 -105 -19.5t-76 -54.5t-44.5 -81t-14.5 -99q0 -116 65.5 -183t179.5 -67q118 0 186 65v8q2 28 7 52l-12 3q-8 -12 -20 -24.5t-31 -25.5t-46.5 -22t-61.5 -9q-15 0 -31 2t-35 9.5t-38.5 24t-35.5 42.5
q-17 30 -22 63t-5 68h359zM150 280q7 78 41 122t97 44q42 0 67 -19.5t36.5 -47t14 -52t2.5 -47.5h-258zM137 549h34l117 105l117 -105h33l-122 167h-56z" />
    <glyph glyph-name="edieresis" unicode="&#xeb;" horiz-adv-x="556" 
d="M508 238q0 41 -6.5 80.5t-28 78.5t-67 64t-117.5 25q-59 0 -105 -19.5t-76 -54.5t-44.5 -81t-14.5 -99q0 -116 65.5 -183t179.5 -67q118 0 186 65v8q2 28 7 52l-12 3q-8 -12 -20 -24.5t-31 -25.5t-46.5 -22t-61.5 -9q-15 0 -31 2t-35 9.5t-38.5 24t-35.5 42.5
q-17 30 -22 63t-5 68h359zM150 280q7 78 41 122t97 44q42 0 67 -19.5t36.5 -47t14 -52t2.5 -47.5h-258zM339 615q0 -20 13.5 -33.5t32.5 -13.5t33 14t14 33t-14 32.5t-33 13.5t-32.5 -13.5t-13.5 -32.5zM143 615q0 -20 13.5 -33.5t32.5 -13.5t33 14t14 33t-14 32.5t-33 13.5
t-32.5 -13.5t-13.5 -32.5z" />
    <glyph glyph-name="igrave" unicode="&#xec;" horiz-adv-x="278" 
d="M96 249q0 -54 -2 -123t-5 -131q13 3 23 4.5t29 1.5q18 0 28 -1.5t21 -4.5l-3 67q-3 92 -3.5 110t-0.5 44q0 101 2 166q0 22 1 37.5t3 50.5v9q-22 -6 -52 -6q-16 0 -27 1.5t-22 4.5q4 -49 6 -101t2 -129zM212 549l-135 133q-25 25 -32.5 30.5t-18.5 5.5q-14 0 -24 -10.5
t-10 -24.5q0 -8 3.5 -15.5t14.5 -14.5l167 -104h35z" />
    <glyph glyph-name="iacute" unicode="&#xed;" horiz-adv-x="278" 
d="M96 249q0 -54 -2 -123t-5 -131q13 3 23 4.5t29 1.5q18 0 28 -1.5t21 -4.5l-3 67q-3 92 -3.5 110t-0.5 44q0 101 2 166q0 22 1 37.5t3 50.5v9q-22 -6 -52 -6q-16 0 -27 1.5t-22 4.5q4 -49 6 -101t2 -129zM101 549l166 104q19 12 19 30q0 14 -10 24.5t-24 10.5
q-12 0 -19.5 -5.5t-32.5 -30.5l-134 -133h35z" />
    <glyph glyph-name="icircumflex" unicode="&#xee;" horiz-adv-x="278" 
d="M96 249q0 -54 -2 -123t-5 -131q13 3 23 4.5t29 1.5q18 0 28 -1.5t21 -4.5l-3 67q-3 92 -3.5 110t-0.5 44q0 101 2 166q0 22 1 37.5t3 50.5v9q-22 -6 -52 -6q-16 0 -27 1.5t-22 4.5q4 -49 6 -101t2 -129zM-12 549h34l117 105l117 -105h33l-122 167h-56z" />
    <glyph glyph-name="idieresis" unicode="&#xef;" horiz-adv-x="278" 
d="M96 249q0 -54 -2 -123t-5 -131q13 3 23 4.5t29 1.5q18 0 28 -1.5t21 -4.5l-3 67q-3 92 -3.5 110t-0.5 44q0 101 2 166q0 22 1 37.5t3 50.5v9q-22 -6 -52 -6q-16 0 -27 1.5t-22 4.5q4 -49 6 -101t2 -129zM190 615q0 -20 13.5 -33.5t32.5 -13.5t33 14t14 33t-14 32.5
t-33 13.5t-32.5 -13.5t-13.5 -32.5zM-6 615q0 -20 13.5 -33.5t32.5 -13.5t33 14t14 33t-14 32.5t-33 13.5t-32.5 -13.5t-13.5 -32.5z" />
    <glyph glyph-name="eth" unicode="&#xf0;" horiz-adv-x="611" 
d="M48 229q0 -69 23.5 -118t61 -77t81.5 -40.5t88 -12.5q46 0 91 13.5t84.5 44.5t63 84t23.5 128q0 61 -17.5 115t-48.5 100.5t-72.5 87t-92.5 78.5q37 15 108 35q15 5 26 8q-15 22 -23 40q-47 -21 -136 -52l-8 -3q-76 53 -144 92q-20 -9 -34 -14t-41 -11q41 -27 71.5 -49
t62.5 -49q-47 -17 -73 -25t-66 -19q16 -21 24 -38q20 9 33 14.5t26 10.5t34.5 12t54.5 17q42 -36 71.5 -65t54.5 -62q-21 6 -37 8.5t-40 2.5q-116 0 -182.5 -70.5t-66.5 -185.5zM308 447q46 0 77 -20.5t47.5 -53t23 -68t6.5 -69.5q0 -99 -43.5 -157t-115.5 -58
q-70 0 -111.5 56.5t-41.5 159.5q0 24 3.5 54.5t18.5 67t48 62.5t88 26z" />
    <glyph glyph-name="ntilde" unicode="&#xf1;" horiz-adv-x="611" 
d="M91 270q0 -102 -2.5 -158.5t-7.5 -116.5q30 6 53 6q25 0 53 -6l-1 12q-3 37 -5 72.5t-2 81.5q0 28 0.5 53t2 53t5.5 52.5t10 36.5q37 69 119 69q40 0 63.5 -15.5t35 -42.5t14.5 -58.5t3 -78.5q0 -41 -1 -84q-1 -34 -3 -76t-5 -75q12 3 23.5 4.5t29.5 1.5t29 -1.5t22 -4.5
q-1 5 -1 14t-1 37q-1 34 -1 53q0 17 1 67t2 89q1 56 1 57q0 29 -5 56.5t-21.5 55t-52.5 45t-93 17.5q-65 0 -109 -28.5t-67 -69.5q1 20 1.5 24t1.5 26q2 42 2 45q-6 -1 -7 -1q-25 -5 -42 -5q-16 0 -41 4l-9 2q1 -19 2 -49q3 -114 3 -164zM170 574q8 28 24.5 37t30.5 9
q17 0 47 -15l35 -17q28 -14 57 -14q24 0 42.5 10.5t31.5 27t20.5 33.5t10.5 31h-29q-9 -22 -22 -36t-34 -14q-12 0 -20.5 3t-30.5 13l-3 1q-2 1 -3 2q-42 19 -53.5 23t-26.5 4q-37 0 -67 -27t-37 -71h27z" />
    <glyph glyph-name="ograve" unicode="&#xf2;" horiz-adv-x="611" 
d="M302 487q-114 0 -184 -68.5t-70 -184.5q0 -73 23.5 -123t61 -78.5t81.5 -40t88 -11.5q57 0 105 18t83 52t54.5 82t19.5 107q0 48 -14.5 91.5t-46.5 79t-82.5 56t-118.5 20.5zM308 447q46 0 77 -20.5t47.5 -53t23 -68t6.5 -69.5q0 -99 -43.5 -157t-115.5 -58
q-70 0 -111.5 56.5t-41.5 159.5q0 24 3.5 54.5t18.5 67t48 62.5t88 26zM379 549l-135 133q-25 25 -32.5 30.5t-18.5 5.5q-14 0 -24 -10.5t-10 -24.5q0 -8 3.5 -15.5t14.5 -14.5l167 -104h35z" />
    <glyph glyph-name="oacute" unicode="&#xf3;" horiz-adv-x="611" 
d="M302 487q-114 0 -184 -68.5t-70 -184.5q0 -73 23.5 -123t61 -78.5t81.5 -40t88 -11.5q57 0 105 18t83 52t54.5 82t19.5 107q0 48 -14.5 91.5t-46.5 79t-82.5 56t-118.5 20.5zM308 447q46 0 77 -20.5t47.5 -53t23 -68t6.5 -69.5q0 -99 -43.5 -157t-115.5 -58
q-70 0 -111.5 56.5t-41.5 159.5q0 24 3.5 54.5t18.5 67t48 62.5t88 26zM268 549l166 104q19 12 19 30q0 14 -10 24.5t-24 10.5q-12 0 -19.5 -5.5t-32.5 -30.5l-134 -133h35z" />
    <glyph glyph-name="ocircumflex" unicode="&#xf4;" horiz-adv-x="611" 
d="M302 487q-114 0 -184 -68.5t-70 -184.5q0 -73 23.5 -123t61 -78.5t81.5 -40t88 -11.5q57 0 105 18t83 52t54.5 82t19.5 107q0 48 -14.5 91.5t-46.5 79t-82.5 56t-118.5 20.5zM308 447q46 0 77 -20.5t47.5 -53t23 -68t6.5 -69.5q0 -99 -43.5 -157t-115.5 -58
q-70 0 -111.5 56.5t-41.5 159.5q0 24 3.5 54.5t18.5 67t48 62.5t88 26zM155 549h34l117 105l117 -105h33l-122 167h-56z" />
    <glyph glyph-name="otilde" unicode="&#xf5;" horiz-adv-x="611" 
d="M302 487q-114 0 -184 -68.5t-70 -184.5q0 -73 23.5 -123t61 -78.5t81.5 -40t88 -11.5q57 0 105 18t83 52t54.5 82t19.5 107q0 48 -14.5 91.5t-46.5 79t-82.5 56t-118.5 20.5zM308 447q46 0 77 -20.5t47.5 -53t23 -68t6.5 -69.5q0 -99 -43.5 -157t-115.5 -58
q-70 0 -111.5 56.5t-41.5 159.5q0 24 3.5 54.5t18.5 67t48 62.5t88 26zM170 574q8 28 24.5 37t30.5 9q17 0 47 -15l35 -17q28 -14 57 -14q24 0 42.5 10.5t31.5 27t20.5 33.5t10.5 31h-29q-9 -22 -22 -36t-34 -14q-12 0 -20.5 3t-30.5 13l-3 1q-2 1 -3 2q-42 19 -53.5 23
t-26.5 4q-37 0 -67 -27t-37 -71h27z" />
    <glyph glyph-name="odieresis" unicode="&#xf6;" horiz-adv-x="611" 
d="M302 487q-114 0 -184 -68.5t-70 -184.5q0 -73 23.5 -123t61 -78.5t81.5 -40t88 -11.5q57 0 105 18t83 52t54.5 82t19.5 107q0 48 -14.5 91.5t-46.5 79t-82.5 56t-118.5 20.5zM308 447q46 0 77 -20.5t47.5 -53t23 -68t6.5 -69.5q0 -99 -43.5 -157t-115.5 -58
q-70 0 -111.5 56.5t-41.5 159.5q0 24 3.5 54.5t18.5 67t48 62.5t88 26zM357 615q0 -20 13.5 -33.5t32.5 -13.5t33 14t14 33t-14 32.5t-33 13.5t-32.5 -13.5t-13.5 -32.5zM161 615q0 -20 13.5 -33.5t32.5 -13.5t33 14t14 33t-14 32.5t-33 13.5t-32.5 -13.5t-13.5 -32.5z" />
    <glyph glyph-name="divide" unicode="&#xf7;" horiz-adv-x="593" 
d="M45 215h502v60h-502v-60zM296 118q-22 0 -37.5 -15.5t-15.5 -37.5t15.5 -37.5t37.5 -15.5t37.5 15.5t15.5 37.5q0 23 -15.5 38t-37.5 15zM296 478q-22 0 -37.5 -15.5t-15.5 -37.5t15.5 -37.5t37.5 -15.5q21 0 37 15.5t16 37.5t-15.5 37.5t-37.5 15.5z" />
    <glyph glyph-name="oslash" unicode="&#xf8;" horiz-adv-x="611" 
d="M564 240q0 42 -9 74.5t-22 55t-25 35.5t-27 26v0q38 47 45.5 55.5t29.5 34.5q-10 6 -16.5 11t-13.5 12q-17 -23 -50 -65q-7 -10 -22 -29q-38 22 -75 29.5t-71 7.5q-38 0 -81 -10t-84 -37.5t-68 -79t-27 -128.5q0 -71 19.5 -113t55.5 -78q-3 -4 -14 -17.5t-15 -18.5
t-14 -17t-36 -43q12 -5 17.5 -9t11.5 -14l2 3q4 5 13.5 17.5t23.5 30.5t19.5 25t18.5 23q68 -40 153 -40q55 0 102.5 17.5t83 51.5t55.5 82t20 108zM462 234q0 -95 -42.5 -154t-116.5 -59q-45 0 -70.5 17t-40.5 37q15 20 16 20q48 61 67 85t47 58q26 31 110 132l1 2
q16 -30 22.5 -64.5t6.5 -73.5zM150 235q0 26 3.5 57t18.5 67.5t48 62t88 25.5q41 0 64 -12.5t42 -33.5q-15 -19 -54.5 -68.5t-71.5 -89t-65 -80t-48 -59.5v0q-11 24 -18 52.5t-7 78.5z" />
    <glyph glyph-name="ugrave" unicode="&#xf9;" horiz-adv-x="611" 
d="M290 48q-38 0 -60.5 17.5t-32 47.5t-12 65.5t-2.5 93.5q0 44 2.5 101t6.5 110q-22 -6 -50 -6t-51 6q2 -15 3 -47t1 -63q0 -13 -1 -50t-2 -62q-1 -45 -1.5 -71t-0.5 -30q0 -26 5.5 -54.5t23.5 -56t53 -45.5t90 -18q18 0 38 4t42 15t44 32t40 53q0 -8 -1 -17
q-1 -31 -1.5 -47t-2.5 -31q15 3 24.5 4.5t22.5 1.5q16 0 41 -5q4 0 8 -1q-1 17 -2.5 36.5t-1.5 44.5q-2 50 -2 153q0 68 3 128.5t7 125.5h-2q-26 -6 -47 -6q-24 0 -54 6q1 -18 2.5 -51.5t2.5 -75.5q1 -74 1 -132q0 -31 -3 -56.5t-15 -49.5q-14 -28 -43.5 -49t-72.5 -21z
M379 549l-135 133q-25 25 -32.5 30.5t-18.5 5.5q-14 0 -24 -10.5t-10 -24.5q0 -8 3.5 -15.5t14.5 -14.5l167 -104h35z" />
    <glyph glyph-name="uacute" unicode="&#xfa;" horiz-adv-x="611" 
d="M290 48q-38 0 -60.5 17.5t-32 47.5t-12 65.5t-2.5 93.5q0 44 2.5 101t6.5 110q-22 -6 -50 -6t-51 6q2 -15 3 -47t1 -63q0 -13 -1 -50t-2 -62q-1 -45 -1.5 -71t-0.5 -30q0 -26 5.5 -54.5t23.5 -56t53 -45.5t90 -18q18 0 38 4t42 15t44 32t40 53q0 -8 -1 -17
q-1 -31 -1.5 -47t-2.5 -31q15 3 24.5 4.5t22.5 1.5q16 0 41 -5q4 0 8 -1q-1 17 -2.5 36.5t-1.5 44.5q-2 50 -2 153q0 68 3 128.5t7 125.5h-2q-26 -6 -47 -6q-24 0 -54 6q1 -18 2.5 -51.5t2.5 -75.5q1 -74 1 -132q0 -31 -3 -56.5t-15 -49.5q-14 -28 -43.5 -49t-72.5 -21z
M268 549l166 104q19 12 19 30q0 14 -10 24.5t-24 10.5q-12 0 -19.5 -5.5t-32.5 -30.5l-134 -133h35z" />
    <glyph glyph-name="ucircumflex" unicode="&#xfb;" horiz-adv-x="611" 
d="M290 48q-38 0 -60.5 17.5t-32 47.5t-12 65.5t-2.5 93.5q0 44 2.5 101t6.5 110q-22 -6 -50 -6t-51 6q2 -15 3 -47t1 -63q0 -13 -1 -50t-2 -62q-1 -45 -1.5 -71t-0.5 -30q0 -26 5.5 -54.5t23.5 -56t53 -45.5t90 -18q18 0 38 4t42 15t44 32t40 53q0 -8 -1 -17
q-1 -31 -1.5 -47t-2.5 -31q15 3 24.5 4.5t22.5 1.5q16 0 41 -5q4 0 8 -1q-1 17 -2.5 36.5t-1.5 44.5q-2 50 -2 153q0 68 3 128.5t7 125.5h-2q-26 -6 -47 -6q-24 0 -54 6q1 -18 2.5 -51.5t2.5 -75.5q1 -74 1 -132q0 -31 -3 -56.5t-15 -49.5q-14 -28 -43.5 -49t-72.5 -21z
M155 549h34l117 105l117 -105h33l-122 167h-56z" />
    <glyph glyph-name="udieresis" unicode="&#xfc;" horiz-adv-x="611" 
d="M290 48q-38 0 -60.5 17.5t-32 47.5t-12 65.5t-2.5 93.5q0 44 2.5 101t6.5 110q-22 -6 -50 -6t-51 6q2 -15 3 -47t1 -63q0 -13 -1 -50t-2 -62q-1 -45 -1.5 -71t-0.5 -30q0 -26 5.5 -54.5t23.5 -56t53 -45.5t90 -18q18 0 38 4t42 15t44 32t40 53q0 -8 -1 -17
q-1 -31 -1.5 -47t-2.5 -31q15 3 24.5 4.5t22.5 1.5q16 0 41 -5q4 0 8 -1q-1 17 -2.5 36.5t-1.5 44.5q-2 50 -2 153q0 68 3 128.5t7 125.5h-2q-26 -6 -47 -6q-24 0 -54 6q1 -18 2.5 -51.5t2.5 -75.5q1 -74 1 -132q0 -31 -3 -56.5t-15 -49.5q-14 -28 -43.5 -49t-72.5 -21z
M357 615q0 -20 13.5 -33.5t32.5 -13.5t33 14t14 33t-14 32.5t-33 13.5t-32.5 -13.5t-13.5 -32.5zM161 615q0 -20 13.5 -33.5t32.5 -13.5t33 14t14 33t-14 32.5t-33 13.5t-32.5 -13.5t-13.5 -32.5z" />
    <glyph glyph-name="yacute" unicode="&#xfd;" 
d="M218 -18q-39 -80 -125 -240l-2 -4q27 6 45 6q21 0 35 -6q29 97 70.5 196.5t110.5 250.5l3 6q12 24 34 72q4 9 34 74.5t41.5 88.5t17.5 34.5t13 22.5q-16 -6 -40 -6q-22 0 -44 6q-17 -58 -39.5 -122t-44.5 -120t-38 -90t-20 -34t-9.5 9.5t-11.5 24.5q-17 42 -37.5 95
t-37 97.5t-31 84t-19.5 55.5q-13 -4 -23.5 -5t-30.5 -1q-22 0 -35.5 1.5t-27.5 4.5q12 -25 19.5 -40.5t13.5 -29.5l13.5 -31.5t18.5 -45.5q12 -28 23 -54.5t31 -72.5q19 -46 53 -128zM232 549l166 104q19 12 19 30q0 14 -10 24.5t-24 10.5q-12 0 -19.5 -5.5t-32.5 -30.5
l-134 -133h35z" />
    <glyph glyph-name="thorn" unicode="&#xfe;" horiz-adv-x="611" 
d="M564 237q0 64 -19.5 112t-52.5 79t-72 45.5t-78 14.5q-38 0 -68 -10.5t-50 -26t-31 -29.5t-21 -30v91q-1 35 -1 65q0 64 1.5 108.5t4.5 76.5q-30 -6 -50 -6t-50 6q6 -271 6 -544q0 -104 -1 -168t-2.5 -115t-3 -86t-4.5 -83v-4q13 3 24.5 4.5t29.5 1.5q17 0 28.5 -1.5
t23.5 -4.5q-2 27 -2.5 51.5t-1.5 68.5q-1 58 -1 220q14 -36 56.5 -64.5t106.5 -28.5q49 0 91 18t72.5 51.5t47.5 81.5t17 106zM461 232q0 -25 -3 -53.5t-16.5 -63.5t-44 -59.5t-79.5 -24.5q-65 0 -106 49q-19 23 -30 55t-11 91q0 67 11 101.5t30 58.5t46.5 38t65.5 14
q26 0 50 -11.5t44 -36t31.5 -64.5t11.5 -94z" />
    <glyph glyph-name="ydieresis" unicode="&#xff;" 
d="M218 -18q-39 -80 -125 -240l-2 -4q27 6 45 6q21 0 35 -6q29 97 70.5 196.5t110.5 250.5l3 6q12 24 34 72q4 9 34 74.5t41.5 88.5t17.5 34.5t13 22.5q-16 -6 -40 -6q-22 0 -44 6q-17 -58 -39.5 -122t-44.5 -120t-38 -90t-20 -34t-9.5 9.5t-11.5 24.5q-17 42 -37.5 95
t-37 97.5t-31 84t-19.5 55.5q-13 -4 -23.5 -5t-30.5 -1q-22 0 -35.5 1.5t-27.5 4.5q12 -25 19.5 -40.5t13.5 -29.5l13.5 -31.5t18.5 -45.5q12 -28 23 -54.5t31 -72.5q19 -46 53 -128zM306 615q0 -20 13.5 -33.5t32.5 -13.5t33 14t14 33t-14 32.5t-33 13.5t-32.5 -13.5
t-13.5 -32.5zM110 615q0 -20 13.5 -33.5t32.5 -13.5t33 14t14 33t-14 32.5t-33 13.5t-32.5 -13.5t-13.5 -32.5z" />
    <glyph glyph-name="OE" unicode="&#x152;" horiz-adv-x="1000" 
d="M62 337q0 -85 25.5 -152.5t70.5 -113t104 -68.5t125 -23q80 0 144 29.5t107 91.5v-62t-2 -44q41 4 79.5 5t99.5 1q64 0 97.5 -1t67.5 -5q-3 11 -4 28q0 23 4 38q-46 -7 -95.5 -9t-95.5 -2h-41h-14q-1 53 -1.5 106.5t-0.5 178.5q72 0 123.5 -1t93.5 -5q-4 19 -4 33
q0 12 4 32q-43 -6 -96.5 -7.5t-120.5 -1.5q0 91 1 191v55q90 0 142 -2t98 -10q0 1 -1 3q-3 15 -3 28q0 12 3 28q1 4 1 8q-61 -6 -147 -6q-114 0 -191 6q2 -26 2.5 -46t0.5 -54q-46 56 -104 83t-134 27q-68 0 -128.5 -22t-108 -66.5t-74.5 -113t-27 -157.5zM173 339
q0 62 14.5 118t43.5 100t73.5 69t101.5 25q63 0 108 -24.5t72.5 -67t39.5 -96.5t12 -114q0 -63 -11.5 -120t-38.5 -103.5t-74 -73.5t-114 -27q-61 0 -104.5 28t-70.5 74.5t-39.5 101.5t-12.5 110z" />
    <glyph glyph-name="oe" unicode="&#x153;" horiz-adv-x="945" 
d="M868 111l-1 -1q-13 -16 -25 -27.5t-31 -24.5t-44.5 -21t-57.5 -8q-74 0 -120 54.5t-46 154.5h355q0 121 -52 184.5t-171 63.5q-55 0 -97.5 -19t-77.5 -63q-76 83 -197 83q-64 0 -112.5 -20t-80 -55.5t-47 -82.5t-15.5 -101q0 -111 67.5 -179t178.5 -68q59 0 112.5 21
t89.5 70q33 -45 76.5 -67.5t111.5 -22.5q59 0 106.5 17t78.5 49q2 23 3.5 32.5t4.5 25.5zM297 21q-24 0 -49.5 10.5t-47.5 35t-36 67t-14 103.5q0 24 3.5 54.5t17.5 67t46 62.5t85 26q46 0 76.5 -21t46.5 -54t22 -68t6 -67q0 -58 -14.5 -100t-38 -67.5t-50.5 -37t-53 -11.5z
M544 280q2 33 10.5 62.5t24.5 52.5t41.5 37t59.5 14q12 0 26.5 -3t30 -11.5t29.5 -25.5t21 -44q10 -36 10 -82h-253z" />
    <glyph glyph-name="Scaron" unicode="&#x160;" horiz-adv-x="556" 
d="M438 560q2 23 11 48t18 41q-24 16 -71 31t-99 15q-94 0 -158 -51t-64 -143q0 -36 12.5 -70t37.5 -54q10 -9 19.5 -15.5t23.5 -13.5t30 -14t73 -30l11 -5q61 -25 92.5 -54t31.5 -84q0 -54 -37.5 -93.5t-110.5 -39.5q-57 0 -100.5 28.5t-66.5 75.5h-13v-1q-1 -17 -5 -39
t-13 -54q38 -28 84 -41.5t98 -13.5q64 0 112 19.5t79 52t45.5 72t14.5 79.5q0 35 -12.5 69t-43.5 59q-13 11 -24.5 18.5t-27.5 15t-36.5 15.5t-67.5 27l-7 2q-26 10 -44 19t-35 23t-27.5 35t-10.5 49q0 16 5.5 35t19.5 37.5t39.5 30.5t63.5 12q32 0 57 -8.5t41 -22.5
t25.5 -29.5t15.5 -32.5h14zM428 894h-33l-117 -105l-117 105h-34l123 -167h56z" />
    <glyph glyph-name="scaron" unicode="&#x161;" horiz-adv-x="444" 
d="M346 370q2 24 7 43.5t13 40.5v0q-27 14 -57 23.5t-75 9.5q-49 0 -83 -14.5t-53.5 -37t-28 -48t-8.5 -49.5q0 -31 11 -54t28.5 -38.5t35.5 -24.5t39 -16q47 -15 70.5 -24t39 -19t22.5 -24t7 -35q0 -40 -29 -61t-72 -21q-41 0 -73 19q-23 14 -34 29.5t-19 34.5l-1 2l-12 -3
q-3 -17 -9 -41t-14 -39q18 -13 57 -27.5t91 -14.5q50 0 87 14t60 37t34 51.5t11 58.5q0 36 -12 60t-33.5 38.5t-46 23t-69.5 20.5q-15 4 -31 10t-30.5 16.5t-23.5 26t-9 35.5q0 33 24.5 54t68.5 21q17 0 34 -3.5t31 -13.5q19 -13 26.5 -27.5t12.5 -31.5v-1h13zM372 716h-33
l-117 -105l-117 105h-34l123 -167h56z" />
    <glyph glyph-name="Ydieresis" unicode="&#x178;" horiz-adv-x="611" 
d="M363 227q0 40 1 55q0 1 2 5q9 22 17 36q15 28 46 80t70 114.5t67.5 106.5t41.5 63q-13 -3 -22.5 -4.5t-22.5 -1.5q-29 0 -47 6q-57 -138 -139 -280q0 -1 -4 -7q-12 -21 -22.5 -37.5t-13.5 -16.5q-5 0 -18.5 21.5t-32.5 54.5q-44 76 -75 135.5t-59 129.5q-30 -6 -70 -6
q-14 0 -31 1t-33 5q23 -37 43 -70.5t43.5 -72.5t67.5 -112.5t94 -157.5v-75q1 -26 1 -47q0 -48 -1.5 -83t-5.5 -74q11 4 23.5 5t36.5 1q30 0 50 -6q-2 30 -3 61t-2 71q-2 63 -2 100zM367 793q0 -20 13.5 -33.5t32.5 -13.5t33 14t14 33t-14 32.5t-33 13.5t-32.5 -13.5
t-13.5 -32.5zM171 793q0 -20 13.5 -33.5t32.5 -13.5t33 14t14 33t-14 32.5t-33 13.5t-32.5 -13.5t-13.5 -32.5z" />
    <glyph glyph-name="florin" unicode="&#x192;" 
d="M437 599v13q-1 5 -1 9q0 18 3 32t11 36q-35 0 -70 -12t-71 -51q-32 -36 -56 -86t-38 -119q-27 0 -83 3l-26 2q0 -2 1 -8v-6q0 -12 -6 -34q16 2 40.5 2.5t64.5 0.5l-4 -20l-12 -57q-29 -141 -34.5 -169.5t-10.5 -54t-24 -129.5q-11 -57 -25.5 -80.5t-41.5 -23.5
q-26 0 -43 20h-10q0 -38 -3 -55.5t-11 -37.5v0q25 1 45 4.5t43.5 15t47 34.5t46.5 62q20 35 39.5 94t35.5 128.5t28 131t25 137.5q26 0 52.5 -0.5t54.5 -2.5v10v6q0 8 0.5 14.5t3.5 17.5q-44 -5 -105 -5q6 46 13 86.5t15 64.5q8 21 19.5 32.5t32.5 11.5q14 0 25.5 -6.5
t19.5 -16.5z" />
    <glyph glyph-name="circumflex" unicode="&#x2c6;" horiz-adv-x="278" 
d="M-12 549h34l117 105l117 -105h33l-122 167h-56z" />
    <glyph glyph-name="tilde" unicode="&#x2dc;" horiz-adv-x="278" 
d="M3 574q8 28 24.5 37t30.5 9q17 0 47 -15l35 -17q28 -14 57 -14q24 0 42.5 10.5t31.5 27t20.5 33.5t10.5 31h-29q-9 -22 -22 -36t-34 -14q-12 0 -20.5 3t-30.5 13l-3 1q-2 1 -3 2q-42 19 -53.5 23t-26.5 4q-37 0 -67 -27t-37 -71h27z" />
    <glyph glyph-name="endash" unicode="&#x2013;" 
d="M0 187h500v60h-500v-60z" />
    <glyph glyph-name="emdash" unicode="&#x2014;" horiz-adv-x="1000" 
d="M130 187h740v60h-740v-60z" />
    <glyph glyph-name="quoteleft" unicode="&#x2018;" horiz-adv-x="250" 
d="M208 695q-11 1 -22 8l-121 -202q-7 -11 -11 -21t-4 -21q0 -17 11.5 -29.5t31.5 -12.5q23 0 33.5 14.5t16.5 35.5z" />
    <glyph glyph-name="quoteright" unicode="&#x2019;" horiz-adv-x="250" 
d="M42 417q13 -2 22 -8l121 202q15 25 15 42q0 16 -11 29t-32 13q-23 0 -33 -14t-17 -35v-1z" />
    <glyph glyph-name="quotesinglbase" unicode="&#x201a;" horiz-adv-x="250" 
d="M38 -165q13 0 22 -8l122 203q14 23 14 42q0 16 -11 28.5t-32 12.5q-23 0 -33.5 -14.5t-16.5 -35.5z" />
    <glyph glyph-name="quotedblleft" unicode="&#x201c;" 
d="M252 695q-11 1 -22 8l-122 -202l-2 -4q-12 -23 -12 -38q0 -17 11.5 -29.5t31.5 -12.5q23 0 33.5 14.5t16.5 35.5zM415 695q-11 1 -22 8l-121 -202q-7 -11 -11 -21t-4 -21q0 -16 11.5 -29t32.5 -13q22 0 32.5 14t17.5 35v1z" />
    <glyph glyph-name="quotedblright" unicode="&#x201d;" 
d="M85 417q12 0 22 -8l121 203q15 25 15 41t-11.5 29t-32.5 13q-23 0 -33.5 -15t-15.5 -35zM247 417q13 0 22 -8l122 203q15 25 15 42q0 16 -11.5 28.5t-32.5 12.5q-23 0 -33.5 -14.5t-16.5 -35.5z" />
    <glyph glyph-name="quotedblbase" unicode="&#x201e;" 
d="M83 -165q13 0 22 -8l122 203q15 25 15 42q0 16 -11.5 28.5t-32.5 12.5q-23 0 -33.5 -14.5t-16.5 -35.5zM246 -165q12 0 22 -8l121 203q15 23 15 42q0 16 -11 28.5t-32 12.5q-23 0 -33.5 -14.5t-16.5 -35.5z" />
    <glyph glyph-name="dagger" unicode="&#x2020;" 
d="M212 456q-31 0 -83 2q-24 0 -52 1.5t-43 3.5q4 -18 4 -37q0 -15 -4 -35q40 4 85.5 5.5t92.5 1.5q0 -71 -0.5 -125.5t-1.5 -95t-3.5 -83.5t-5.5 -99q12 3 21.5 4.5t25.5 1.5q15 0 24.5 -1.5t22.5 -3.5l3 -1q-10 191 -10 403q46 0 94 -2t84 -7q-4 19 -4 38q0 14 4 36
q-29 -4 -79.5 -5.5t-98.5 -1.5q0 55 2 108t10 123q-11 -3 -21.5 -4.5t-26.5 -1.5t-26.5 1.5t-20.5 4.5q5 -70 6 -124t1 -107z" />
    <glyph glyph-name="daggerdbl" unicode="&#x2021;" 
d="M287 455q67 0 99 -1.5t73 -5.5q-4 19 -4 35q0 19 4 40q-39 -5 -78 -7.5t-94 -2.5q0 73 9 186q-22 -6 -43 -6q-16 0 -40 5q-2 0 -7 1v-4q3 -38 4 -59t2 -36q1 -29 1 -87q-83 0 -115 2q-17 1 -30 3t-27 4q4 -20 4 -37t-4 -38h4q46 5 63.5 6t36.5 1t68 1v-231q-65 0 -98.5 2
t-73.5 7q4 -24 4 -37t-4 -37q45 5 85.5 6t86.5 1q0 -41 -2 -87.5t-6 -104.5h2q26 6 42 6q18 0 46 -6q-1 17 -3 55q-5 93 -5 137q53 0 90 -1.5t82 -5.5q-4 20 -4 35t4 39q-72 -7 -105.5 -8.5t-66.5 -1.5v232z" />
    <glyph glyph-name="bullet" unicode="&#x2022;" 
d="M250 510q-34 0 -65 -13t-54.5 -36.5t-37 -54.5t-13.5 -66t13 -66t36.5 -54.5t54.5 -36.5t66 -13t66 13t54.5 36.5t36.5 54.5t13 66t-13.5 66.5t-37 54.5t-54.5 36t-65 13z" />
    <glyph glyph-name="ellipsis" unicode="&#x2026;" horiz-adv-x="1000" 
d="M106 46q0 -25 18 -43t43 -18q26 0 44 18t18 43q0 26 -18 44t-44 18q-25 0 -43 -18t-18 -44zM772 46q0 -25 18 -43t43 -18q26 0 44 18t18 43q0 26 -18 44t-44 18q-25 0 -43 -18t-18 -44zM439 46q0 -25 18 -43t43 -18q26 0 44 18t18 43q0 26 -18 44t-44 18q-25 0 -43 -18
t-18 -44z" />
    <glyph glyph-name="perthousand" unicode="&#x2030;" horiz-adv-x="1000" 
d="M32 529q0 -63 37 -106.5t102 -43.5q69 0 109 48.5t40 120.5q0 69 -37.5 111t-101.5 42q-65 0 -107 -44.5t-42 -127.5zM175 403q-24 0 -39 14.5t-22 36t-9 41.5t-2 39q0 18 2 39t9.5 45.5t24 41.5t43.5 17q21 0 34.5 -12t20.5 -31t9.5 -41.5t2.5 -48.5q0 -22 -2 -43.5
t-9 -44.5t-22.5 -38t-40.5 -15zM347 137q0 -63 37 -106.5t102 -43.5q69 0 109 48.5t40 120.5q0 68 -37.5 110t-101.5 42q-65 0 -107 -44.5t-42 -126.5zM490 11q-24 0 -39 14t-22 35.5t-9 41.5t-2 39q0 18 2 39.5t9.5 45.5t24 41t43.5 17q21 0 34.5 -11.5t20.5 -31t9.5 -41.5
t2.5 -48q0 -21 -2 -43t-9 -44.5t-22.5 -38t-40.5 -15.5zM679 137q0 -64 36.5 -107t103.5 -43q69 0 109 48.5t40 120.5q0 68 -37.5 110t-102.5 42t-107 -44.5t-42 -126.5zM822 11q-24 0 -39 14t-22 35.5t-9 41.5t-2 39q0 18 2 39.5t9.5 45.5t24 41t43.5 17q21 0 34.5 -11.5
t21 -30.5t10 -42t2.5 -48q0 -21 -2 -43t-9 -44.5t-23 -38t-41 -15.5zM109 -42q1 0 4 1q11 2 19 2q9 0 19 -3h1l401 756q-2 0 -10 -1q-9 -2 -13 -2q-5 0 -14 2l-7 1z" />
    <glyph glyph-name="guilsinglleft" unicode="&#x2039;" horiz-adv-x="333" 
d="M210 440q-8 -15 -25 -41.5t-39.5 -59.5t-41 -57.5t-29.5 -37.5q35 -50 65 -96t60 -99q12 13 23 19.5t28 11.5q-66 84 -116 165q11 17 27.5 40.5t32.5 44.5t33.5 43t29.5 36q-11 3 -21.5 9t-26.5 22z" />
    <glyph glyph-name="guilsinglright" unicode="&#x203a;" horiz-adv-x="333" 
d="M133 49q30 54 63 104.5t62 90.5q-11 13 -30 38.5t-40 56t-39 58t-27 43.5q-11 -13 -21.5 -19.5t-25.5 -11.5q11 -12 27 -32t33.5 -44t34 -47t27.5 -41q-57 -90 -115 -164q29 -10 51 -32z" />
    <glyph glyph-name="trademark" unicode="&#x2122;" horiz-adv-x="933" 
d="M200 644v-39q1 -42 1 -74q0 -53 -1.5 -103t-4.5 -89q18 4 32 4q11 0 33 -3l6 -1q-2 27 -3.5 72.5t-1.5 102.5q0 39 1 89v41q45 0 66.5 -1.5t41.5 -5.5v2q-3 15 -3 22q0 8 3 24q-25 -3 -58.5 -4t-83.5 -1q-46 0 -80.5 1t-59.5 4q3 -14 3 -24q0 -5 -2 -14q-1 -8 -1 -9h1
q20 4 38 5t73 1zM585 339q3 0 7 1l3 1q1 0 4 -1q4 -1 6 -1q20 49 48.5 102.5t74.5 133.5q1 -6 4 -35.5t7 -70t6.5 -76t2.5 -54.5q22 4 36 4q7 0 24 -2q11 -2 12 -2q-4 10 -5 21q-4 25 -9.5 64t-8.5 64.5t-10 82t-14 114.5h-9q-3 -1 -5 -1t-4 1h-8q-11 -24 -40.5 -77.5
t-98.5 -176.5q-9 15 -29.5 50t-43 75.5t-42.5 77t-26 51.5h-7q-4 -1 -6 -1t-5 1h-9q-4 -38 -11.5 -90.5t-16 -107t-16 -95t-10.5 -53.5q3 0 13 2q12 2 19 2q8 0 24 -4q0 44 5 106.5t13 125.5q46 -81 78.5 -140t46.5 -92z" />
    </font>
</defs>
</svg>
