<?xml version="1.0" encoding="utf-8"?>
<!-- Generated by IcoMoon.io -->
<!DOCTYPE svg PUBLIC "-//W3C//DTD SVG 1.1//EN" "http://www.w3.org/Graphics/SVG/1.1/DTD/svg11.dtd">
<svg version="1.1" xmlns="http://www.w3.org/2000/svg" xmlns:xlink="http://www.w3.org/1999/xlink" width="32" height="32" viewBox="0 0 32 32">
	<path d="M30.875 17.156l-7.781 1.125 5.781 5.938q0.469 0.656 0.344 1.469t-0.75 1.281l-6.125 4.656q-0.625 0.469-1.391 0.344t-1.234-0.781l-3.469-7.281-3.469 7.281q-0.469 0.656-1.234 0.781t-1.391-0.344l-6.125-4.656q-0.625-0.469-0.75-1.281t0.344-1.469l5.781-5.938-7.781-1.125q-0.781-0.25-1.156-0.969t-0.125-1.469l2.469-7.375q0.25-0.781 0.984-1.141t1.516-0.109l6.156 3.094-1.219-7.188q0-0.813 0.594-1.406t1.406-0.594h8q0.813 0 1.406 0.594t0.594 1.406l-1.219 7.188 6.156-3.094q0.781-0.25 1.516 0.109t0.984 1.141l2.469 7.375q0.25 0.75-0.125 1.469t-1.156 0.969z" fill="#000000" />
</svg>
